<svg xmlns="http://www.w3.org/2000/svg" width="136" height="136" viewBox="0 0 136 136">
  <g id="Grupo_129278" data-name="Grupo 129278" transform="translate(6630 10557)">
    <g id="Grupo_129277" data-name="Grupo 129277">
      <circle id="Elipse_4909" data-name="Elipse 4909" cx="68" cy="68" r="68" transform="translate(-6630 -10557)" fill="#ff9500" opacity="0.95" style="isolation: isolate"/>
      <circle id="Elipse_4910" data-name="Elipse 4910" cx="55" cy="55" r="55" transform="translate(-6616 -10543)" fill="#efefef" opacity="0.95" style="isolation: isolate"/>
    </g>
    <g id="Grupo_83457" data-name="Grupo 83457" transform="translate(-6818.5 -10745.5)">
      <g id="Grupo_83457-2" data-name="Grupo 83457" transform="translate(232.893 223.258)">
        <path id="Trazado_114243" data-name="Trazado 114243" d="M243.708,236.421V224.3a1.515,1.515,0,0,0-3.031,0v12.121a6.189,6.189,0,0,0-4.7,6.061,6.825,6.825,0,0,0,1.819,4.545l-5.455,9.242a1.56,1.56,0,1,0,2.727,1.515l5.455-9.242a7.606,7.606,0,0,0,1.819.3,6.241,6.241,0,0,0,6.212-6.212A6.566,6.566,0,0,0,243.708,236.421Zm-1.515,9.242a3.181,3.181,0,1,1,3.181-3.181A3.3,3.3,0,0,1,242.193,245.663Z" transform="translate(-232.131 -222.785)" fill="#255065"/>
      </g>
      <g id="Grupo_83458" data-name="Grupo 83458" transform="translate(241.439 213.258)">
        <path id="Trazado_114244" data-name="Trazado 114244" d="M241.936,219.146a1.432,1.432,0,0,0,1.515-1.515V214.6a1.515,1.515,0,1,0-3.031,0v3.03A1.519,1.519,0,0,0,241.936,219.146Z" transform="translate(-240.421 -213.085)" fill="#255065"/>
      </g>
      <g id="Grupo_83459" data-name="Grupo 83459" transform="translate(241.439 266.439)">
        <path id="Trazado_114245" data-name="Trazado 114245" d="M241.936,264.671a1.432,1.432,0,0,0-1.515,1.515v3.03a1.515,1.515,0,1,0,3.031,0v-3.03A1.63,1.63,0,0,0,241.936,264.671Z" transform="translate(-240.421 -264.671)" fill="#255065"/>
      </g>
      <g id="Grupo_83460" data-name="Grupo 83460" transform="translate(213.258 241.439)">
        <path id="Trazado_114246" data-name="Trazado 114246" d="M219.146,241.936a1.432,1.432,0,0,0-1.515-1.515H214.6a1.515,1.515,0,1,0,0,3.031h3.03A1.63,1.63,0,0,0,219.146,241.936Z" transform="translate(-213.085 -240.421)" fill="#255065"/>
      </g>
      <g id="Grupo_83461" data-name="Grupo 83461" transform="translate(266.439 241.439)">
        <path id="Trazado_114247" data-name="Trazado 114247" d="M264.671,241.936a1.432,1.432,0,0,0,1.515,1.515h3.03a1.515,1.515,0,1,0,0-3.031h-3.03A1.519,1.519,0,0,0,264.671,241.936Z" transform="translate(-264.671 -240.421)" fill="#255065"/>
      </g>
      <g id="Grupo_83462" data-name="Grupo 83462" transform="translate(216.899 227.135)">
        <path id="Trazado_114248" data-name="Trazado 114248" d="M217.37,229.486,220.1,231a1.56,1.56,0,1,0,1.515-2.727l-2.727-1.515a1.533,1.533,0,0,0-2.122.606C216.46,228.275,216.612,229.184,217.37,229.486Z" transform="translate(-216.617 -226.546)" fill="#255065"/>
      </g>
      <g id="Grupo_83463" data-name="Grupo 83463" transform="translate(227.286 263.044)">
        <path id="Trazado_114249" data-name="Trazado 114249" d="M230.542,261.591a1.532,1.532,0,0,0-2.121.606l-1.515,2.727a1.56,1.56,0,1,0,2.727,1.515l1.515-2.728A1.677,1.677,0,0,0,230.542,261.591Z" transform="translate(-226.693 -261.378)" fill="#255065"/>
      </g>
      <g id="Grupo_83464" data-name="Grupo 83464" transform="translate(253.869 216.832)">
        <path id="Trazado_114250" data-name="Trazado 114250" d="M253.231,222.22a1.533,1.533,0,0,0,2.121-.606l1.515-2.727a1.56,1.56,0,1,0-2.728-1.515l-1.514,2.727a1.678,1.678,0,0,0,.606,2.122Z" transform="translate(-252.478 -216.552)" fill="#255065"/>
      </g>
      <g id="Grupo_83465" data-name="Grupo 83465" transform="translate(226.941 217.093)">
        <path id="Trazado_114251" data-name="Trazado 114251" d="M230.25,222.364a1.491,1.491,0,0,0,.455-2.122l-1.514-2.727a1.534,1.534,0,1,0-2.576,1.667l1.515,2.727A1.63,1.63,0,0,0,230.25,222.364Z" transform="translate(-226.358 -216.805)" fill="#255065"/>
      </g>
      <g id="Grupo_83466" data-name="Grupo 83466" transform="translate(217.093 254.214)">
        <path id="Trazado_114252" data-name="Trazado 114252" d="M220.242,253.069l-2.727,1.514a1.534,1.534,0,0,0,1.667,2.576l2.727-1.515a1.534,1.534,0,1,0-1.667-2.575Z" transform="translate(-216.805 -252.813)" fill="#255065"/>
      </g>
      <g id="Grupo_83467" data-name="Grupo 83467" transform="translate(262.85 227.093)">
        <path id="Trazado_114253" data-name="Trazado 114253" d="M263.566,230.851l2.728-1.514a1.534,1.534,0,1,0-1.667-2.576l-2.727,1.515a1.489,1.489,0,0,0-.455,2.121A1.823,1.823,0,0,0,263.566,230.851Z" transform="translate(-261.19 -226.505)" fill="#255065"/>
      </g>
      <g id="Grupo_83468" data-name="Grupo 83468" transform="translate(267.955 207.5)">
        <path id="Trazado_114254" data-name="Trazado 114254" d="M267.656,210.53h26.211v36.364l-6.211-6.212a1.5,1.5,0,1,0-2.122,2.122l8.788,8.788a1.465,1.465,0,0,0,2.122,0l8.788-8.788a1.5,1.5,0,0,0-2.121-2.122l-6.212,6.212V209.015a1.432,1.432,0,0,0-1.515-1.515H267.656a1.432,1.432,0,0,0-1.515,1.515,1.518,1.518,0,0,0,1.515,1.514Z" transform="translate(-266.141 -207.5)" fill="#255065"/>
      </g>
      <g id="Grupo_83469" data-name="Grupo 83469" transform="translate(207.5 207.5)">
        <path id="Trazado_114255" data-name="Trazado 114255" d="M306.439,262.652c-.3-.152-28.181-15.455-28.484-15.455.152-1.515.3-2.878.3-4.242A35.379,35.379,0,1,0,242.8,278.409a32.366,32.366,0,0,0,5.152-.455v10.3a1.35,1.35,0,0,0,.758,1.212l28.03,17.727c.3.151.455.3.758.3a6.564,6.564,0,0,0,.758-.152l28.333-15a1.592,1.592,0,0,0,.758-1.364V264.015a1.456,1.456,0,0,0-.909-1.364Zm-3.788,1.364-6.667,3.636-25.152-13.788,6.667-3.486Zm-12.727,7.727L263.864,257.5l3.788-2.122,26.819,14.7v7.576l-3.637,2.273v-6.819a1.536,1.536,0,0,0-.908-1.364Zm-12.273,5.909-25-14.091,8.03-4.242,25.455,13.788ZM242.8,275.227a32.349,32.349,0,1,1,32.425-32.272,36.056,36.056,0,0,1-.455,5.455S249.015,262.2,248.712,262.2a1.808,1.808,0,0,0-.758,1.364v11.364c-1.819.152-3.636.3-5.152.3Zm8.181,12.122V266.136l25,14.091v23.031Zm28.031,16.061V280.378l8.636-4.7V282.5a1.591,1.591,0,0,0,.758,1.364,1.376,1.376,0,0,0,1.515,0l6.818-3.788a1.591,1.591,0,0,0,.758-1.364v-8.486l6.667-3.636v23.485Z" transform="translate(-207.5 -207.5)" fill="#255065"/>
      </g>
      <g id="Grupo_83470" data-name="Grupo 83470" transform="translate(253.802 275.165)">
        <path id="Trazado_114256" data-name="Trazado 114256" d="M271.262,282.895l-16.515-9.546a1.56,1.56,0,0,0-1.514,2.728l16.514,9.394a1.533,1.533,0,0,0,2.122-.606,1.656,1.656,0,0,0-.606-1.969Z" transform="translate(-252.413 -273.135)" fill="#255065"/>
      </g>
      <g id="Grupo_83471" data-name="Grupo 83471" transform="translate(253.65 281.226)">
        <path id="Trazado_114257" data-name="Trazado 114257" d="M271.115,288.924l-16.515-9.7a1.56,1.56,0,0,0-1.514,2.728L269.6,291.5a1.533,1.533,0,0,0,2.122-.606A1.6,1.6,0,0,0,271.115,288.924Z" transform="translate(-252.266 -279.014)" fill="#255065"/>
      </g>
    </g>
  </g>
</svg>
