<svg xmlns="http://www.w3.org/2000/svg" width="136" height="136" viewBox="0 0 136 136">
  <g id="Grupo_129282" data-name="Grupo 129282" transform="translate(-575 -1255)">
    <circle id="Elipse_4950" data-name="Elipse 4950" cx="68" cy="68" r="68" transform="translate(575 1255)" fill="#ff9500" opacity="0.95" style="isolation: isolate"/>
    <circle id="Elipse_4951" data-name="Elipse 4951" cx="55" cy="55" r="55" transform="translate(586.486 1268)" fill="#efefef" opacity="0.95" style="isolation: isolate"/>
    <g id="Grupo_128814" data-name="Grupo 128814" transform="translate(392.653 1069.183)">
      <path id="Trazado_168851" data-name="Trazado 168851" d="M293.041,244.6h-4.87a4.8,4.8,0,0,0-4.577-3.519h-5.2V228.367a1.343,1.343,0,0,0-.654-1.185L241.071,206a1.357,1.357,0,0,0-1.361,0l-36.682,21.181a1.365,1.365,0,0,0-.68,1.185v42.361a1.37,1.37,0,0,0,.684,1.185l36.686,21.18a1.365,1.365,0,0,0,.685.184,1.435,1.435,0,0,0,.7-.184l19.305-11.135v8.05a5.8,5.8,0,0,0,5.78,5.81h26.852a5.827,5.827,0,0,0,5.882-5.773V250.5A5.9,5.9,0,0,0,293.041,244.6Zm-9.4-.782a1.987,1.987,0,0,1,1.986,1.987h0v.132a1.986,1.986,0,0,1-1.986,1.986H275.69a1.986,1.986,0,0,1-1.986-1.986h0V245.8a1.987,1.987,0,0,1,1.986-1.987h7.952ZM240.4,208.766l15.243,8.8-33.946,19.6-15.243-8.8Zm-1.3,80.772-34.017-19.6v-39.2l34.017,19.6Zm1.3-41.574-15.966-9.218,33.946-19.6,15.966,9.218ZM260.41,250.5v28.3l-18.572,10.74v-39.2l33.821-19.6v10.345h.042a4.8,4.8,0,0,0-4.578,3.519h-4.869A5.872,5.872,0,0,0,260.41,250.5Zm35.776,39.51a3.088,3.088,0,0,1-3.1,3.074H266.253a3.055,3.055,0,0,1-3.107-3V250.5a3.133,3.133,0,0,1,3.1-3.164h4.929a4.681,4.681,0,0,0,4.524,3.324h7.893a4.681,4.681,0,0,0,4.524-3.324h4.923a3.164,3.164,0,0,1,3.145,3.164Z" transform="translate(0 0)" fill="#255065"/>
      <path id="Trazado_168852" data-name="Trazado 168852" d="M274.953,269.824h1.433a1.368,1.368,0,0,0,0-2.737h-.054v-3.714h3.774a1.319,1.319,0,0,0,1.3.924,1.373,1.373,0,0,0,1.376-1.365v-.921a1.387,1.387,0,0,0-1.383-1.375h-6.447a1.365,1.365,0,0,0-1.358,1.373v6.448a1.358,1.358,0,0,0,1.35,1.367Z" transform="translate(-7.125 -5.482)" fill="#255065"/>
      <path id="Trazado_168853" data-name="Trazado 168853" d="M274.963,283.726h6.451a1.369,1.369,0,0,0,1.369-1.368v-6.452a1.369,1.369,0,0,0-1.369-1.368h-6.451a1.368,1.368,0,0,0-1.368,1.368v6.452A1.368,1.368,0,0,0,274.963,283.726Zm1.369-6.451h3.714v3.714h-3.714Z" transform="translate(-7.125 -6.872)" fill="#255065"/>
      <path id="Trazado_168854" data-name="Trazado 168854" d="M276.386,294.891h-.054v-3.714h3.7a1.376,1.376,0,0,0,2.751,0v-1.318a1.427,1.427,0,0,0-1.383-1.421h-6.447a1.4,1.4,0,0,0-1.358,1.421v6.447a1.32,1.32,0,0,0,1.318,1.321h1.472a1.368,1.368,0,0,0,0-2.737Z" transform="translate(-7.125 -8.262)" fill="#255065"/>
      <path id="Trazado_168855" data-name="Trazado 168855" d="M284.928,262.457l-4.008,4.008-1.22-1.219a1.368,1.368,0,0,0-1.935,1.935l2.187,2.187a1.368,1.368,0,0,0,1.935,0h0l4.976-4.976a1.369,1.369,0,1,0-1.936-1.935Z" transform="translate(-7.502 -5.624)" fill="#255065"/>
      <path id="Trazado_168856" data-name="Trazado 168856" d="M284.928,290.533l-4.008,4.007-1.22-1.219a1.368,1.368,0,0,0-1.935,1.935l2.187,2.187a1.368,1.368,0,0,0,1.935,0h0l4.976-4.976a1.369,1.369,0,0,0-1.936-1.935Z" transform="translate(-7.502 -8.431)" fill="#255065"/>
      <path id="Trazado_168857" data-name="Trazado 168857" d="M300.26,264.329h-8.6a1.368,1.368,0,0,0,0,2.737h8.6a1.368,1.368,0,1,0,0-2.737Z" transform="translate(-8.795 -5.851)" fill="#255065"/>
      <path id="Trazado_168858" data-name="Trazado 168858" d="M300.26,278.231h-8.6a1.368,1.368,0,0,0,0,2.737h8.6a1.368,1.368,0,1,0,0-2.737Z" transform="translate(-8.795 -7.241)" fill="#255065"/>
      <path id="Trazado_168859" data-name="Trazado 168859" d="M300.26,292.133h-8.6a1.368,1.368,0,0,0,0,2.737h8.6a1.368,1.368,0,1,0,0-2.737Z" transform="translate(-8.795 -8.631)" fill="#255065"/>
    </g>
  </g>
</svg>
