<svg xmlns="http://www.w3.org/2000/svg" width="136" height="136" viewBox="0 0 136 136">
  <g id="Grupo_129283" data-name="Grupo 129283" transform="translate(-891 -1255)">
    <circle id="Elipse_4950" data-name="Elipse 4950" cx="68" cy="68" r="68" transform="translate(891 1255)" fill="#ff9500" opacity="0.95" style="isolation: isolate"/>
    <circle id="Elipse_4951" data-name="Elipse 4951" cx="55" cy="55" r="55" transform="translate(902.486 1268)" fill="#efefef" opacity="0.95" style="isolation: isolate"/>
    <g id="Grupo_128815" data-name="Grupo 128815" transform="translate(701.228 1065.5)">
      <path id="Trazado_168860" data-name="Trazado 168860" d="M289.446,261.628V232.98a1.46,1.46,0,0,0-.734-1.263l-39.875-23.022a1.457,1.457,0,0,0-1.455,0l-39.859,23.012a1.457,1.457,0,0,0-.751,1.273v50.04a1.452,1.452,0,0,0,.727,1.259l39.883,23.026a1.456,1.456,0,0,0,1.455,0l21.421-12.366a21.4,21.4,0,1,0,19.188-33.312ZM271.192,224.96l-36.971,21.346-7.256-4.19,36.971-21.345Zm-38.454,23.823v26.652L230,272.345a1.5,1.5,0,0,0-1.677-.384l-2.852,1.164V244.633Zm15.371-37.15,12.918,7.459-36.971,21.346-12.918-7.459Zm-1.454,91.9-36.975-21.347V235.495l12.878,7.46V275.3a1.484,1.484,0,0,0,2.04,1.344l3.875-1.6,4.582,5.2a1.46,1.46,0,0,0,1.093.494,1.586,1.586,0,0,0,.535-.094,1.475,1.475,0,0,0,.962-1.361V250.462l11.01,6.38Zm1.454-49.2-10.98-6.339L274.1,226.639l10.979,6.339Zm1.454,49.205V256.841l36.975-21.348v26.134a21.4,21.4,0,0,0-17.742,30.8Zm38.429-2.069a18.487,18.487,0,1,1,18.487-18.487,18.486,18.486,0,0,1-18.487,18.487Z" transform="translate(0 0)" fill="#255065"/>
      <path id="Trazado_168861" data-name="Trazado 168861" d="M258.415,254.948a1.457,1.457,0,0,0-2.058-.057,1.426,1.426,0,0,0-.281.368l-3.511,6.531a1.455,1.455,0,0,0,1.279,2.143,1.494,1.494,0,0,0,1.308-.766l.8-1.443v12.5a1.454,1.454,0,1,0,2.909,0V259.606l1.182,1.279a1.44,1.44,0,0,0,2.034.067l.009-.008a1.454,1.454,0,0,0,.053-2.055h0Z" transform="translate(1.921 1.937)" fill="#255065"/>
      <path id="Trazado_168862" data-name="Trazado 168862" d="M213.21,272.435a1.453,1.453,0,0,0-1.454,1.454v5.385a1.454,1.454,0,0,0,2.908,0v-5.385A1.453,1.453,0,0,0,213.21,272.435Z" transform="translate(0.21 2.692)" fill="#255065"/>
      <path id="Trazado_168863" data-name="Trazado 168863" d="M218.791,276.262a1.454,1.454,0,0,0-1.454,1.454v4.85a1.454,1.454,0,1,0,2.908,0v-4.85A1.453,1.453,0,0,0,218.791,276.262Z" transform="translate(0.445 2.854)" fill="#255065"/>
      <path id="Trazado_168864" data-name="Trazado 168864" d="M224.572,280.089a1.455,1.455,0,0,0-1.455,1.454v4.271a1.454,1.454,0,1,0,2.909,0v-4.271A1.454,1.454,0,0,0,224.572,280.089Z" transform="translate(0.688 3.015)" fill="#255065"/>
      <path id="Trazado_168865" data-name="Trazado 168865" d="M230.153,283.916a1.454,1.454,0,0,0-1.454,1.454v3.691a1.454,1.454,0,1,0,2.908,0V285.37A1.454,1.454,0,0,0,230.153,283.916Z" transform="translate(0.923 3.176)" fill="#255065"/>
      <path id="Trazado_168866" data-name="Trazado 168866" d="M234.479,292.388a1.454,1.454,0,0,0,2.909,0h0V289.2a1.454,1.454,0,0,0-2.909,0Z" transform="translate(1.167 3.337)" fill="#255065"/>
      <path id="Trazado_168867" data-name="Trazado 168867" d="M260.322,275.436,253.7,279.26a1.454,1.454,0,1,0,1.454,2.518l6.624-3.823a1.454,1.454,0,1,0-1.454-2.519Z" transform="translate(1.945 2.811)" fill="#255065"/>
      <path id="Trazado_168868" data-name="Trazado 168868" d="M292.675,272.651a1.455,1.455,0,0,0-2.057,0h0l-5.582,5.582-5.582-5.582a1.454,1.454,0,0,0-2.056,2.056l5.582,5.582L277.4,285.87a1.455,1.455,0,0,0,2.057,2.057h0l5.582-5.582,5.582,5.582a1.454,1.454,0,1,0,2.056-2.057h0l-5.582-5.582,5.583-5.582a1.455,1.455,0,0,0,0-2.056Z" transform="translate(2.956 2.683)" fill="#255065"/>
    </g>
  </g>
</svg>
