<svg xmlns="http://www.w3.org/2000/svg" width="52.584" height="76.996" viewBox="0 0 52.584 76.996">
  <g id="Grupo_129109" data-name="Grupo 129109" transform="translate(-225.828 -152.249)">
    <rect id="Rectángulo_40208" data-name="Rectángulo 40208" width="20.82" height="2.708" rx="1.354" transform="translate(240.983 221.934)" fill="#263238"/>
    <path id="Trazado_168923" data-name="Trazado 168923" d="M245.976,226.261H257.2s-1.492,2.984-5.841,2.984C246.819,229.245,245.976,226.261,245.976,226.261Z" fill="#263238"/>
    <g id="Grupo_129052" data-name="Grupo 129052">
      <g id="Grupo_129051" data-name="Grupo 129051">
        <path id="Trazado_168924" data-name="Trazado 168924" d="M256.9,163.205a3.959,3.959,0,1,0-1.307,5.491l.049-.034-2.681,10.992,8.64,2.107-.034-.049a3.937,3.937,0,1,1,5.49,1.307l-.084.052,9.288,2.264a22.688,22.688,0,0,0,.708-17.351,24.427,24.427,0,0,0-16.261-15.43l-1.075-.262-2.681,11Z" fill="#e0e0e0"/>
        <g id="Grupo_129050" data-name="Grupo 129050">
          <path id="Trazado_168925" data-name="Trazado 168925" d="M256.9,163.206s.01.013.054.082h0c.094-.437,1.05-4.4,2.649-11.005l.009-.035.034.008.886.215c.3.069.6.171.907.263.608.2,1.231.426,1.859.691a24.374,24.374,0,0,1,3.833,2.009,23.869,23.869,0,0,1,7.089,6.932c.252.372.471.77.712,1.158l.356.59c.109.2.208.412.313.619l.627,1.257.535,1.321a23.57,23.57,0,0,1,1.486,5.7,22.337,22.337,0,0,1-.09,6.18c-.07.524-.187,1.042-.292,1.565-.128.517-.252,1.039-.413,1.552a25.141,25.141,0,0,1-1.133,3.05l-.02.047-.05-.012-6.481-1.58-2.806-.685-.145-.035.127-.076a3.866,3.866,0,0,0,1.86-2.933,3.7,3.7,0,0,0-.059-1.179,4.266,4.266,0,0,0-.158-.568,4.461,4.461,0,0,0-.25-.533,3.743,3.743,0,0,0-.71-.924,3.887,3.887,0,0,0-5.954.7,3.7,3.7,0,0,0-.458,1.006,3.568,3.568,0,0,0-.161,1.084,3.87,3.87,0,0,0,.6,2.053l.077.122-.138-.033-8.638-2.111-.052-.013.013-.051c.983-4.019,1.882-7.7,2.689-10.991l.068.047a3.966,3.966,0,0,1-2.006.613,3.913,3.913,0,0,1-1.936-.455,3.977,3.977,0,0,1-1.352-5.9,4.055,4.055,0,0,1,2.187-1.472,4.344,4.344,0,0,1,1.13-.125,4.477,4.477,0,0,1,.986.159,3.957,3.957,0,0,1,1.378.724,3.836,3.836,0,0,1,.663.694,2.4,2.4,0,0,1,.183.272s-.018-.022-.049-.067-.078-.112-.144-.2a4.018,4.018,0,0,0-.669-.681,3.944,3.944,0,0,0-1.373-.708,4.473,4.473,0,0,0-.976-.152,4.336,4.336,0,0,0-1.117.129,4.012,4.012,0,0,0-2.151,1.461,3.91,3.91,0,0,0,1.341,5.8,3.84,3.84,0,0,0,1.9.441,3.894,3.894,0,0,0,1.957-.6l.094-.06-.025.106-2.672,11-.039-.064,8.64,2.1-.06.088a3.989,3.989,0,0,1-.62-2.118,3.754,3.754,0,0,1,.165-1.117,3.838,3.838,0,0,1,.472-1.037,4.007,4.007,0,0,1,6.136-.727,3.9,3.9,0,0,1,.734.953,4.735,4.735,0,0,1,.257.549,4.383,4.383,0,0,1,.163.586,3.794,3.794,0,0,1,.061,1.217A3.984,3.984,0,0,1,267,183.123l-.017-.112,2.806.684,6.481,1.581-.07.034a25.231,25.231,0,0,0,1.128-3.035c.161-.511.284-1.029.411-1.544.105-.52.222-1.035.291-1.556a22.186,22.186,0,0,0,.093-6.148,23.424,23.424,0,0,0-1.474-5.674l-.531-1.317-.623-1.252c-.105-.207-.2-.415-.312-.617l-.353-.587c-.239-.388-.458-.784-.708-1.154a23.822,23.822,0,0,0-7.05-6.915,24.357,24.357,0,0,0-3.815-2.01c-.626-.266-1.246-.492-1.851-.693-.306-.092-.6-.194-.9-.264l-.883-.217.043-.026c-1.618,6.6-2.6,10.558-2.714,10.989l0,.006,0-.005C256.9,163.221,256.9,163.206,256.9,163.206Z" fill="#263238"/>
        </g>
      </g>
    </g>
    <g id="Grupo_129056" data-name="Grupo 129056">
      <g id="Grupo_129054" data-name="Grupo 129054">
        <path id="Trazado_168926" data-name="Trazado 168926" d="M265.005,191.739l.068-.069a3.884,3.884,0,1,0-5.536.03l.043.039h-9.222v10.35l.039-.043a3.834,3.834,0,0,1,2.713-1.131,3.874,3.874,0,1,1-2.683,6.667l-.069-.068v11.868h10.4s.474-3.96.948-6.969,7.2-9.148,9.136-11.708a23.652,23.652,0,0,0,3.543-8.966Z" fill="#e0e0e0"/>
        <path id="Trazado_168927" data-name="Trazado 168927" d="M268.189,203.674a1.236,1.236,0,0,0-1.4-.717c-.375.094-.716.37-1.1.328a1.088,1.088,0,0,1-.779-.654c-.16-.316-.248-.667-.435-.967a.925.925,0,0,0-.87-.494c-.457.075-.742.635-1.2.643a.84.84,0,0,1-.663-.419c-.153-.226-.25-.487-.406-.71a1.644,1.644,0,0,0-2.284-.318,2.3,2.3,0,0,0-.978,1.723c-.191,2.288-1.083,2.7-1.083,2.7a3.873,3.873,0,0,1-6.556,2.794l-.069-.068v11.868h10.4s.474-3.96.948-6.969l-.016-.077c.006-.027.011-.057.016-.093C262,210.1,268.189,203.674,268.189,203.674Z" fill="#255065"/>
        <g id="Grupo_129053" data-name="Grupo 129053">
          <path id="Trazado_168928" data-name="Trazado 168928" d="M265.005,191.739l9.379-.033h.04l-.008.039a26.6,26.6,0,0,1-1.8,5.842,18.031,18.031,0,0,1-1.725,3.128c-.761.989-1.655,1.926-2.563,2.913s-1.86,2-2.8,3.073a32.415,32.415,0,0,0-2.73,3.47,7.092,7.092,0,0,0-.988,2.048c-.142.756-.242,1.543-.357,2.329-.222,1.576-.431,3.194-.631,4.839l-.006.053h-.052l-10.4,0H250.3V207.365l.1.106a3.812,3.812,0,0,0,2.062,1.074,3.77,3.77,0,0,0,1.166.016,3.61,3.61,0,0,0,1.11-.33,4.218,4.218,0,0,0,.5-.283,4.337,4.337,0,0,0,.45-.361,3.678,3.678,0,0,0,.715-.892,3.812,3.812,0,0,0-2.054-5.509,3.634,3.634,0,0,0-1.065-.2,3.563,3.563,0,0,0-1.07.1,3.8,3.8,0,0,0-1.818,1.046l-.1.1v-.142c0-3.65,0-7.11.005-10.35v-.052h.052l9.222.008-.029.077a3.9,3.9,0,0,1-1.053-1.78,3.839,3.839,0,0,1-.009-1.962,3.9,3.9,0,0,1,7.614.227,3.667,3.667,0,0,1,.059.507,3.285,3.285,0,0,1,0,.476,3.848,3.848,0,0,1-.4,1.481,3.8,3.8,0,0,1-.528.786c-.07.08-.127.138-.164.176l-.06.056.055-.06c.036-.041.091-.1.16-.181a3.938,3.938,0,0,0,.515-.788,3.844,3.844,0,0,0,.39-1.472,3.1,3.1,0,0,0,0-.471,3.591,3.591,0,0,0-.06-.5,3.839,3.839,0,0,0-7.495-.216,3.769,3.769,0,0,0,.013,1.921,3.809,3.809,0,0,0,1.031,1.736l.079.077h-.109l-9.222.008.052-.052c0,3.24,0,6.7,0,10.35l-.1-.038a3.915,3.915,0,0,1,1.876-1.083,3.647,3.647,0,0,1,1.1-.1,3.732,3.732,0,0,1,1.1.209,3.931,3.931,0,0,1,2.12,5.68,3.81,3.81,0,0,1-.738.921,3.606,3.606,0,0,1-.984.665,3.718,3.718,0,0,1-1.146.341,3.913,3.913,0,0,1-3.33-1.124l.1-.044q0,1.779,0,3.591c0,2.835,0,5.624,0,8.277l-.061-.061,10.4,0-.058.053q.3-2.478.635-4.844c.117-.789.215-1.566.361-2.338a7.172,7.172,0,0,1,1.006-2.082,32.411,32.411,0,0,1,2.742-3.478c.948-1.076,1.9-2.09,2.812-3.072s1.8-1.922,2.563-2.9a18.079,18.079,0,0,0,1.721-3.107,26.709,26.709,0,0,0,1.813-5.821l.032.039Z" fill="#263238"/>
        </g>
        <path id="Trazado_168929" data-name="Trazado 168929" d="M258.084,199.143a.9.9,0,1,1-.9-.9A.9.9,0,0,1,258.084,199.143Z" fill="#255065"/>
      </g>
      <g id="Grupo_129055" data-name="Grupo 129055" opacity="0.2">
        <path id="Trazado_168930" data-name="Trazado 168930" d="M253.467,208.6a2.391,2.391,0,0,1-2.347-1.114l-.706.311a2.356,2.356,0,0,0,1.017,1.576,4.089,4.089,0,0,0,2.747.208,2.868,2.868,0,0,0,1.853-2.068A5.153,5.153,0,0,1,253.467,208.6Z"/>
      </g>
    </g>
    <g id="Grupo_129059" data-name="Grupo 129059">
      <g id="Grupo_129058" data-name="Grupo 129058">
        <path id="Trazado_168931" data-name="Trazado 168931" d="M245.008,166.153a3.866,3.866,0,0,1,2.818.648l.079.057-1.732-10.97h0l-1.072.169a23.965,23.965,0,0,0-17.149,13.77,22.258,22.258,0,0,0-.712,17.022l1.142-.18,8.891-1.4-.057.079a3.884,3.884,0,1,0,5.465-.893l-.049-.032.246-.039,7.6-1.2-1.731-10.964-.031.049a3.833,3.833,0,0,1-2.5,1.539,3.873,3.873,0,1,1-1.208-7.652Z" fill="#255065"/>
        <g id="Grupo_129057" data-name="Grupo 129057">
          <path id="Trazado_168932" data-name="Trazado 168932" d="M245.008,166.153s-.087.023-.258.061a2.057,2.057,0,0,0-.314.089c-.062.021-.129.04-.2.066l-.221.1a3.875,3.875,0,0,0-1.045.7,3.924,3.924,0,0,0-.951,1.43,4.257,4.257,0,0,0-.15.479,3.936,3.936,0,0,0-.083.523,3.64,3.64,0,0,0,.06,1.132,3.835,3.835,0,0,0,4.061,3.066,3.723,3.723,0,0,0,1.547-.464,3.83,3.83,0,0,0,1.262-1.143l.059-.085.016.1c.512,3.227,1.1,6.915,1.74,10.963l.008.051-.05.008-7.849,1.243.022-.1a3.925,3.925,0,0,1,1.349,1.654,3.677,3.677,0,0,1,.281,1.059,3.855,3.855,0,0,1-.02,1.109,4.066,4.066,0,0,1-.337,1.069,4.163,4.163,0,0,1-.633.939,4.078,4.078,0,0,1-.885.726,4.03,4.03,0,0,1-1.067.442,3.9,3.9,0,0,1-2.313-.122,3.959,3.959,0,0,1-1.864-1.439,4.286,4.286,0,0,1-.31-.517,4.391,4.391,0,0,1-.22-.564,3.864,3.864,0,0,1-.182-1.2,3.938,3.938,0,0,1,.762-2.3l.059.1-6.489,1.025-3.543.559-.051.008-.017-.048a23.728,23.728,0,0,1-1.287-6.028,21.622,21.622,0,0,1-.028-3.01c.04-.5.068-.991.144-1.478.035-.244.058-.489.1-.73l.135-.721a22.471,22.471,0,0,1,1.808-5.408l.624-1.238.154-.307c.055-.1.118-.2.176-.294l.354-.583.352-.578.175-.287.2-.272.779-1.079a6.178,6.178,0,0,1,.411-.512l.422-.5.418-.494c.142-.161.3-.308.446-.462.3-.3.592-.61.9-.9l.937-.823a25.257,25.257,0,0,1,3.925-2.681,25.581,25.581,0,0,1,4.008-1.735,20.258,20.258,0,0,1,3.839-.9l.037-.005.006.038c.776,4.973,1.356,8.695,1.711,10.973l.007.044-.036-.026a3.865,3.865,0,0,0-2.139-.755,4.175,4.175,0,0,0-.563.016c-.123.015-.184.019-.184.019s.06-.011.183-.029a3.835,3.835,0,0,1,2.724.719l-.029.018c-.364-2.277-.958-6-1.752-10.967l.043.033a20.261,20.261,0,0,0-3.82.911,25.544,25.544,0,0,0-3.989,1.736,25.144,25.144,0,0,0-3.9,2.675l-.932.821c-.3.287-.591.595-.891.895-.146.153-.3.3-.443.46l-.417.492-.419.5a6.54,6.54,0,0,0-.409.511L230.179,166l-.2.271-.174.286-.35.577-.352.58c-.058.1-.12.193-.175.293l-.154.306-.62,1.233a22.423,22.423,0,0,0-1.795,5.382l-.133.717c-.044.24-.067.484-.1.726-.075.485-.1.977-.143,1.47a21.709,21.709,0,0,0,.03,2.994,23.619,23.619,0,0,0,1.282,6l-.067-.04,3.543-.56,6.489-1.023.147-.024-.088.119a3.819,3.819,0,0,0-.74,2.229,3.78,3.78,0,0,0,.177,1.163,4.124,4.124,0,0,0,.212.547,4.234,4.234,0,0,0,.3.5,3.827,3.827,0,0,0,1.806,1.4,4.013,4.013,0,0,0,1.117.231,4.166,4.166,0,0,0,1.126-.11,3.8,3.8,0,0,0,1.894-1.133,4.023,4.023,0,0,0,.616-.911,3.947,3.947,0,0,0,.327-1.037,3.734,3.734,0,0,0,.02-1.076,3.524,3.524,0,0,0-.271-1.028,3.808,3.808,0,0,0-1.3-1.605l-.115-.08.136-.022,7.85-1.234-.043.058c-.635-4.049-1.214-7.738-1.72-10.966l.075.016a3.912,3.912,0,0,1-1.293,1.166,3.8,3.8,0,0,1-1.58.47,3.9,3.9,0,0,1-4.12-3.129,3.708,3.708,0,0,1-.056-1.148,4.028,4.028,0,0,1,.087-.529,4.413,4.413,0,0,1,.154-.484,3.955,3.955,0,0,1,.969-1.438,3.842,3.842,0,0,1,1.06-.7l.223-.1c.071-.025.139-.044.2-.064a2.132,2.132,0,0,1,.316-.084C244.919,166.168,245.008,166.153,245.008,166.153Z" fill="#263238"/>
        </g>
      </g>
    </g>
    <g id="Grupo_129108" data-name="Grupo 129108">
      <path id="Trazado_168933" data-name="Trazado 168933" d="M250.194,219.411h-9.4s-.474-3.96-.947-6.969-7.2-9.148-9.137-11.708a23.686,23.686,0,0,1-3.543-8.966h8.882l-.068.069a3.884,3.884,0,1,0,5.536-.03l-.043-.039,8.644.063v10.35a3.17,3.17,0,0,1,2.752-1.174,3.924,3.924,0,0,1,3.729,2.829c.314,1.4.051,4.032-2.57,4.741a3.634,3.634,0,0,1-3.94-1.139l.029,12.036" fill="#f5f5f5"/>
      <g id="Grupo_129091" data-name="Grupo 129091">
        <g id="Grupo_129060" data-name="Grupo 129060">
          <path id="Trazado_168934" data-name="Trazado 168934" d="M250.113,218.884c.034,0,.061.132.062.295s-.027.295-.061.295-.062-.132-.062-.295S250.079,218.884,250.113,218.884Z" fill="#263238"/>
        </g>
        <g id="Grupo_129061" data-name="Grupo 129061">
          <path id="Trazado_168935" data-name="Trazado 168935" d="M250.107,216.472a2.987,2.987,0,0,1,0,1.206,2.987,2.987,0,0,1,0-1.206Z" fill="#263238"/>
        </g>
        <g id="Grupo_129062" data-name="Grupo 129062">
          <path id="Trazado_168936" data-name="Trazado 168936" d="M250.1,214.059a2.987,2.987,0,0,1,0,1.206,2.987,2.987,0,0,1,0-1.206Z" fill="#263238"/>
        </g>
        <g id="Grupo_129063" data-name="Grupo 129063">
          <path id="Trazado_168937" data-name="Trazado 168937" d="M250.1,211.647a2.987,2.987,0,0,1,0,1.206,2.987,2.987,0,0,1,0-1.206Z" fill="#263238"/>
        </g>
        <g id="Grupo_129064" data-name="Grupo 129064">
          <path id="Trazado_168938" data-name="Trazado 168938" d="M250.089,209.234a2.987,2.987,0,0,1,0,1.206,1.525,1.525,0,0,1-.062-.6A1.559,1.559,0,0,1,250.089,209.234Z" fill="#263238"/>
        </g>
        <g id="Grupo_129065" data-name="Grupo 129065">
          <path id="Trazado_168939" data-name="Trazado 168939" d="M250.492,207.863c-.011.013-.072-.018-.158-.085a1.748,1.748,0,0,1-.143-.126c-.025-.025-.051-.053-.077-.082l-.04-.046-.019-.024-.01-.013-.005-.006,0,0v0h0l.112-.036a1.505,1.505,0,0,1-.06.59,1.472,1.472,0,0,1-.063-.59l.111-.035h0l0,0,0,0,.009.012.018.023.035.044.069.083.12.141C250.463,207.8,250.5,207.85,250.492,207.863Z" fill="#263238"/>
        </g>
        <g id="Grupo_129066" data-name="Grupo 129066">
          <path id="Trazado_168940" data-name="Trazado 168940" d="M252.584,208.729A1.035,1.035,0,0,1,252,208.7a1.024,1.024,0,0,1-.534-.236,2.279,2.279,0,0,1,.562.117A2.2,2.2,0,0,1,252.584,208.729Z" fill="#263238"/>
        </g>
        <g id="Grupo_129067" data-name="Grupo 129067">
          <path id="Trazado_168941" data-name="Trazado 168941" d="M254.815,208.273a1.044,1.044,0,0,1-.51.283,1.162,1.162,0,0,1-.576.092c-.008-.039.24-.108.536-.208A2.175,2.175,0,0,1,254.815,208.273Z" fill="#263238"/>
        </g>
        <g id="Grupo_129068" data-name="Grupo 129068">
          <path id="Trazado_168942" data-name="Trazado 168942" d="M256.349,206.615a1.037,1.037,0,0,1-.218.542c-.175.274-.38.446-.4.422a2.4,2.4,0,0,1,.3-.489C256.2,206.828,256.316,206.6,256.349,206.615Z" fill="#263238"/>
        </g>
        <g id="Grupo_129069" data-name="Grupo 129069">
          <path id="Trazado_168943" data-name="Trazado 168943" d="M256.678,204.358a1.8,1.8,0,0,1-.024,1.149,5.909,5.909,0,0,1,.024-1.149Z" fill="#263238"/>
        </g>
        <g id="Grupo_129070" data-name="Grupo 129070">
          <path id="Trazado_168944" data-name="Trazado 168944" d="M255.751,202.3c.023-.023.227.146.41.415a1.03,1.03,0,0,1,.234.534c-.033.014-.158-.208-.335-.465S255.725,202.324,255.751,202.3Z" fill="#263238"/>
        </g>
        <g id="Grupo_129071" data-name="Grupo 129071">
          <path id="Trazado_168945" data-name="Trazado 168945" d="M253.795,201.139a1.062,1.062,0,0,1,.569.127,1.072,1.072,0,0,1,.491.314,2.034,2.034,0,0,1-.538-.2A2.087,2.087,0,0,1,253.795,201.139Z" fill="#263238"/>
        </g>
        <g id="Grupo_129072" data-name="Grupo 129072">
          <path id="Trazado_168946" data-name="Trazado 168946" d="M251.522,201.2a1.032,1.032,0,0,1,.549-.2,1.058,1.058,0,0,1,.584.008,2.128,2.128,0,0,1-.564.113A2.272,2.272,0,0,1,251.522,201.2Z" fill="#263238"/>
        </g>
        <g id="Grupo_129073" data-name="Grupo 129073">
          <path id="Trazado_168947" data-name="Trazado 168947" d="M250.114,201.592a1.459,1.459,0,0,1,.062.589l-.113-.034h0l0,0,0,0,.005-.007.009-.013.019-.025.039-.047c.026-.03.051-.058.077-.083a1.494,1.494,0,0,1,.143-.127c.087-.066.149-.1.159-.083s-.03.066-.1.146l-.119.14-.068.084-.035.045-.017.023-.008.011,0,.006,0,0h0l-.113-.034A1.469,1.469,0,0,1,250.114,201.592Z" fill="#263238"/>
        </g>
        <g id="Grupo_129074" data-name="Grupo 129074">
          <path id="Trazado_168948" data-name="Trazado 168948" d="M250.114,198.971a3.491,3.491,0,0,1,0,1.31,3.547,3.547,0,0,1,0-1.31Z" fill="#263238"/>
        </g>
        <g id="Grupo_129075" data-name="Grupo 129075">
          <path id="Trazado_168949" data-name="Trazado 168949" d="M250.114,196.351a3.491,3.491,0,0,1,0,1.31,3.547,3.547,0,0,1,0-1.31Z" fill="#263238"/>
        </g>
        <g id="Grupo_129076" data-name="Grupo 129076">
          <path id="Trazado_168950" data-name="Trazado 168950" d="M250.114,193.731a3.491,3.491,0,0,1,0,1.31,3.547,3.547,0,0,1,0-1.31Z" fill="#263238"/>
        </g>
        <g id="Grupo_129077" data-name="Grupo 129077">
          <path id="Trazado_168951" data-name="Trazado 168951" d="M249.525,191.827a1.452,1.452,0,0,1,.59-.057c.121.123.033.034.061.061h0v.117l0,.111c0,.07-.008.134-.013.187-.011.107-.027.173-.044.173s-.032-.066-.043-.173c-.006-.053-.01-.117-.013-.187l0-.111v-.117h0c.027.028-.061-.061.061.062A1.471,1.471,0,0,1,249.525,191.827Z" fill="#263238"/>
        </g>
        <g id="Grupo_129078" data-name="Grupo 129078">
          <path id="Trazado_168952" data-name="Trazado 168952" d="M247.392,191.811a2.359,2.359,0,0,1,1.066.008,1.207,1.207,0,0,1-.534.058A1.2,1.2,0,0,1,247.392,191.811Z" fill="#263238"/>
        </g>
        <g id="Grupo_129079" data-name="Grupo 129079">
          <path id="Trazado_168953" data-name="Trazado 168953" d="M245.259,191.8a2.322,2.322,0,0,1,1.066.008,2.36,2.36,0,0,1-1.066-.008Z" fill="#263238"/>
        </g>
        <g id="Grupo_129080" data-name="Grupo 129080">
          <path id="Trazado_168954" data-name="Trazado 168954" d="M243.126,191.78a2.36,2.36,0,0,1,1.066.008,1.2,1.2,0,0,1-.533.058A1.218,1.218,0,0,1,243.126,191.78Z" fill="#263238"/>
        </g>
        <g id="Grupo_129081" data-name="Grupo 129081">
          <path id="Trazado_168955" data-name="Trazado 168955" d="M241.862,192.208c-.014.01-.069-.03-.147-.1-.039-.037-.083-.081-.131-.131l-.073-.08-.039-.042-.021-.02-.011-.009-.006-.005,0,0h0l.041-.107a1.451,1.451,0,0,1,.589.066,1.5,1.5,0,0,1-.59.057c-.009.023.079-.2.042-.107h0l0,0,.006.005.012.01.023.021.038.046.071.087c.045.056.084.108.115.153C241.844,192.138,241.875,192.2,241.862,192.208Z" fill="#263238"/>
        </g>
        <g id="Grupo_129082" data-name="Grupo 129082">
          <path id="Trazado_168956" data-name="Trazado 168956" d="M242.639,194.319a8.64,8.64,0,0,1-.229-1.114,1.6,1.6,0,0,1,.229,1.114Z" fill="#263238"/>
        </g>
        <g id="Grupo_129083" data-name="Grupo 129083">
          <path id="Trazado_168957" data-name="Trazado 168957" d="M242.1,196.5a2.031,2.031,0,0,1,.2-.533,2.084,2.084,0,0,1,.234-.519,1.044,1.044,0,0,1-.121.565C242.288,196.315,242.125,196.522,242.1,196.5Z" fill="#263238"/>
        </g>
        <g id="Grupo_129084" data-name="Grupo 129084">
          <path id="Trazado_168958" data-name="Trazado 168958" d="M240.433,198.019c-.014-.032.205-.16.461-.333s.459-.327.483-.3-.147.224-.414.4A1.052,1.052,0,0,1,240.433,198.019Z" fill="#263238"/>
        </g>
        <g id="Grupo_129085" data-name="Grupo 129085">
          <path id="Trazado_168959" data-name="Trazado 168959" d="M238.207,198.352a1.4,1.4,0,0,1,.569-.021,1.362,1.362,0,0,1,.569.02,1.373,1.373,0,0,1-.569.1A1.35,1.35,0,0,1,238.207,198.352Z" fill="#263238"/>
        </g>
        <g id="Grupo_129086" data-name="Grupo 129086">
          <path id="Trazado_168960" data-name="Trazado 168960" d="M236.171,197.391c.024-.025.226.129.484.3s.477.3.462.332a1.024,1.024,0,0,1-.53-.23C236.319,197.615,236.148,197.415,236.171,197.391Z" fill="#263238"/>
        </g>
        <g id="Grupo_129087" data-name="Grupo 129087">
          <path id="Trazado_168961" data-name="Trazado 168961" d="M235.013,195.462a2.069,2.069,0,0,1,.235.518,2.114,2.114,0,0,1,.2.533c-.028.018-.191-.189-.314-.486A1.038,1.038,0,0,1,235.013,195.462Z" fill="#263238"/>
        </g>
        <g id="Grupo_129088" data-name="Grupo 129088">
          <path id="Trazado_168962" data-name="Trazado 168962" d="M235.123,193.213a2.073,2.073,0,0,1-.091.562,2.044,2.044,0,0,1-.13.554,1.616,1.616,0,0,1,.221-1.116Z" fill="#263238"/>
        </g>
        <g id="Grupo_129089" data-name="Grupo 129089">
          <path id="Trazado_168963" data-name="Trazado 168963" d="M235.455,191.768a1.469,1.469,0,0,1,.589-.061c.02.046-.043-.1.044.1h0l0,0,0,.005-.011.011-.021.021c-.014.014-.028.027-.04.041l-.073.081c-.047.051-.091.1-.129.133-.077.073-.132.114-.145.1s.016-.07.077-.159c.031-.045.069-.1.113-.154l.07-.088a.549.549,0,0,1,.04-.044l.021-.021.01-.011.006-.006,0,0,0,0h0a.992.992,0,1,1,.043.1A1.459,1.459,0,0,1,235.455,191.768Z" fill="#263238"/>
        </g>
        <g id="Grupo_129090" data-name="Grupo 129090">
          <path id="Trazado_168964" data-name="Trazado 168964" d="M233.411,191.768c0-.034.132-.061.294-.061s.295.027.295.061-.132.062-.295.062S233.411,191.8,233.411,191.768Z" fill="#263238"/>
        </g>
      </g>
      <g id="Grupo_129092" data-name="Grupo 129092">
        <path id="Trazado_168965" data-name="Trazado 168965" d="M250.225,219.411s-.058.005-.169.007l-.494.007-1.889.013-6.852.022h-.043l-.006-.045c-.24-1.93-.523-4.12-.882-6.478a6.941,6.941,0,0,0-1.5-3.309,37.9,37.9,0,0,0-2.467-3.035c-1.158-1.31-2.333-2.546-3.443-3.754-.554-.605-1.1-1.2-1.59-1.814a8.729,8.729,0,0,1-.669-.958c-.2-.327-.387-.658-.562-.987a25.071,25.071,0,0,1-1.626-3.863,25.632,25.632,0,0,1-.878-3.441l-.009-.049h.049l4.438.019,1.189.011.307,0c.069,0,.1.006.1.006s-.036,0-.1.006l-.307.006-1.189.01-4.438.019.04-.048a25.976,25.976,0,0,0,.891,3.425,25.2,25.2,0,0,0,1.632,3.841c.175.327.359.656.561.98a8.555,8.555,0,0,0,.662.945c.492.608,1.034,1.2,1.588,1.806,1.11,1.205,2.286,2.441,3.446,3.753a37.659,37.659,0,0,1,2.473,3.047,12.915,12.915,0,0,1,.995,1.608,5.455,5.455,0,0,1,.351.859,6.254,6.254,0,0,1,.172.894c.355,2.362.631,4.549.865,6.487l-.049-.044,6.852.021,1.889.013.494.007C250.167,219.406,250.225,219.411,250.225,219.411Z" fill="#263238"/>
      </g>
      <g id="Grupo_129107" data-name="Grupo 129107">
        <g id="Grupo_129093" data-name="Grupo 129093">
          <path id="Trazado_168966" data-name="Trazado 168966" d="M249.6,219.411c0-.034.132-.062.294-.062s.295.028.295.062-.132.061-.295.061S249.6,219.445,249.6,219.411Z" fill="#263238"/>
        </g>
        <g id="Grupo_129094" data-name="Grupo 129094">
          <path id="Trazado_168967" data-name="Trazado 168967" d="M247.255,219.411a2.815,2.815,0,0,1,1.175,0,2.859,2.859,0,0,1-1.175,0Z" fill="#263238"/>
        </g>
        <g id="Grupo_129095" data-name="Grupo 129095">
          <path id="Trazado_168968" data-name="Trazado 168968" d="M244.9,219.411a2.815,2.815,0,0,1,1.175,0,2.859,2.859,0,0,1-1.175,0Z" fill="#263238"/>
        </g>
        <g id="Grupo_129096" data-name="Grupo 129096">
          <path id="Trazado_168969" data-name="Trazado 168969" d="M242.555,219.411a2.815,2.815,0,0,1,1.175,0,2.859,2.859,0,0,1-1.175,0Z" fill="#263238"/>
        </g>
        <g id="Grupo_129097" data-name="Grupo 129097">
          <path id="Trazado_168970" data-name="Trazado 168970" d="M240.719,218.826c.017,0,.04.062.064.166.012.053.024.116.036.186l.017.109.008.058,0,.03,0,.015v.014h0l-.061-.056h0a1.459,1.459,0,0,1,.589.062,1.469,1.469,0,0,1-.589.061h0c.008-.123-.08-.027-.062-.056h0V219.4l0-.014,0-.03-.006-.058-.01-.11c0-.07-.008-.133-.009-.187C240.7,218.9,240.7,218.828,240.719,218.826Z" fill="#263238"/>
        </g>
        <g id="Grupo_129098" data-name="Grupo 129098">
          <path id="Trazado_168971" data-name="Trazado 168971" d="M240.408,216.4a1.582,1.582,0,0,1,.14.6,1.562,1.562,0,0,1,.018.615,1.6,1.6,0,0,1-.14-.6A1.562,1.562,0,0,1,240.408,216.4Z" fill="#263238"/>
        </g>
        <g id="Grupo_129099" data-name="Grupo 129099">
          <path id="Trazado_168972" data-name="Trazado 168972" d="M240.073,213.973a1.588,1.588,0,0,1,.146.6,1.556,1.556,0,0,1,.025.615,3.093,3.093,0,0,1-.171-1.212Z" fill="#263238"/>
        </g>
        <g id="Grupo_129100" data-name="Grupo 129100">
          <path id="Trazado_168973" data-name="Trazado 168973" d="M239.581,211.583a1.187,1.187,0,0,1,.261.561,1.291,1.291,0,0,1,.05.618,2.072,2.072,0,0,1-.169-.586A2.416,2.416,0,0,1,239.581,211.583Z" fill="#263238"/>
        </g>
        <g id="Grupo_129101" data-name="Grupo 129101">
          <path id="Trazado_168974" data-name="Trazado 168974" d="M238.331,209.484c.027-.02.2.192.391.474a1.567,1.567,0,0,1,.29.543c-.029.017-.2-.2-.392-.475A1.571,1.571,0,0,1,238.331,209.484Z" fill="#263238"/>
        </g>
        <g id="Grupo_129102" data-name="Grupo 129102">
          <path id="Trazado_168975" data-name="Trazado 168975" d="M236.813,207.562c.026-.022.221.172.436.434a1.567,1.567,0,0,1,.341.512c-.026.021-.222-.173-.436-.434A1.606,1.606,0,0,1,236.813,207.562Z" fill="#263238"/>
        </g>
        <g id="Grupo_129103" data-name="Grupo 129103">
          <path id="Trazado_168976" data-name="Trazado 168976" d="M235.2,205.725c.025-.023.228.163.454.415s.388.474.362.5-.228-.164-.454-.416A1.586,1.586,0,0,1,235.2,205.725Z" fill="#263238"/>
        </g>
        <g id="Grupo_129104" data-name="Grupo 129104">
          <path id="Trazado_168977" data-name="Trazado 168977" d="M233.537,203.924c.024-.023.231.16.461.407s.4.468.371.491-.231-.159-.461-.407S233.512,203.947,233.537,203.924Z" fill="#263238"/>
        </g>
        <g id="Grupo_129105" data-name="Grupo 129105">
          <path id="Trazado_168978" data-name="Trazado 168978" d="M231.878,202.122c.025-.022.231.162.458.411a1.588,1.588,0,0,1,.368.494c-.025.023-.23-.161-.458-.411S231.853,202.145,231.878,202.122Z" fill="#263238"/>
        </g>
        <g id="Grupo_129106" data-name="Grupo 129106">
          <path id="Trazado_168979" data-name="Trazado 168979" d="M230.706,200.734c.027-.02.131.066.231.192s.162.247.136.269-.13-.065-.232-.193S230.679,200.754,230.706,200.734Z" fill="#263238"/>
        </g>
      </g>
    </g>
  </g>
</svg>
