<svg xmlns="http://www.w3.org/2000/svg" width="116.94" height="116.94" viewBox="0 0 116.94 116.94">
  <g id="Grupo_128999" data-name="Grupo 128999" transform="translate(-52.576 -44.47)">
    <g id="Grupo_128998" data-name="Grupo 128998">
      <g id="Grupo_128997" data-name="Grupo 128997">
        <path id="Trazado_168899" data-name="Trazado 168899" d="M86.187,61.422A48.1,48.1,0,0,1,97.946,56.36L100.4,44.746l19.636-.276,2.786,11.538a48.094,48.094,0,0,1,11.9,4.728l9.947-6.47,14.08,13.69-6.186,10.123a48.117,48.117,0,0,1,5.062,11.761L169.239,92.3l.277,19.635-11.538,2.787a48.136,48.136,0,0,1-4.729,11.9l6.47,9.946-13.688,14.081-10.125-6.186a48.052,48.052,0,0,1-11.76,5.061l-2.458,11.613-19.637.277-2.786-11.539a48.188,48.188,0,0,1-11.9-4.728l-9.946,6.47L63.341,137.924,69.527,127.8a48.069,48.069,0,0,1-5.061-11.76l-11.613-2.459-.277-19.636,11.539-2.787a48.142,48.142,0,0,1,4.728-11.9l-6.47-9.947,13.688-14.08,10.126,6.187Z" fill="#ff9500" fill-rule="evenodd"/>
      </g>
    </g>
  </g>
</svg>
