<svg xmlns="http://www.w3.org/2000/svg" width="439.981" height="471.405" viewBox="0 0 439.981 471.405">
  <g id="Grupo_129268" data-name="Grupo 129268" transform="translate(-895.02 -81)">
    <circle id="Elipse_4896" data-name="Elipse 4896" cx="3.5" cy="3.5" r="3.5" transform="translate(1191 81)" fill="#ff9500"/>
    <circle id="Elipse_4897" data-name="Elipse 4897" cx="3.5" cy="3.5" r="3.5" transform="translate(1191 127)" fill="#ff9500"/>
    <circle id="Elipse_4899" data-name="Elipse 4899" cx="3.5" cy="3.5" r="3.5" transform="translate(1295 127)" fill="#ff9500"/>
    <circle id="Elipse_4898" data-name="Elipse 4898" cx="3.5" cy="3.5" r="3.5" transform="translate(1243 104)" fill="#ff9500"/>
    <g id="Grupo_81107" data-name="Grupo 81107" transform="translate(-6.007 -33.318)">
      <g id="Grupo_83445" data-name="Grupo 83445" transform="translate(921.007 127.318)">
        <circle id="Elipse_4759" data-name="Elipse 4759" cx="194.234" cy="194.234" r="194.234" transform="translate(0 0)" fill="#0ca4ca"/>
      </g>
    </g>
    <g id="Grupo_128945" data-name="Grupo 128945" transform="translate(862.515 70.663)">
      <path id="Trazado_168882" data-name="Trazado 168882" d="M103,189.128a16.449,16.449,0,0,1,4.233,1.14l3.128-2.6,5.331,4.1-1.705,3.69a16.42,16.42,0,0,1,2.189,3.8l4.046.377.87,6.668-3.812,1.4a16.488,16.488,0,0,1-1.141,4.234l2.6,3.128-4.1,5.33-3.69-1.7a16.5,16.5,0,0,1-3.8,2.189l-.377,4.045-6.668.871-1.4-3.813a16.451,16.451,0,0,1-4.233-1.141l-3.128,2.6-5.33-4.1,1.7-3.69a16.5,16.5,0,0,1-2.189-3.8l-4.045-.377-.871-6.668,3.813-1.4a16.48,16.48,0,0,1,1.14-4.233l-2.6-3.129,4.1-5.33,3.69,1.7a16.431,16.431,0,0,1,3.8-2.188l.378-4.046,6.667-.87,1.4,3.813Zm-2.781,9.237a7.213,7.213,0,1,0,8.087,6.218A7.213,7.213,0,0,0,100.219,198.365Z" fill="#e0e0e0"/>
    </g>
    <g id="Grupo_128948" data-name="Grupo 128948" transform="translate(862.515 70.663)">
      <g id="Grupo_128947" data-name="Grupo 128947">
        <path id="Trazado_168883" data-name="Trazado 168883" d="M100.219,198.365A5.443,5.443,0,0,1,102,198.28a7.188,7.188,0,0,1,4.373,2.064,7.279,7.279,0,0,1,1.793,2.883,7.394,7.394,0,0,1,.205,3.891,7.394,7.394,0,0,1-2.1,3.754,7.359,7.359,0,0,1-8.693,1.135,7.4,7.4,0,0,1-3-3.088,7.389,7.389,0,0,1-.8-3.814,7.264,7.264,0,0,1,.993-3.246,7.178,7.178,0,0,1,3.7-3.117,5.438,5.438,0,0,1,1.747-.377c.01.05-.636.1-1.688.526a7.19,7.19,0,0,0-3.5,3.114,7.052,7.052,0,0,0-.107,6.739,7.053,7.053,0,0,0,2.854,2.909,6.99,6.99,0,0,0,8.217-1.074,7.046,7.046,0,0,0,2.01-3.543,7.047,7.047,0,0,0-1.833-6.486,7.2,7.2,0,0,0-4.185-2.11C100.858,198.3,100.222,198.416,100.219,198.365Z" fill="#e0e0e0"/>
      </g>
    </g>
    <g id="Grupo_128951" data-name="Grupo 128951" transform="translate(862.515 70.663)">
      <g id="Grupo_128950" data-name="Grupo 128950">
        <path id="Trazado_168884" data-name="Trazado 168884" d="M103,189.127a1.641,1.641,0,0,1-.1-.232l-.281-.716-1.083-2.842.07.043-6.662.909.091-.094c-.109,1.226-.231,2.589-.361,4.047l-.006.073-.069.028a16.432,16.432,0,0,0-3.76,2.184l-.065.05-.075-.034L87,190.849l.178-.044L83.1,196.144l0-.2,2.6,3.123.066.08-.04.1a16.379,16.379,0,0,0-1.121,4.189l-.014.107-.1.038-3.81,1.409.119-.2.879,6.666-.173-.166,4.046.373.118.011.045.11a16.4,16.4,0,0,0,2.165,3.75l.075.1-.051.11c-.534,1.156-1.115,2.417-1.7,3.691l-.061-.246,5.332,4.1-.256.005,3.127-2.6.1-.08.115.048a16.282,16.282,0,0,0,4.176,1.125h0l.125.017.042.117,1.4,3.812-.22-.133,6.667-.869-.177.184q.192-2.043.379-4.045l.011-.123.114-.046a16.285,16.285,0,0,0,3.753-2.16l.1-.074.11.051,3.688,1.707-.238.059,4.1-5.326,0,.237L116,212.059l-.071-.087.043-.1a16.313,16.313,0,0,0,1.134-4.184l.015-.108.1-.037,3.814-1.4-.11.184c-.3-2.346-.586-4.561-.857-6.67l.142.138-4.044-.387-.09-.009-.034-.083a16.361,16.361,0,0,0-2.159-3.771l-.05-.066.034-.074,1.717-3.684.036.148-5.312-4.123.116,0-3.145,2.575-.032.026-.037-.016a17.139,17.139,0,0,0-3.141-.992l-.8-.155a1.539,1.539,0,0,1-.265-.055,2.179,2.179,0,0,1,.271.021c.179.022.449.056.808.122a16.012,16.012,0,0,1,3.18.936l-.068.011L110.3,187.6l.056-.047.06.045,5.348,4.076.078.059-.041.089c-.524,1.143-1.078,2.353-1.692,3.7l-.016-.14a16.66,16.66,0,0,1,2.219,3.824l-.124-.091,4.046.367.126.012.017.126c.279,2.107.573,4.32.884,6.665l.018.136-.13.048-3.809,1.409.115-.144a16.667,16.667,0,0,1-1.147,4.281l-.028-.19q1.275,1.536,2.6,3.125l.1.117-.092.121-4.094,5.334-.1.125-.143-.066-3.691-1.7.206-.023a16.648,16.648,0,0,1-3.843,2.218l.125-.169q-.186,2-.375,4.046l-.015.162-.163.022-6.667.872-.164.022-.056-.155-1.4-3.812.167.133h0a16.7,16.7,0,0,1-4.281-1.154l.211-.032-3.129,2.6-.126.1-.13-.1-5.329-4.1-.128-.1.068-.147,1.707-3.689.023.206a16.726,16.726,0,0,1-2.212-3.845l.163.121-4.045-.381-.153-.014-.02-.153c-.3-2.315-.592-4.574-.862-6.669l-.019-.146.138-.05,3.814-1.4-.115.145a16.667,16.667,0,0,1,1.16-4.276l.026.174-2.589-3.133-.083-.1.079-.1,4.112-5.321.072-.093.107.049,3.685,1.715-.14.016a16.638,16.638,0,0,1,3.834-2.194l-.074.1c.141-1.457.274-2.818.393-4.043l.008-.084.083-.011,6.672-.832.054-.007.017.05,1.008,2.84c.108.314.192.556.254.737A1.935,1.935,0,0,1,103,189.127Z" fill="#e0e0e0"/>
      </g>
    </g>
    <g id="Grupo_128954" data-name="Grupo 128954" transform="translate(862.515 70.663)">
      <path id="Trazado_168885" data-name="Trazado 168885" d="M343.8,244.946a8.38,8.38,0,0,1,1.246-1.855l-.738-1.936,2.855-1.9,1.5,1.429a8.357,8.357,0,0,1,2.192-.432l.847-1.89,3.361.676.05,2.07a8.4,8.4,0,0,1,1.855,1.247l1.936-.738,1.9,2.854-1.429,1.5a8.438,8.438,0,0,1,.432,2.192l1.889.848-.676,3.36-2.07.05a8.429,8.429,0,0,1-1.246,1.855l.738,1.936-2.855,1.9-1.5-1.429a8.39,8.39,0,0,1-2.192.432l-.847,1.89-3.361-.677-.05-2.07a8.358,8.358,0,0,1-1.855-1.246l-1.936.738-1.9-2.854,1.429-1.5a8.39,8.39,0,0,1-.431-2.192l-1.89-.847.676-3.36,2.07-.05Zm4,2.86a3.677,3.677,0,1,0,4.33-2.879A3.677,3.677,0,0,0,347.8,247.806Z" fill="#f5f5f5"/>
    </g>
    <g id="Grupo_128957" data-name="Grupo 128957" transform="translate(862.515 70.663)">
      <g id="Grupo_128956" data-name="Grupo 128956">
        <path id="Trazado_168886" data-name="Trazado 168886" d="M347.8,247.806a2.78,2.78,0,0,1,.253-.875,3.657,3.657,0,0,1,1.715-1.771,3.715,3.715,0,0,1,1.685-.391,3.765,3.765,0,0,1,1.911.541,3.759,3.759,0,0,1,1.466,1.631,3.751,3.751,0,0,1-.881,4.381,3.757,3.757,0,0,1-1.983.938,3.768,3.768,0,0,1-1.972-.24,3.708,3.708,0,0,1-1.4-1.013,3.654,3.654,0,0,1-.9-2.3,2.764,2.764,0,0,1,.105-.9c.026,0-.057.323-.023.9a3.666,3.666,0,0,0,.926,2.2,3.6,3.6,0,0,0,3.234,1.159,3.587,3.587,0,0,0,1.873-.9,3.566,3.566,0,0,0,.833-4.142,3.6,3.6,0,0,0-1.38-1.552,3.591,3.591,0,0,0-3.43-.182,3.673,3.673,0,0,0-1.706,1.672C347.87,247.486,347.823,247.813,347.8,247.806Z" fill="#f5f5f5"/>
      </g>
    </g>
    <g id="Grupo_128960" data-name="Grupo 128960" transform="translate(862.515 70.663)">
      <g id="Grupo_128959" data-name="Grupo 128959">
        <path id="Trazado_168887" data-name="Trazado 168887" d="M343.8,244.946a.822.822,0,0,1-.129.01l-.391.018-1.55.055.033-.027c-.168.862-.39,1.995-.657,3.365l-.03-.06,1.893.84.034.015,0,.037a8.363,8.363,0,0,0,.436,2.174l.013.04-.028.03-1.425,1.5.008-.093c.6.9,1.236,1.85,1.9,2.85l-.1-.032,1.934-.741.05-.019.039.035a8.32,8.32,0,0,0,1.837,1.23l.05.024v.055c.017.642.035,1.35.053,2.07l-.075-.09,3.361.673-.109.056c.264-.589.553-1.236.845-1.891l.025-.056.061,0a8.331,8.331,0,0,0,2.165-.429l.059-.02.045.043,1.5,1.428-.129-.011,2.854-1.9-.04.124c-.233-.611-.485-1.271-.738-1.936l-.023-.059.042-.048a8.313,8.313,0,0,0,1.23-1.83v0l.029-.057h.063l2.07-.05-.1.084q.344-1.7.677-3.36l.06.116-1.89-.848-.057-.026,0-.062a8.312,8.312,0,0,0-.425-2.166l-.02-.059.043-.044,1.43-1.5-.011.124-1.895-2.856.115.037-1.937.736-.053.02-.043-.038a8.341,8.341,0,0,0-1.832-1.235l-.05-.025v-.055c-.016-.71-.032-1.4-.047-2.07l.07.084-3.359-.683.09-.046-.852,1.887-.019.043-.045,0a8.37,8.37,0,0,0-2.175.422l-.04.013-.03-.028-1.495-1.434.077.007-2.862,1.885.018-.056c.289.775.527,1.411.725,1.941l.007.019-.013.015a8.68,8.68,0,0,0-.995,1.353l-.207.361a.9.9,0,0,1-.07.119,1.071,1.071,0,0,1,.054-.128c.04-.082.1-.207.192-.37a8.2,8.2,0,0,1,.975-1.38l-.006.035-.751-1.932-.013-.035.031-.021,2.846-1.91.041-.028.037.034,1.5,1.424-.069-.015a8.469,8.469,0,0,1,2.21-.442l-.065.045c.268-.6.546-1.227.843-1.892l.026-.059.063.013,3.362.669.068.014,0,.07c.018.672.035,1.36.054,2.07l-.051-.08a8.5,8.5,0,0,1,1.877,1.258l-.1-.018,1.935-.74.073-.028.043.065,1.9,2.852.045.067-.056.058q-.7.741-1.427,1.5l.022-.1a8.507,8.507,0,0,1,.439,2.219l-.061-.088,1.89.846.076.034-.016.082q-.333,1.656-.675,3.361l-.017.082-.084,0-2.07.05.092-.058v0a8.554,8.554,0,0,1-1.261,1.876l.019-.108.738,1.937.029.078-.069.046-2.855,1.9-.069.046-.06-.057-1.5-1.43.1.022a8.542,8.542,0,0,1-2.219.436l.085-.059-.849,1.889-.032.071-.076-.015-3.36-.68-.074-.015v-.075c-.017-.721-.033-1.429-.047-2.07l.05.079a8.509,8.509,0,0,1-1.872-1.263l.088.016-1.937.734-.062.024-.037-.055-1.891-2.859-.033-.05.041-.043,1.433-1.5-.015.07a8.5,8.5,0,0,1-.428-2.211l.036.053-1.886-.855-.039-.018.008-.041c.283-1.367.518-2.5.7-3.357l.005-.027h.027l1.536-.019.4,0A.935.935,0,0,1,343.8,244.946Z" fill="#f5f5f5"/>
      </g>
    </g>
    <g id="Grupo_128963" data-name="Grupo 128963" transform="matrix(0.545, 0.839, -0.839, 0.545, 1075.893, -112.856)">
      <path id="Trazado_168888" data-name="Trazado 168888" d="M337.526,64.253a14.737,14.737,0,0,1,3.593-1.562l.74-3.556,6.009-.106.865,3.528a14.717,14.717,0,0,1,3.646,1.435L355.416,62l4.324,4.175-1.883,3.1a14.722,14.722,0,0,1,1.562,3.594l3.556.74.106,6.009-3.528.865a14.771,14.771,0,0,1-1.435,3.646l1.991,3.037L355.934,91.5l-3.1-1.883a14.743,14.743,0,0,1-3.594,1.562l-.74,3.556-6.009.106-.865-3.529a14.728,14.728,0,0,1-3.646-1.434l-3.037,1.991-4.324-4.175,1.883-3.105a14.683,14.683,0,0,1-1.562-3.593l-3.556-.74-.106-6.009,3.529-.865a14.729,14.729,0,0,1,1.434-3.646l-1.991-3.037,4.175-4.324,3.105,1.883Zm3.2,8.005a6.447,6.447,0,1,0,9.116-.161A6.448,6.448,0,0,0,340.729,72.258Z" fill="#f5f5f5"/>
    </g>
    <g id="Grupo_128966" data-name="Grupo 128966" transform="matrix(0.545, 0.839, -0.839, 0.545, 1075.893, -112.856)">
      <g id="Grupo_128965" data-name="Grupo 128965">
        <path id="Trazado_168889" data-name="Trazado 168889" d="M340.729,72.258a4.878,4.878,0,0,1,1.2-1.054,6.421,6.421,0,0,1,4.206-.994,6.5,6.5,0,0,1,2.858,1.015,6.6,6.6,0,0,1,2.312,2.605,6.6,6.6,0,0,1,.623,3.794,6.58,6.58,0,0,1-5.442,5.638,6.6,6.6,0,0,1-3.815-.489,6.607,6.607,0,0,1-2.685-2.219,6.509,6.509,0,0,1-1.115-2.821,6.416,6.416,0,0,1,.847-4.239,4.853,4.853,0,0,1,1.01-1.236c.035.029-.389.423-.886,1.308a6.43,6.43,0,0,0-.712,4.127,6.3,6.3,0,0,0,3.68,4.769,6.29,6.29,0,0,0,3.615.443,6.247,6.247,0,0,0,5.144-5.329,6.307,6.307,0,0,0-.57-3.6,6.3,6.3,0,0,0-4.895-3.511,6.429,6.429,0,0,0-4.1.857C341.138,71.854,340.76,72.292,340.729,72.258Z" fill="#f5f5f5"/>
      </g>
    </g>
    <g id="Grupo_128969" data-name="Grupo 128969" transform="matrix(0.545, 0.839, -0.839, 0.545, 1075.893, -112.856)">
      <g id="Grupo_128968" data-name="Grupo 128968">
        <path id="Trazado_168890" data-name="Trazado 168890" d="M337.526,64.253a1.536,1.536,0,0,1-.2-.106l-.6-.344-2.34-1.382.073-.01c-1.063,1.113-2.46,2.577-4.149,4.348l.011-.116c.607.917,1.281,1.937,2,3.028l.037.055-.032.058a14.7,14.7,0,0,0-1.411,3.622l-.018.071-.071.017-3.526.876.1-.13c.038,1.891.077,3.9.119,6.008l-.115-.14,3.557.733.091.019.025.089a14.611,14.611,0,0,0,1.551,3.553l.05.082-.05.083-1.878,3.108-.026-.2,4.329,4.169-.214-.02,3.035-1.994.089-.058.093.051a14.628,14.628,0,0,0,3.6,1.415l.1.025.025.106c.272,1.105.568,2.31.868,3.527l-.179-.138,6.008-.108-.176.147c.233-1.124.485-2.336.739-3.557l.023-.109.108-.031a14.6,14.6,0,0,0,3.545-1.54l0,0,.1-.057.094.057,3.105,1.883-.228.029,4.175-4.322-.021.227-1.99-3.038-.06-.092.054-.1a14.6,14.6,0,0,0,1.419-3.6l.026-.105.105-.026,3.529-.862-.134.174q-.051-3.077-.1-6.009l.135.164-3.555-.745-.1-.021-.027-.1a14.613,14.613,0,0,0-1.539-3.556l-.051-.083.051-.083,1.887-3.1.025.19L355.318,62.1l.176.016L352.452,64.1l-.068.044-.069-.039a14.7,14.7,0,0,0-3.611-1.432l-.072-.018-.017-.071-.853-3.531.108.084-6.009.078.079-.066c-.3,1.419-.554,2.583-.763,3.552l-.007.036-.035.009a15.249,15.249,0,0,0-2.747,1.057l-.647.338a1.54,1.54,0,0,1-.215.11,1.762,1.762,0,0,1,.2-.137c.137-.084.346-.211.633-.365a14.25,14.25,0,0,1,2.744-1.117l-.042.045c.2-.972.431-2.139.717-3.561l.013-.065h.067l6.008-.132.087,0,.022.085c.27,1.09.557,2.244.876,3.525l-.089-.089a14.86,14.86,0,0,1,3.682,1.437l-.137.005,3.032-2,.094-.062.081.078,4.332,4.166.089.085-.064.1-1.877,3.108V69.2a14.848,14.848,0,0,1,1.584,3.631l-.125-.117,3.557.736.133.027,0,.136q.054,2.931.112,6.009l0,.14-.136.034-3.528.868.131-.131a14.889,14.889,0,0,1-1.449,3.691l-.007-.188,1.992,3.037.08.122-.1.1-4.173,4.325-.1.106-.126-.077-3.1-1.882h.191l0,0a14.938,14.938,0,0,1-3.636,1.579l.13-.14c-.254,1.221-.506,2.433-.74,3.556l-.03.144-.147,0-6.009.1-.145,0-.034-.14-.863-3.529.131.131a14.941,14.941,0,0,1-3.688-1.455l.181-.006-3.039,1.987-.115.076-.1-.1L330.5,87.808l-.1-.092.069-.112,1.887-3.1v.165a14.953,14.953,0,0,1-1.572-3.634l.116.107-3.555-.747-.114-.024,0-.116c-.032-2.108-.063-4.117-.091-6.009l0-.105.1-.025,3.531-.855-.089.089a14.878,14.878,0,0,1,1.457-3.67l0,.112-1.978-3.045-.041-.063.052-.053,4.2-4.3.033-.034.04.025,2.287,1.423.588.373A1.808,1.808,0,0,1,337.526,64.253Z" fill="#f5f5f5"/>
      </g>
    </g>
    <g id="Grupo_128972" data-name="Grupo 128972" transform="matrix(0.545, 0.839, -0.839, 0.545, 1075.893, -112.856)">
      <path id="Trazado_168891" data-name="Trazado 168891" d="M305.777,59.412a11.429,11.429,0,0,1,2.791-1.213l.574-2.763,4.668-.081.672,2.74a11.439,11.439,0,0,1,2.832,1.114l2.359-1.546,3.358,3.242-1.462,2.412a11.447,11.447,0,0,1,1.213,2.791l2.762.575.082,4.668-2.741.671a11.438,11.438,0,0,1-1.114,2.832l1.546,2.359-3.242,3.359-2.411-1.463a11.414,11.414,0,0,1-2.792,1.213l-.575,2.763-4.667.082-.672-2.741a11.439,11.439,0,0,1-2.832-1.114l-2.359,1.546-3.358-3.242,1.462-2.412a11.431,11.431,0,0,1-1.213-2.791l-2.762-.575-.082-4.667,2.74-.672a11.443,11.443,0,0,1,1.115-2.832l-1.547-2.359,3.243-3.358,2.412,1.462Zm2.488,6.218a5.007,5.007,0,1,0,7.081-.125A5.008,5.008,0,0,0,308.265,65.63Z" fill="#f5f5f5"/>
    </g>
    <g id="Grupo_128975" data-name="Grupo 128975" transform="matrix(0.545, 0.839, -0.839, 0.545, 1075.893, -112.856)">
      <g id="Grupo_128974" data-name="Grupo 128974">
        <path id="Trazado_168892" data-name="Trazado 168892" d="M308.265,65.63a3.8,3.8,0,0,1,.932-.819,4.987,4.987,0,0,1,3.267-.772,5.057,5.057,0,0,1,2.221.789,5.127,5.127,0,0,1,1.8,2.023,5.128,5.128,0,0,1,.484,2.947,5.11,5.11,0,0,1-4.227,4.379,5.135,5.135,0,0,1-2.963-.38,5.119,5.119,0,0,1-2.085-1.724,5.046,5.046,0,0,1-.867-2.191,4.986,4.986,0,0,1,.658-3.292,3.762,3.762,0,0,1,.785-.96,12.211,12.211,0,0,0-.688,1.016,4.989,4.989,0,0,0-.554,3.2,4.894,4.894,0,0,0,2.859,3.705,4.906,4.906,0,0,0,2.807.344,4.853,4.853,0,0,0,4-4.139,4.906,4.906,0,0,0-.442-2.794,4.888,4.888,0,0,0-3.8-2.726,4.991,4.991,0,0,0-3.185.665C308.582,65.316,308.289,65.656,308.265,65.63Z" fill="#f5f5f5"/>
      </g>
    </g>
    <g id="Grupo_128978" data-name="Grupo 128978" transform="matrix(0.545, 0.839, -0.839, 0.545, 1075.893, -112.856)">
      <g id="Grupo_128977" data-name="Grupo 128977">
        <path id="Trazado_168893" data-name="Trazado 168893" d="M305.777,59.412a1.1,1.1,0,0,1-.156-.082l-.463-.268-1.817-1.073.057-.008-3.223,3.378.008-.091c.472.713,1,1.5,1.556,2.353l.028.042-.025.045a11.454,11.454,0,0,0-1.1,2.813l-.013.055-.056.014-2.739.68.078-.1c.029,1.469.06,3.029.093,4.667l-.09-.109,2.763.57.071.014.019.069a11.4,11.4,0,0,0,1.2,2.76l.039.064-.039.065-1.459,2.413-.02-.158,3.362,3.238-.166-.016,2.358-1.548.069-.045.072.04a11.372,11.372,0,0,0,2.8,1.1l.082.02.02.082c.211.858.441,1.794.674,2.74l-.14-.107,4.668-.084-.137.114c.181-.873.377-1.815.574-2.763l.018-.085.083-.024a11.318,11.318,0,0,0,2.754-1.2h0l.075-.045.074.045,2.411,1.462-.177.023,3.243-3.358-.017.177-1.544-2.36-.047-.071.041-.074a11.256,11.256,0,0,0,1.1-2.8l.021-.082.082-.02,2.74-.669-.1.135q-.039-2.389-.077-4.667l.105.127-2.762-.579-.076-.016-.021-.075a11.385,11.385,0,0,0-1.195-2.762l-.039-.064.039-.065c.5-.826.99-1.626,1.466-2.408l.019.147L319.6,57.742l.137.013-2.363,1.54-.052.034-.054-.03a11.424,11.424,0,0,0-2.8-1.113l-.056-.013-.013-.056-.663-2.742.084.065-4.667.061.061-.051c-.236,1.1-.43,2.005-.592,2.758l-.006.028-.027.007a11.939,11.939,0,0,0-2.134.821l-.5.263a1.193,1.193,0,0,1-.167.085,1.42,1.42,0,0,1,.155-.106c.107-.066.269-.164.492-.284a11.118,11.118,0,0,1,2.131-.867l-.032.035c.152-.755.334-1.662.556-2.767l.011-.05h.051l4.667-.1.068,0,.016.066c.211.847.434,1.743.681,2.738L314.5,58a11.558,11.558,0,0,1,2.86,1.116l-.107,0,2.355-1.552.073-.048.064.061,3.365,3.235.068.067-.049.081-1.458,2.414v-.128a11.529,11.529,0,0,1,1.23,2.82l-.1-.091,2.763.572.1.021,0,.106q.042,2.277.087,4.667l0,.109-.106.026-2.74.674.1-.1a11.535,11.535,0,0,1-1.126,2.867l-.005-.146,1.547,2.358.063.1-.079.082-3.242,3.359-.079.083-.1-.06-2.412-1.462h.149l0,0a11.586,11.586,0,0,1-2.824,1.226l.1-.109c-.2.949-.393,1.89-.575,2.763l-.023.111-.114,0-4.668.08-.112,0-.027-.109-.67-2.741.1.1a11.593,11.593,0,0,1-2.865-1.13l.141,0-2.36,1.544-.09.058-.076-.074-3.355-3.246-.073-.071.053-.088,1.465-2.409v.128a11.626,11.626,0,0,1-1.221-2.823l.09.084-2.761-.58-.089-.019v-.09c-.025-1.638-.049-3.2-.071-4.668l0-.081.08-.02,2.742-.664-.069.069a11.552,11.552,0,0,1,1.132-2.85l0,.087c-.553-.852-1.071-1.648-1.537-2.365l-.031-.049.04-.042,3.262-3.339.026-.027.03.019,1.777,1.106.457.29A1.424,1.424,0,0,1,305.777,59.412Z" fill="#f5f5f5"/>
      </g>
    </g>
    <g id="Grupo_128981" data-name="Grupo 128981" transform="translate(862.515 70.663)">
      <path id="Trazado_168894" data-name="Trazado 168894" d="M101.141,231.169a25.578,25.578,0,0,1,6.786-.613l3.168-5.467,9.979,3.114-.5,6.3a25.556,25.556,0,0,1,5.234,4.363l6.1-1.625,4.854,9.258-4.807,4.1a25.554,25.554,0,0,1,.612,6.788l5.467,3.168-3.114,9.979-6.3-.5a25.615,25.615,0,0,1-4.363,5.235l1.625,6.1-9.257,4.855-4.1-4.807a25.634,25.634,0,0,1-6.788.612l-3.168,5.466L92.6,284.375l.5-6.3a25.609,25.609,0,0,1-5.234-4.362l-6.1,1.625-4.855-9.258,4.807-4.1A25.631,25.631,0,0,1,81.1,255.2l-5.466-3.168,3.113-9.979,6.3.5a25.669,25.669,0,0,1,4.362-5.234l-1.624-6.1,9.257-4.855,4.1,4.808Zm.909,14.968a11.214,11.214,0,1,0,15.138,4.723A11.214,11.214,0,0,0,102.05,246.137Z" fill="none" stroke="#e0e0e0" stroke-miterlimit="10" stroke-width="0.05"/>
    </g>
    <g id="Grupo_128984" data-name="Grupo 128984" transform="translate(862.515 70.663)">
      <g id="Grupo_128983" data-name="Grupo 128983">
        <path id="Trazado_168895" data-name="Trazado 168895" d="M102.05,246.137a8.461,8.461,0,0,1,2.558-1.082,11.162,11.162,0,0,1,7.488.659,11.309,11.309,0,0,1,4.164,3.241,11.476,11.476,0,0,1,2.392,5.565,11.5,11.5,0,0,1-1.048,6.6,11.439,11.439,0,0,1-12.069,6.33,11.491,11.491,0,0,1-6.031-2.894,11.482,11.482,0,0,1-3.218-5.133,11.3,11.3,0,0,1-.3-5.268,11.163,11.163,0,0,1,3.716-6.534,8.47,8.47,0,0,1,2.345-1.489c.041.068-.874.486-2.179,1.675a11.186,11.186,0,0,0-3.434,6.424,10.954,10.954,0,0,0,3.467,9.887,10.955,10.955,0,0,0,5.725,2.71,10.865,10.865,0,0,0,11.409-5.984,10.968,10.968,0,0,0,1.027-6.249,10.955,10.955,0,0,0-6.161-8.474,11.172,11.172,0,0,0-7.237-.828C102.946,245.694,102.082,246.21,102.05,246.137Z" fill="#ebebeb"/>
      </g>
    </g>
    <g id="Grupo_128987" data-name="Grupo 128987" transform="translate(862.515 70.663)">
      <g id="Grupo_128986" data-name="Grupo 128986">
        <path id="Trazado_168896" data-name="Trazado 168896" d="M101.141,231.168a2.3,2.3,0,0,1-.273-.284l-.795-.894-3.107-3.562.125.024-9.229,4.908.082-.186c.5,1.847,1.056,3.9,1.65,6.1l.029.11-.084.078a25.544,25.544,0,0,0-4.311,5.208l-.068.108-.128-.01-6.3-.484.237-.16c-.973,3.144-2.006,6.481-3.09,9.985l-.115-.294,5.472,3.157.14.08-.007.161a25.48,25.48,0,0,0,.617,6.714l.037.164-.128.109-4.8,4.1.068-.351,4.865,9.252-.342-.151,6.1-1.631.179-.047.125.136a25.45,25.45,0,0,0,5.175,4.306l.159.1-.015.188c-.156,1.973-.326,4.125-.5,6.3l-.221-.326,9.98,3.109-.371.145c1-1.727,2.079-3.59,3.167-5.467l.1-.169.194.009a25.372,25.372,0,0,0,6.7-.6l.006,0,.191-.041.125.146,4.1,4.807-.393-.076,9.258-4.852-.16.364q-.819-3.082-1.622-6.1l-.049-.185.141-.129a25.26,25.26,0,0,0,4.312-5.168l.1-.159.188.015,6.3.507-.317.214q1.6-5.107,3.123-9.975l.134.344-5.462-3.174-.151-.088.008-.174a25.432,25.432,0,0,0-.6-6.714l-.037-.164.128-.109,4.813-4.088-.063.328c-1.7-3.26-3.307-6.338-4.835-9.268l.281.124-6.107,1.61-.136.035-.093-.1a25.488,25.488,0,0,0-5.178-4.34l-.108-.069.01-.127c.191-2.288.362-4.349.523-6.3l.133.2-9.964-3.157.167-.066-3.2,5.447-.032.054-.062,0a26.576,26.576,0,0,0-5.115.241l-1.252.2a2.357,2.357,0,0,1-.415.063,3.367,3.367,0,0,1,.4-.115c.273-.065.686-.16,1.245-.256a24.731,24.731,0,0,1,5.141-.344l-.094.051,3.133-5.487.056-.1.112.034,9.992,3.07.144.045-.011.152c-.149,1.948-.307,4.01-.482,6.3l-.1-.195a25.809,25.809,0,0,1,5.292,4.386l-.229-.067,6.1-1.64.19-.051.092.175c1.54,2.923,3.158,5.994,4.873,9.247l.1.189-.163.139-4.8,4.1.091-.273a25.935,25.935,0,0,1,.628,6.862l-.143-.262,5.47,3.161.205.118-.071.226q-1.513,4.869-3.1,9.982l-.073.233-.244-.019-6.3-.5.288-.144a25.96,25.96,0,0,1-4.413,5.3l.091-.313q.805,3.02,1.627,6.1l.066.245-.225.119-9.256,4.857-.227.119-.166-.2-4.1-4.806.316.1H112.6a25.956,25.956,0,0,1-6.866.618l.292-.16c-1.088,1.877-2.169,3.74-3.169,5.467l-.128.22-.244-.076L92.5,284.675l-.241-.075.021-.25c.174-2.174.348-4.326.506-6.3l.145.287a25.975,25.975,0,0,1-5.294-4.419l.3.089-6.105,1.619-.231.061-.111-.211c-1.681-3.217-3.322-6.354-4.843-9.264l-.106-.2.174-.148,4.813-4.089-.091.273a25.943,25.943,0,0,1-.607-6.861l.133.241-5.461-3.178-.175-.1.06-.192,3.137-9.971.055-.175.182.015,6.3.52-.2.1a25.864,25.864,0,0,1,4.414-5.261l-.055.188c-.576-2.2-1.115-4.259-1.6-6.11l-.033-.127.115-.06L97,226.27l.074-.038.052.063q1.951,2.343,3,3.6l.767.938A3.267,3.267,0,0,1,101.141,231.168Z" fill="#ebebeb"/>
      </g>
    </g>
    <g id="Grupo_128991" data-name="Grupo 128991" transform="translate(862.515 70.663)">
      <g id="Grupo_128990" data-name="Grupo 128990">
        <path id="Trazado_168897" data-name="Trazado 168897" d="M373.067,271.519a8.144,8.144,0,0,1,2.635-.419,10.727,10.727,0,0,1,6.831,2.344,10.847,10.847,0,0,1,3.135,3.983,11.026,11.026,0,0,1,.946,5.742,11.039,11.039,0,0,1-2.5,5.917A10.993,10.993,0,0,1,371.4,292.2a11.048,11.048,0,0,1-4.956-4.091,11.033,11.033,0,0,1-1.816-5.529,10.862,10.862,0,0,1,.939-4.982,10.725,10.725,0,0,1,4.974-5.235,8.13,8.13,0,0,1,2.53-.847c.023.073-.927.251-2.418,1.059a10.747,10.747,0,0,0-4.686,5.2,10.527,10.527,0,0,0,.951,10.02,10.511,10.511,0,0,0,4.714,3.848,10.436,10.436,0,0,0,12.02-2.946,10.522,10.522,0,0,0,2.4-5.59,10.525,10.525,0,0,0-3.789-9.325,10.739,10.739,0,0,0-6.558-2.442C374.005,271.313,373.08,271.6,373.067,271.519Z" fill="#ebebeb"/>
      </g>
    </g>
    <g id="Grupo_128994" data-name="Grupo 128994" transform="translate(862.515 70.663)">
      <g id="Grupo_128993" data-name="Grupo 128993">
        <path id="Trazado_168898" data-name="Trazado 168898" d="M375.675,257.351a2.309,2.309,0,0,1-.189-.328l-.535-1.018q-.721-1.406-2.075-4.039l.111.052-9.739,2.446.12-.154c.039,1.838.083,3.88.13,6.065l0,.11-.1.053a24.565,24.565,0,0,0-5.222,3.861l-.088.085-.117-.039-5.763-1.906.257-.094-5.186,8.6-.039-.3,4.374,4.207.111.107-.043.149a24.445,24.445,0,0,0-.975,6.4l0,.161-.144.073-5.424,2.718.145-.312c.754,3.063,1.567,6.365,2.4,9.75l-.284-.219,6.066-.112.178,0,.085.156a24.462,24.462,0,0,0,3.831,5.21l.126.13-.057.172-1.919,5.758-.13-.354,8.588,5.2-.379.049,4.215-4.367.129-.135.179.053a24.352,24.352,0,0,0,6.384.983h.006l.188.005.082.165,2.71,5.428-.349-.161,9.753-2.388-.233.3q-.051-3.063-.1-6.066l0-.184.161-.087a24.307,24.307,0,0,0,5.214-3.824l.131-.126.172.058,5.755,1.927-.344.126,5.215-8.581.045.352-4.361-4.221-.12-.117.047-.161a24.388,24.388,0,0,0,1-6.4l0-.163.145-.071,5.431-2.7-.134.291c-.834-3.433-1.621-6.673-2.37-9.758l.234.18-6.066.091-.135,0-.064-.117a24.517,24.517,0,0,0-3.826-5.243l-.085-.089.039-.116c.706-2.089,1.341-3.972,1.941-5.75l.079.214-8.564-5.245.172-.022c-1.7,1.733-3.086,3.155-4.244,4.34l-.043.043-.057-.017a25.413,25.413,0,0,0-4.826-.955l-1.214-.1a2.471,2.471,0,0,1-.4-.037,2.9,2.9,0,0,1,.4-.015c.27,0,.677.01,1.221.049a23.776,23.776,0,0,1,4.873.866l-.1.026c1.143-1.2,2.515-2.638,4.187-4.394l.076-.079.1.057,8.609,5.17.125.074-.046.14c-.589,1.782-1.212,3.668-1.9,5.763l-.047-.2a24.851,24.851,0,0,1,3.923,5.311l-.2-.115,6.066-.121.188,0,.045.184,2.41,9.749.049.2-.184.092-5.423,2.719.148-.234a24.907,24.907,0,0,1-1,6.544l-.073-.277,4.371,4.21.164.157-.118.195-5.2,8.591-.122.2L398,302.13l-5.758-1.918.3-.068a24.91,24.91,0,0,1-5.338,3.924l.157-.271q.054,3,.109,6.066l0,.245-.237.058-9.752,2.393-.24.058-.11-.22-2.71-5.428.27.171h-.006a25,25,0,0,1-6.546-1.009l.309-.082-4.217,4.366-.17.176-.21-.127-8.584-5.211-.207-.125.077-.23c.665-1.986,1.323-3.953,1.926-5.756l.068.3a24.987,24.987,0,0,1-3.916-5.343l.263.153-6.067.1-.23,0-.054-.223c-.826-3.387-1.631-6.692-2.378-9.756l-.053-.214.2-.1,5.432-2.7-.147.233a24.924,24.924,0,0,1,1.017-6.537l.068.255c-1.524-1.476-3.009-2.917-4.358-4.224l-.14-.136.1-.166,5.226-8.574.092-.15.166.056,5.752,1.938-.205.047a24.843,24.843,0,0,1,5.33-3.887l-.094.162c-.029-2.186-.057-4.229-.082-6.067v-.126l.121-.029,9.767-2.333.077-.019.034.07,1.964,4.05c.213.448.376.794.5,1.052A3.182,3.182,0,0,1,375.675,257.351Z" fill="#ebebeb"/>
      </g>
    </g>
    <g id="Grupo_129007" data-name="Grupo 129007" transform="translate(862.515 70.663)">
      <path id="Trazado_168902" data-name="Trazado 168902" d="M160.022,229.237a17.452,17.452,0,0,1-1.825-5.716,17.39,17.39,0,0,1,1.825,5.716Z" fill="#263238"/>
    </g>
    <g id="Grupo_129009" data-name="Grupo 129009" transform="translate(862.515 70.663)">
      <path id="Trazado_168903" data-name="Trazado 168903" d="M170.635,250.636a40.356,40.356,0,0,1-5.965-10.373,53.172,53.172,0,0,1,3.047,5.15A53.315,53.315,0,0,1,170.635,250.636Z" fill="#263238"/>
    </g>
    <g id="Grupo_129011" data-name="Grupo 129011" transform="translate(862.515 70.663)">
      <path id="Trazado_168904" data-name="Trazado 168904" d="M186.242,268.711a39.557,39.557,0,0,1-8.386-8.535,54.41,54.41,0,0,1,4.24,4.222A55.284,55.284,0,0,1,186.242,268.711Z" fill="#263238"/>
    </g>
    <g id="Grupo_129013" data-name="Grupo 129013" transform="translate(862.515 70.663)">
      <path id="Trazado_168905" data-name="Trazado 168905" d="M206.017,282.1a24.811,24.811,0,0,1-5.4-2.607,25.1,25.1,0,0,1-4.936-3.413,56.084,56.084,0,0,1,5.2,2.963A57.377,57.377,0,0,1,206.017,282.1Z" fill="#263238"/>
    </g>
    <g id="Grupo_129015" data-name="Grupo 129015" transform="translate(862.515 70.663)">
      <path id="Trazado_168906" data-name="Trazado 168906" d="M228.724,289.416a32.986,32.986,0,0,1-5.927-.935,34.649,34.649,0,0,1-5.7-1.878,34.62,34.62,0,0,1,5.822,1.372A36.526,36.526,0,0,1,228.724,289.416Z" fill="#263238"/>
    </g>
    <g id="Grupo_129017" data-name="Grupo 129017" transform="translate(862.515 70.663)">
      <path id="Trazado_168907" data-name="Trazado 168907" d="M252.591,289.945a25.855,25.855,0,0,1-5.957.706,25.5,25.5,0,0,1-6-.184,54.274,54.274,0,0,1,5.974-.336A52.48,52.48,0,0,1,252.591,289.945Z" fill="#263238"/>
    </g>
    <g id="Grupo_129019" data-name="Grupo 129019" transform="translate(862.515 70.663)">
      <path id="Trazado_168908" data-name="Trazado 168908" d="M275.923,284.786a42.452,42.452,0,0,1-11.523,3.228,50.05,50.05,0,0,1,5.735-1.708A49.849,49.849,0,0,1,275.923,284.786Z" fill="#263238"/>
    </g>
    <g id="Grupo_129021" data-name="Grupo 129021" transform="translate(862.515 70.663)">
      <path id="Trazado_168909" data-name="Trazado 168909" d="M297.566,274.652a41.642,41.642,0,0,1-10.538,5.673,50.788,50.788,0,0,1,5.228-2.915A51.593,51.593,0,0,1,297.566,274.652Z" fill="#263238"/>
    </g>
    <g id="Grupo_129023" data-name="Grupo 129023" transform="translate(862.515 70.663)">
      <path id="Trazado_168910" data-name="Trazado 168910" d="M316.124,259.624a24.486,24.486,0,0,1-4.065,4.414,25.061,25.061,0,0,1-4.709,3.72,56.271,56.271,0,0,1,4.355-4.1A59.278,59.278,0,0,1,316.124,259.624Z" fill="#263238"/>
    </g>
    <g id="Grupo_129025" data-name="Grupo 129025" transform="translate(862.515 70.663)">
      <path id="Trazado_168911" data-name="Trazado 168911" d="M329.331,239.774a25.028,25.028,0,0,1-2.46,5.472,23.418,23.418,0,0,1-3.317,5c-.122-.083,1.283-2.358,2.86-5.251A56.38,56.38,0,0,1,329.331,239.774Z" fill="#263238"/>
    </g>
    <g id="Grupo_129027" data-name="Grupo 129027" transform="translate(862.515 70.663)">
      <path id="Trazado_168912" data-name="Trazado 168912" d="M337.528,217.295a34.642,34.642,0,0,1-1.622,5.768,34.452,34.452,0,0,1-2.116,5.6,34.79,34.79,0,0,1,1.622-5.769A34.725,34.725,0,0,1,337.528,217.295Z" fill="#263238"/>
    </g>
    <g id="Grupo_129029" data-name="Grupo 129029" transform="translate(862.515 70.663)">
      <path id="Trazado_168913" data-name="Trazado 168913" d="M345.183,194.615c.157.062-.767,2.577-1.842,5.7a34.608,34.608,0,0,1-2.209,5.565,34.675,34.675,0,0,1,1.719-5.743c.525-1.569,1.1-2.953,1.533-3.949A5.969,5.969,0,0,1,345.183,194.615Z" fill="#263238"/>
    </g>
    <g id="Grupo_129031" data-name="Grupo 129031" transform="translate(862.515 70.663)">
      <path id="Trazado_168914" data-name="Trazado 168914" d="M355.8,173.191a53.922,53.922,0,0,1-2.832,5.271,48.652,48.652,0,0,1-2.988,5.185,26.839,26.839,0,0,1,2.533-5.438A25.574,25.574,0,0,1,355.8,173.191Z" fill="#263238"/>
    </g>
    <g id="Grupo_129033" data-name="Grupo 129033" transform="translate(862.515 70.663)">
      <path id="Trazado_168915" data-name="Trazado 168915" d="M371.76,155.519c.09.122-2.011,1.778-4.421,4.019s-4.248,4.187-4.363,4.086a22.5,22.5,0,0,1,4.009-4.468A21.672,21.672,0,0,1,371.76,155.519Z" fill="#263238"/>
    </g>
    <g id="Grupo_129035" data-name="Grupo 129035" transform="translate(862.515 70.663)">
      <path id="Trazado_168916" data-name="Trazado 168916" d="M393.322,145.422c.039.145-2.522.925-5.621,2.04s-5.568,2.145-5.632,2.01a23.362,23.362,0,0,1,5.456-2.5A24.039,24.039,0,0,1,393.322,145.422Z" fill="#263238"/>
    </g>
    <g id="Grupo_129037" data-name="Grupo 129037" transform="translate(862.515 70.663)">
      <path id="Trazado_168917" data-name="Trazado 168917" d="M417.026,142.779c-.01.149-2.685.084-5.977.2s-5.96.333-5.978.183a23.924,23.924,0,0,1,5.961-.7A23.064,23.064,0,0,1,417.026,142.779Z" fill="#263238"/>
    </g>
    <g id="Grupo_129039" data-name="Grupo 129039" transform="translate(862.515 70.663)">
      <path id="Trazado_168918" data-name="Trazado 168918" d="M440.1,148.674a56.086,56.086,0,0,1-5.655-1.95,58.7,58.7,0,0,1-5.621-2.048,24.617,24.617,0,0,1,5.8,1.557A25.109,25.109,0,0,1,440.1,148.674Z" fill="#263238"/>
    </g>
    <g id="Grupo_129041" data-name="Grupo 129041" transform="translate(862.515 70.663)">
      <path id="Trazado_168919" data-name="Trazado 168919" d="M460.46,161.125c-.1.114-2.2-1.539-4.889-3.446a58.558,58.558,0,0,1-4.849-3.505,24.674,24.674,0,0,1,5.151,3.081A24.062,24.062,0,0,1,460.46,161.125Z" fill="#263238"/>
    </g>
    <g id="Grupo_129043" data-name="Grupo 129043" transform="translate(862.515 70.663)">
      <path id="Trazado_168920" data-name="Trazado 168920" d="M472.471,174.4a10.541,10.541,0,0,1-1.923-2.3,10.412,10.412,0,0,1-1.637-2.516,13.241,13.241,0,0,1,3.56,4.821Z" fill="#263238"/>
    </g>
    <path id="Trazado_168921" data-name="Trazado 168921" d="M208,275.876" transform="translate(862.515 70.663)" fill="none" stroke="#4e585d" stroke-miterlimit="10" stroke-width="0.05"/>
    <path id="Trazado_168922" data-name="Trazado 168922" d="M32.505,88.662s.055-.308.187-.9.337-1.493.6-2.648a68.072,68.072,0,0,1,3.326-9.888A74.565,74.565,0,0,1,44.893,60.95,81.759,81.759,0,0,1,60.154,45.332,80.793,80.793,0,0,1,83.408,32.751a85.767,85.767,0,0,1,14.366-3.472,92.133,92.133,0,0,1,15.643-.907,81.115,81.115,0,0,1,16.336,2.07,74.1,74.1,0,0,1,16.191,5.718,73.08,73.08,0,0,1,14.806,9.858A70.134,70.134,0,0,1,173.043,59.59a67.669,67.669,0,0,1,8.239,16.358,76.941,76.941,0,0,1,3.749,17.394c.11,1.457.266,2.9.334,4.351q.051,2.17.1,4.322c.018,1.434-.077,2.862-.11,4.283-.13,1.415-.224,2.828-.407,4.223a63.167,63.167,0,0,1-4.3,15.895,123.154,123.154,0,0,1-7.1,13.968l-7.463,12.736a74.89,74.89,0,0,0-8.726,24.8,107.984,107.984,0,0,0-1.415,11.444c-.278,3.633-.392,7.07-.411,10.285a113.575,113.575,0,0,0,.776,16.453,65.23,65.23,0,0,0,2.285,10.153c.365,1.133.679,1.986.908,2.552.109.286.209.493.266.637s.084.218.084.218a23.277,23.277,0,0,1-1.358-3.375,62.747,62.747,0,0,1-2.385-10.155,111.846,111.846,0,0,1-.867-16.485c.005-3.22.106-6.664.372-10.308A107.776,107.776,0,0,1,157,177.853a75.105,75.105,0,0,1,8.713-24.948l7.441-12.749a122.957,122.957,0,0,0,7.057-13.923,62.725,62.725,0,0,0,4.247-15.775c.18-1.384.272-2.786.4-4.19.031-1.411.125-2.827.1-4.253s-.068-2.858-.1-4.3c-.07-1.437-.226-2.876-.335-4.325a76.572,76.572,0,0,0-3.732-17.274,67.164,67.164,0,0,0-8.178-16.232,69.618,69.618,0,0,0-12.2-13.474,72.633,72.633,0,0,0-14.7-9.795,73.6,73.6,0,0,0-16.075-5.69,80.651,80.651,0,0,0-16.24-2.075,91.843,91.843,0,0,0-15.561.88A85.451,85.451,0,0,0,83.547,33.16,80.633,80.633,0,0,0,60.38,45.623a81.886,81.886,0,0,0-15.254,15.5A75.239,75.239,0,0,0,36.8,75.3a70.967,70.967,0,0,0-3.411,9.833l-.648,2.633C32.6,88.361,32.505,88.662,32.505,88.662Z" transform="translate(862.515 70.663)" fill="#263238"/>
    <g id="Grupo_81665" data-name="Grupo 81665" transform="translate(862.515 70.663)">
      <g id="Grupo_81664" data-name="Grupo 81664">
        <g id="Grupo_81663" data-name="Grupo 81663">
          <path id="Trazado_113848" data-name="Trazado 113848" d="M140.345,117.073c0,.082-13.282.147-29.661.147s-29.663-.065-29.663-.147,13.276-.148,29.663-.148S140.345,116.991,140.345,117.073Z" fill="#2e353a"/>
        </g>
      </g>
    </g>
    <g id="Grupo_81667" data-name="Grupo 81667" transform="translate(862.515 70.663)">
      <circle id="Elipse_4912" data-name="Elipse 4912" cx="1.133" cy="1.133" r="1.133" transform="translate(80.695 87.857)" fill="#dedede"/>
    </g>
    <g id="Grupo_81669" data-name="Grupo 81669" transform="translate(862.515 70.663)">
      <path id="Trazado_113849" data-name="Trazado 113849" d="M86.042,88.99a1.133,1.133,0,1,1-1.134-1.133h0A1.133,1.133,0,0,1,86.042,88.99Z" fill="#dedede"/>
    </g>
    <g id="Grupo_81671" data-name="Grupo 81671" transform="translate(862.515 70.663)">
      <circle id="Elipse_4913" data-name="Elipse 4913" cx="1.133" cy="1.133" r="1.133" transform="translate(86.825 87.857)" fill="#dedede"/>
    </g>
    <g id="Grupo_129091" data-name="Grupo 129091" transform="translate(862.515 70.663)">
      <g id="Grupo_129060" data-name="Grupo 129060">
        <path id="Trazado_168934" data-name="Trazado 168934" d="M250.113,218.884c.034,0,.061.132.062.295s-.027.295-.061.295-.062-.132-.062-.295S250.079,218.884,250.113,218.884Z" fill="#263238"/>
      </g>
      <g id="Grupo_129061" data-name="Grupo 129061">
        <path id="Trazado_168935" data-name="Trazado 168935" d="M250.107,216.472a2.987,2.987,0,0,1,0,1.206,2.987,2.987,0,0,1,0-1.206Z" fill="#263238"/>
      </g>
      <g id="Grupo_129062" data-name="Grupo 129062">
        <path id="Trazado_168936" data-name="Trazado 168936" d="M250.1,214.059a2.987,2.987,0,0,1,0,1.206,2.987,2.987,0,0,1,0-1.206Z" fill="#263238"/>
      </g>
      <g id="Grupo_129063" data-name="Grupo 129063">
        <path id="Trazado_168937" data-name="Trazado 168937" d="M250.1,211.647a2.987,2.987,0,0,1,0,1.206,2.987,2.987,0,0,1,0-1.206Z" fill="#263238"/>
      </g>
      <g id="Grupo_129064" data-name="Grupo 129064">
        <path id="Trazado_168938" data-name="Trazado 168938" d="M250.089,209.234a2.987,2.987,0,0,1,0,1.206,1.525,1.525,0,0,1-.062-.6A1.559,1.559,0,0,1,250.089,209.234Z" fill="#263238"/>
      </g>
      <g id="Grupo_129065" data-name="Grupo 129065">
        <path id="Trazado_168939" data-name="Trazado 168939" d="M250.492,207.863c-.011.013-.072-.018-.158-.085a1.748,1.748,0,0,1-.143-.126c-.025-.025-.051-.053-.077-.082l-.04-.046-.019-.024-.01-.013-.005-.006,0,0v0h0l.112-.036a1.505,1.505,0,0,1-.06.59,1.472,1.472,0,0,1-.063-.59l.111-.035h0l0,0,0,0,.009.012.018.023.035.044.069.083.12.141C250.463,207.8,250.5,207.85,250.492,207.863Z" fill="#263238"/>
      </g>
      <g id="Grupo_129066" data-name="Grupo 129066">
        <path id="Trazado_168940" data-name="Trazado 168940" d="M252.584,208.729A1.035,1.035,0,0,1,252,208.7a1.024,1.024,0,0,1-.534-.236,2.279,2.279,0,0,1,.562.117A2.2,2.2,0,0,1,252.584,208.729Z" fill="#263238"/>
      </g>
      <g id="Grupo_129067" data-name="Grupo 129067">
        <path id="Trazado_168941" data-name="Trazado 168941" d="M254.815,208.273a1.044,1.044,0,0,1-.51.283,1.162,1.162,0,0,1-.576.092c-.008-.039.24-.108.536-.208A2.175,2.175,0,0,1,254.815,208.273Z" fill="#263238"/>
      </g>
      <g id="Grupo_129068" data-name="Grupo 129068">
        <path id="Trazado_168942" data-name="Trazado 168942" d="M256.349,206.615a1.037,1.037,0,0,1-.218.542c-.175.274-.38.446-.4.422a2.4,2.4,0,0,1,.3-.489C256.2,206.828,256.316,206.6,256.349,206.615Z" fill="#263238"/>
      </g>
      <g id="Grupo_129069" data-name="Grupo 129069">
        <path id="Trazado_168943" data-name="Trazado 168943" d="M256.678,204.358a1.8,1.8,0,0,1-.024,1.149,5.909,5.909,0,0,1,.024-1.149Z" fill="#263238"/>
      </g>
      <g id="Grupo_129070" data-name="Grupo 129070">
        <path id="Trazado_168944" data-name="Trazado 168944" d="M255.751,202.3c.023-.023.227.146.41.415a1.03,1.03,0,0,1,.234.534c-.033.014-.158-.208-.335-.465S255.725,202.324,255.751,202.3Z" fill="#263238"/>
      </g>
      <g id="Grupo_129071" data-name="Grupo 129071">
        <path id="Trazado_168945" data-name="Trazado 168945" d="M253.795,201.139a1.062,1.062,0,0,1,.569.127,1.072,1.072,0,0,1,.491.314,2.034,2.034,0,0,1-.538-.2A2.087,2.087,0,0,1,253.795,201.139Z" fill="#263238"/>
      </g>
      <g id="Grupo_129072" data-name="Grupo 129072">
        <path id="Trazado_168946" data-name="Trazado 168946" d="M251.522,201.2a1.032,1.032,0,0,1,.549-.2,1.058,1.058,0,0,1,.584.008,2.128,2.128,0,0,1-.564.113A2.272,2.272,0,0,1,251.522,201.2Z" fill="#263238"/>
      </g>
      <g id="Grupo_129073" data-name="Grupo 129073">
        <path id="Trazado_168947" data-name="Trazado 168947" d="M250.114,201.592a1.459,1.459,0,0,1,.062.589l-.113-.034h0l0,0,0,0,.005-.007.009-.013.019-.025.039-.047c.026-.03.051-.058.077-.083a1.494,1.494,0,0,1,.143-.127c.087-.066.149-.1.159-.083s-.03.066-.1.146l-.119.14-.068.084-.035.045-.017.023-.008.011,0,.006,0,0h0l-.113-.034A1.469,1.469,0,0,1,250.114,201.592Z" fill="#263238"/>
      </g>
      <g id="Grupo_129074" data-name="Grupo 129074">
        <path id="Trazado_168948" data-name="Trazado 168948" d="M250.114,198.971a3.491,3.491,0,0,1,0,1.31,3.547,3.547,0,0,1,0-1.31Z" fill="#263238"/>
      </g>
      <g id="Grupo_129075" data-name="Grupo 129075">
        <path id="Trazado_168949" data-name="Trazado 168949" d="M250.114,196.351a3.491,3.491,0,0,1,0,1.31,3.547,3.547,0,0,1,0-1.31Z" fill="#263238"/>
      </g>
      <g id="Grupo_129076" data-name="Grupo 129076">
        <path id="Trazado_168950" data-name="Trazado 168950" d="M250.114,193.731a3.491,3.491,0,0,1,0,1.31,3.547,3.547,0,0,1,0-1.31Z" fill="#263238"/>
      </g>
      <g id="Grupo_129077" data-name="Grupo 129077">
        <path id="Trazado_168951" data-name="Trazado 168951" d="M249.525,191.827a1.452,1.452,0,0,1,.59-.057c.121.123.033.034.061.061h0v.117l0,.111c0,.07-.008.134-.013.187-.011.107-.027.173-.044.173s-.032-.066-.043-.173c-.006-.053-.01-.117-.013-.187l0-.111v-.117h0c.027.028-.061-.061.061.062A1.471,1.471,0,0,1,249.525,191.827Z" fill="#263238"/>
      </g>
      <g id="Grupo_129078" data-name="Grupo 129078">
        <path id="Trazado_168952" data-name="Trazado 168952" d="M247.392,191.811a2.359,2.359,0,0,1,1.066.008,1.207,1.207,0,0,1-.534.058A1.2,1.2,0,0,1,247.392,191.811Z" fill="#263238"/>
      </g>
      <g id="Grupo_129079" data-name="Grupo 129079">
        <path id="Trazado_168953" data-name="Trazado 168953" d="M245.259,191.8a2.322,2.322,0,0,1,1.066.008,2.36,2.36,0,0,1-1.066-.008Z" fill="#263238"/>
      </g>
      <g id="Grupo_129080" data-name="Grupo 129080">
        <path id="Trazado_168954" data-name="Trazado 168954" d="M243.126,191.78a2.36,2.36,0,0,1,1.066.008,1.2,1.2,0,0,1-.533.058A1.218,1.218,0,0,1,243.126,191.78Z" fill="#263238"/>
      </g>
      <g id="Grupo_129081" data-name="Grupo 129081">
        <path id="Trazado_168955" data-name="Trazado 168955" d="M241.862,192.208c-.014.01-.069-.03-.147-.1-.039-.037-.083-.081-.131-.131l-.073-.08-.039-.042-.021-.02-.011-.009-.006-.005,0,0h0l.041-.107a1.451,1.451,0,0,1,.589.066,1.5,1.5,0,0,1-.59.057c-.009.023.079-.2.042-.107h0l0,0,.006.005.012.01.023.021.038.046.071.087c.045.056.084.108.115.153C241.844,192.138,241.875,192.2,241.862,192.208Z" fill="#263238"/>
      </g>
      <g id="Grupo_129082" data-name="Grupo 129082">
        <path id="Trazado_168956" data-name="Trazado 168956" d="M242.639,194.319a8.64,8.64,0,0,1-.229-1.114,1.6,1.6,0,0,1,.229,1.114Z" fill="#263238"/>
      </g>
      <g id="Grupo_129083" data-name="Grupo 129083">
        <path id="Trazado_168957" data-name="Trazado 168957" d="M242.1,196.5a2.031,2.031,0,0,1,.2-.533,2.084,2.084,0,0,1,.234-.519,1.044,1.044,0,0,1-.121.565C242.288,196.315,242.125,196.522,242.1,196.5Z" fill="#263238"/>
      </g>
      <g id="Grupo_129084" data-name="Grupo 129084">
        <path id="Trazado_168958" data-name="Trazado 168958" d="M240.433,198.019c-.014-.032.205-.16.461-.333s.459-.327.483-.3-.147.224-.414.4A1.052,1.052,0,0,1,240.433,198.019Z" fill="#263238"/>
      </g>
      <g id="Grupo_129085" data-name="Grupo 129085">
        <path id="Trazado_168959" data-name="Trazado 168959" d="M238.207,198.352a1.4,1.4,0,0,1,.569-.021,1.362,1.362,0,0,1,.569.02,1.373,1.373,0,0,1-.569.1A1.35,1.35,0,0,1,238.207,198.352Z" fill="#263238"/>
      </g>
      <g id="Grupo_129086" data-name="Grupo 129086">
        <path id="Trazado_168960" data-name="Trazado 168960" d="M236.171,197.391c.024-.025.226.129.484.3s.477.3.462.332a1.024,1.024,0,0,1-.53-.23C236.319,197.615,236.148,197.415,236.171,197.391Z" fill="#263238"/>
      </g>
      <g id="Grupo_129087" data-name="Grupo 129087">
        <path id="Trazado_168961" data-name="Trazado 168961" d="M235.013,195.462a2.069,2.069,0,0,1,.235.518,2.114,2.114,0,0,1,.2.533c-.028.018-.191-.189-.314-.486A1.038,1.038,0,0,1,235.013,195.462Z" fill="#263238"/>
      </g>
      <g id="Grupo_129088" data-name="Grupo 129088">
        <path id="Trazado_168962" data-name="Trazado 168962" d="M235.123,193.213a2.073,2.073,0,0,1-.091.562,2.044,2.044,0,0,1-.13.554,1.616,1.616,0,0,1,.221-1.116Z" fill="#263238"/>
      </g>
      <g id="Grupo_129089" data-name="Grupo 129089">
        <path id="Trazado_168963" data-name="Trazado 168963" d="M235.455,191.768a1.469,1.469,0,0,1,.589-.061c.02.046-.043-.1.044.1h0l0,0,0,.005-.011.011-.021.021c-.014.014-.028.027-.04.041l-.073.081c-.047.051-.091.1-.129.133-.077.073-.132.114-.145.1s.016-.07.077-.159c.031-.045.069-.1.113-.154l.07-.088a.549.549,0,0,1,.04-.044l.021-.021.01-.011.006-.006,0,0,0,0h0a.992.992,0,1,1,.043.1A1.459,1.459,0,0,1,235.455,191.768Z" fill="#263238"/>
      </g>
      <g id="Grupo_129090" data-name="Grupo 129090">
        <path id="Trazado_168964" data-name="Trazado 168964" d="M233.411,191.768c0-.034.132-.061.294-.061s.295.027.295.061-.132.062-.295.062S233.411,191.8,233.411,191.768Z" fill="#263238"/>
      </g>
    </g>
    <g id="Grupo_129092" data-name="Grupo 129092" transform="translate(862.515 70.663)">
      <path id="Trazado_168965" data-name="Trazado 168965" d="M250.225,219.411s-.058.005-.169.007l-.494.007-1.889.013-6.852.022h-.043l-.006-.045c-.24-1.93-.523-4.12-.882-6.478a6.941,6.941,0,0,0-1.5-3.309,37.9,37.9,0,0,0-2.467-3.035c-1.158-1.31-2.333-2.546-3.443-3.754-.554-.605-1.1-1.2-1.59-1.814a8.729,8.729,0,0,1-.669-.958c-.2-.327-.387-.658-.562-.987a25.071,25.071,0,0,1-1.626-3.863,25.632,25.632,0,0,1-.878-3.441l-.009-.049h.049l4.438.019,1.189.011.307,0c.069,0,.1.006.1.006s-.036,0-.1.006l-.307.006-1.189.01-4.438.019.04-.048a25.976,25.976,0,0,0,.891,3.425,25.2,25.2,0,0,0,1.632,3.841c.175.327.359.656.561.98a8.555,8.555,0,0,0,.662.945c.492.608,1.034,1.2,1.588,1.806,1.11,1.205,2.286,2.441,3.446,3.753a37.659,37.659,0,0,1,2.473,3.047,12.915,12.915,0,0,1,.995,1.608,5.455,5.455,0,0,1,.351.859,6.254,6.254,0,0,1,.172.894c.355,2.362.631,4.549.865,6.487l-.049-.044,6.852.021,1.889.013.494.007C250.167,219.406,250.225,219.411,250.225,219.411Z" fill="#263238"/>
    </g>
    <g id="Grupo_129107" data-name="Grupo 129107" transform="translate(862.515 70.663)">
      <g id="Grupo_129093" data-name="Grupo 129093">
        <path id="Trazado_168966" data-name="Trazado 168966" d="M249.6,219.411c0-.034.132-.062.294-.062s.295.028.295.062-.132.061-.295.061S249.6,219.445,249.6,219.411Z" fill="#263238"/>
      </g>
      <g id="Grupo_129094" data-name="Grupo 129094">
        <path id="Trazado_168967" data-name="Trazado 168967" d="M247.255,219.411a2.815,2.815,0,0,1,1.175,0,2.859,2.859,0,0,1-1.175,0Z" fill="#263238"/>
      </g>
      <g id="Grupo_129095" data-name="Grupo 129095">
        <path id="Trazado_168968" data-name="Trazado 168968" d="M244.9,219.411a2.815,2.815,0,0,1,1.175,0,2.859,2.859,0,0,1-1.175,0Z" fill="#263238"/>
      </g>
      <g id="Grupo_129096" data-name="Grupo 129096">
        <path id="Trazado_168969" data-name="Trazado 168969" d="M242.555,219.411a2.815,2.815,0,0,1,1.175,0,2.859,2.859,0,0,1-1.175,0Z" fill="#263238"/>
      </g>
      <g id="Grupo_129097" data-name="Grupo 129097">
        <path id="Trazado_168970" data-name="Trazado 168970" d="M240.719,218.826c.017,0,.04.062.064.166.012.053.024.116.036.186l.017.109.008.058,0,.03,0,.015v.014h0l-.061-.056h0a1.459,1.459,0,0,1,.589.062,1.469,1.469,0,0,1-.589.061h0c.008-.123-.08-.027-.062-.056h0V219.4l0-.014,0-.03-.006-.058-.01-.11c0-.07-.008-.133-.009-.187C240.7,218.9,240.7,218.828,240.719,218.826Z" fill="#263238"/>
      </g>
      <g id="Grupo_129098" data-name="Grupo 129098">
        <path id="Trazado_168971" data-name="Trazado 168971" d="M240.408,216.4a1.582,1.582,0,0,1,.14.6,1.562,1.562,0,0,1,.018.615,1.6,1.6,0,0,1-.14-.6A1.562,1.562,0,0,1,240.408,216.4Z" fill="#263238"/>
      </g>
      <g id="Grupo_129099" data-name="Grupo 129099">
        <path id="Trazado_168972" data-name="Trazado 168972" d="M240.073,213.973a1.588,1.588,0,0,1,.146.6,1.556,1.556,0,0,1,.025.615,3.093,3.093,0,0,1-.171-1.212Z" fill="#263238"/>
      </g>
      <g id="Grupo_129100" data-name="Grupo 129100">
        <path id="Trazado_168973" data-name="Trazado 168973" d="M239.581,211.583a1.187,1.187,0,0,1,.261.561,1.291,1.291,0,0,1,.05.618,2.072,2.072,0,0,1-.169-.586A2.416,2.416,0,0,1,239.581,211.583Z" fill="#263238"/>
      </g>
      <g id="Grupo_129101" data-name="Grupo 129101">
        <path id="Trazado_168974" data-name="Trazado 168974" d="M238.331,209.484c.027-.02.2.192.391.474a1.567,1.567,0,0,1,.29.543c-.029.017-.2-.2-.392-.475A1.571,1.571,0,0,1,238.331,209.484Z" fill="#263238"/>
      </g>
      <g id="Grupo_129102" data-name="Grupo 129102">
        <path id="Trazado_168975" data-name="Trazado 168975" d="M236.813,207.562c.026-.022.221.172.436.434a1.567,1.567,0,0,1,.341.512c-.026.021-.222-.173-.436-.434A1.606,1.606,0,0,1,236.813,207.562Z" fill="#263238"/>
      </g>
      <g id="Grupo_129103" data-name="Grupo 129103">
        <path id="Trazado_168976" data-name="Trazado 168976" d="M235.2,205.725c.025-.023.228.163.454.415s.388.474.362.5-.228-.164-.454-.416A1.586,1.586,0,0,1,235.2,205.725Z" fill="#263238"/>
      </g>
      <g id="Grupo_129104" data-name="Grupo 129104">
        <path id="Trazado_168977" data-name="Trazado 168977" d="M233.537,203.924c.024-.023.231.16.461.407s.4.468.371.491-.231-.159-.461-.407S233.512,203.947,233.537,203.924Z" fill="#263238"/>
      </g>
      <g id="Grupo_129105" data-name="Grupo 129105">
        <path id="Trazado_168978" data-name="Trazado 168978" d="M231.878,202.122c.025-.022.231.162.458.411a1.588,1.588,0,0,1,.368.494c-.025.023-.23-.161-.458-.411S231.853,202.145,231.878,202.122Z" fill="#263238"/>
      </g>
      <g id="Grupo_129106" data-name="Grupo 129106">
        <path id="Trazado_168979" data-name="Trazado 168979" d="M230.706,200.734c.027-.02.131.066.231.192s.162.247.136.269-.13-.065-.232-.193S230.679,200.754,230.706,200.734Z" fill="#263238"/>
      </g>
    </g>
    <g id="Grupo_129126" data-name="Grupo 129126" transform="translate(862.515 70.663)">
      <g id="Grupo_129112" data-name="Grupo 129112">
        <g id="Grupo_129110" data-name="Grupo 129110">
          <path id="Trazado_168980" data-name="Trazado 168980" d="M275.9,456.387l15.006,5.264-.161,14.431c-7.184,2.026-8.189,5.66-8.189,5.66l15.016-.344,13.065-26.569L300.3,448.067l-19.321-8.452" fill="#ff9500"/>
        </g>
        <g id="Grupo_129111" data-name="Grupo 129111" opacity="0.6">
          <path id="Trazado_168981" data-name="Trazado 168981" d="M310.634,454.829,297.569,481.4l-15.016.344,1.641-2.3,12.2-.95,12.047-25.105Z" fill="#fff"/>
        </g>
      </g>
      <g id="Grupo_129114" data-name="Grupo 129114">
        <g id="Grupo_129113" data-name="Grupo 129113">
          <path id="Trazado_168982" data-name="Trazado 168982" d="M290.69,469.473c.115.151.97-.36,2.132-.353,1.162-.027,2.025.47,2.137.317.139-.116-.728-1-2.143-.978S290.55,469.359,290.69,469.473Z" fill="#263238"/>
        </g>
      </g>
      <g id="Grupo_129116" data-name="Grupo 129116">
        <g id="Grupo_129115" data-name="Grupo 129115">
          <path id="Trazado_168983" data-name="Trazado 168983" d="M290.852,465.891c.153.1.8-.8,1.994-1.059s2.161.267,2.255.108c.05-.068-.129-.316-.556-.537a2.812,2.812,0,0,0-3.419.765C290.834,465.55,290.778,465.85,290.852,465.891Z" fill="#263238"/>
        </g>
      </g>
      <g id="Grupo_129118" data-name="Grupo 129118">
        <g id="Grupo_129117" data-name="Grupo 129117">
          <path id="Trazado_168984" data-name="Trazado 168984" d="M290.652,461.3c.166.079.658-.8,1.7-1.186s1.985-.065,2.057-.235c.038-.076-.156-.281-.576-.427A2.605,2.605,0,0,0,290.8,460.6C290.582,460.985,290.572,461.268,290.652,461.3Z" fill="#263238"/>
        </g>
      </g>
      <g id="Grupo_129120" data-name="Grupo 129120">
        <g id="Grupo_129119" data-name="Grupo 129119">
          <path id="Trazado_168985" data-name="Trazado 168985" d="M289.547,461.29c.184-.045.071-.991.521-2.006.422-1.029,1.183-1.6,1.089-1.765-.053-.173-1.167.249-1.7,1.506S289.386,461.372,289.547,461.29Z" fill="#263238"/>
        </g>
      </g>
      <g id="Grupo_129122" data-name="Grupo 129122">
        <g id="Grupo_129121" data-name="Grupo 129121">
          <path id="Trazado_168986" data-name="Trazado 168986" d="M287.77,459.6a6.385,6.385,0,0,0,.353-2.016c.067-.723.133-1.452.2-2.2a4.766,4.766,0,0,0,0-1.4,1.209,1.209,0,0,0-.534-.745.937.937,0,0,0-1.022.04,2.788,2.788,0,0,0-.853,1.33,5.017,5.017,0,0,0,.125,3.631c.535,1.225,1.289,1.665,1.317,1.609a16.4,16.4,0,0,1-.88-1.774,5.18,5.18,0,0,1-.227-2.061,4.817,4.817,0,0,1,.272-1.182,2.389,2.389,0,0,1,.617-1.006.269.269,0,0,1,.314-.023.575.575,0,0,1,.246.349,4.9,4.9,0,0,1,.018,1.2c-.02.749-.04,1.481-.06,2.207A6.4,6.4,0,0,0,287.77,459.6Z" fill="#263238"/>
        </g>
      </g>
      <g id="Grupo_129124" data-name="Grupo 129124">
        <g id="Grupo_129123" data-name="Grupo 129123">
          <path id="Trazado_168987" data-name="Trazado 168987" d="M287.526,460.253c.059-.039-.383-.695-1.539-1.073a3.753,3.753,0,0,0-4.261,1.521.7.7,0,0,0,.065.582.835.835,0,0,0,.394.322,2.316,2.316,0,0,0,.7.142,6.74,6.74,0,0,0,1.223,0,6.467,6.467,0,0,0,1.987-.506c1.076-.472,1.573-1.018,1.524-1.075-.061-.087-.644.308-1.687.638a7.405,7.405,0,0,1-1.868.336,7,7,0,0,1-1.113-.034,1.87,1.87,0,0,1-.506-.1c-.129-.078-.094-.054-.092-.1a1.154,1.154,0,0,1,.3-.357,3.419,3.419,0,0,1,.44-.353,3.71,3.71,0,0,1,.963-.465,3.666,3.666,0,0,1,1.816-.1A14.291,14.291,0,0,1,287.526,460.253Z" fill="#263238"/>
        </g>
      </g>
      <g id="Grupo_129125" data-name="Grupo 129125" opacity="0.6">
        <path id="Trazado_168988" data-name="Trazado 168988" d="M298.645,454.642a1.782,1.782,0,1,0,1.743-1.821A1.782,1.782,0,0,0,298.645,454.642Z" fill="#fff"/>
      </g>
    </g>
    <g id="Grupo_129140" data-name="Grupo 129140" transform="translate(862.515 70.663)">
      <g id="Grupo_129128" data-name="Grupo 129128">
        <path id="Trazado_168989" data-name="Trazado 168989" d="M198.894,450.351l.2,19.662s-19.916,6.81-20.232,10.447l38.136.974.94-30.648Z" fill="#ff9500"/>
      </g>
      <g id="Grupo_129130" data-name="Grupo 129130" opacity="0.6">
        <g id="Grupo_129129" data-name="Grupo 129129">
          <path id="Trazado_168990" data-name="Trazado 168990" d="M210.932,468.662a1.557,1.557,0,0,1,1.032,1.8,1.5,1.5,0,0,1-1.78,1.039,1.644,1.644,0,0,1-1.083-1.917,1.554,1.554,0,0,1,1.972-.875" fill="#fff"/>
        </g>
      </g>
      <g id="Grupo_129131" data-name="Grupo 129131" opacity="0.6">
        <path id="Trazado_168991" data-name="Trazado 168991" d="M217,481.434l-.026-3.092-36.555.222s-1.716.7-1.555,1.9Z" fill="#fff"/>
      </g>
      <g id="Grupo_129133" data-name="Grupo 129133">
        <g id="Grupo_129132" data-name="Grupo 129132">
          <path id="Trazado_168992" data-name="Trazado 168992" d="M198.484,469.8c0,.186.931.295,1.832.917.917.6,1.369,1.417,1.542,1.348.172-.032-.077-1.152-1.181-1.887S198.448,469.631,198.484,469.8Z" fill="#263238"/>
        </g>
      </g>
      <g id="Grupo_129135" data-name="Grupo 129135">
        <g id="Grupo_129134" data-name="Grupo 129134">
          <path id="Trazado_168993" data-name="Trazado 168993" d="M194.442,471.355c-.047.179.751.517,1.364,1.321.636.785.773,1.641.959,1.638.174.033.331-1.054-.449-2.039S194.451,471.178,194.442,471.355Z" fill="#263238"/>
        </g>
      </g>
      <g id="Grupo_129137" data-name="Grupo 129137">
        <g id="Grupo_129136" data-name="Grupo 129136">
          <path id="Trazado_168994" data-name="Trazado 168994" d="M192.048,476.085c.168.044.451-.88,0-1.912s-1.313-1.46-1.4-1.307c-.11.15.442.712.8,1.565C191.83,475.275,191.863,476.061,192.048,476.085Z" fill="#263238"/>
        </g>
      </g>
      <g id="Grupo_129139" data-name="Grupo 129139">
        <g id="Grupo_129138" data-name="Grupo 129138">
          <path id="Trazado_168995" data-name="Trazado 168995" d="M198.935,465.317c.074.172.935-.063,1.985.035,1.053.077,1.863.451,1.964.294.111-.132-.671-.842-1.91-.94S198.847,465.168,198.935,465.317Z" fill="#263238"/>
        </g>
      </g>
    </g>
    <g id="Grupo_129141" data-name="Grupo 129141" transform="translate(862.515 70.663)" opacity="0.3">
      <path id="Trazado_168996" data-name="Trazado 168996" d="M198.939,454.245l.032,3.5,18.748.308.1-3.154Z"/>
    </g>
    <g id="Grupo_129143" data-name="Grupo 129143" transform="translate(862.515 70.663)">
      <g id="Grupo_129142" data-name="Grupo 129142">
        <path id="Trazado_168997" data-name="Trazado 168997" d="M198.967,461.35a3.59,3.59,0,0,0,1.91.039,8.638,8.638,0,0,0,2.014-.563,8.985,8.985,0,0,0,1.112-.554,2.335,2.335,0,0,0,.588-.435.813.813,0,0,0,.111-.988,1.025,1.025,0,0,0-.8-.447,2.506,2.506,0,0,0-.719.081,6.881,6.881,0,0,0-1.2.377,6.75,6.75,0,0,0-1.791,1.111c-.9.8-1.225,1.485-1.162,1.522.082.064.528-.508,1.446-1.161a7.614,7.614,0,0,1,1.728-.917,7.11,7.11,0,0,1,1.1-.31c.406-.1.75-.09.849.093.036.069.04.1-.047.212a1.935,1.935,0,0,1-.433.318,10.082,10.082,0,0,1-1.024.551,10.523,10.523,0,0,1-1.864.66A13.121,13.121,0,0,0,198.967,461.35Z" fill="#263238"/>
      </g>
    </g>
    <g id="Grupo_129145" data-name="Grupo 129145" transform="translate(862.515 70.663)">
      <g id="Grupo_129144" data-name="Grupo 129144">
        <path id="Trazado_168998" data-name="Trazado 168998" d="M199.2,461.623a3.055,3.055,0,0,0,.551-1.832,6.178,6.178,0,0,0-.664-3.27,1.58,1.58,0,0,0-1.194-.995.892.892,0,0,0-.811.512,2.547,2.547,0,0,0-.214.7,4.209,4.209,0,0,0-.034,1.287,4.389,4.389,0,0,0,.765,1.993c.72,1.008,1.491,1.25,1.509,1.187.064-.092-.576-.468-1.122-1.432a4.4,4.4,0,0,1-.558-1.81,3.9,3.9,0,0,1,.063-1.1c.07-.4.231-.727.381-.681.19,0,.5.315.652.642a6.366,6.366,0,0,1,.447,1.048,6.854,6.854,0,0,1,.321,1.915C199.319,460.9,199.1,461.592,199.2,461.623Z" fill="#263238"/>
      </g>
    </g>
    <g id="Grupo_129153" data-name="Grupo 129153" transform="translate(862.515 70.663)">
      <g id="Grupo_129147" data-name="Grupo 129147">
        <path id="Trazado_168999" data-name="Trazado 168999" d="M287.546,440.332,243.632,424l46.166-6.48,2.324-22.49-86.331,7.534L193.6,420.115l3.211,22.024,84.11,21.383Z" fill="#263238"/>
      </g>
      <g id="Grupo_129148" data-name="Grupo 129148">
        <path id="Trazado_169000" data-name="Trazado 169000" d="M194.435,456.071,190.23,375.7a22.606,22.606,0,0,1,11.27-18.9h0a22.6,22.6,0,0,1,18.476-1.881l56.012,18.674,30.742,7.9s5.236,12.918,2.158,22.954c-3.013,9.824-13.779,16.359-23.253,13.551-11.765-3.488-65.783-26.717-65.783-26.717v65.447Z" fill="#263238"/>
      </g>
      <g id="Grupo_129150" data-name="Grupo 129150">
        <g id="Grupo_129149" data-name="Grupo 129149">
          <path id="Trazado_169001" data-name="Trazado 169001" d="M284.822,418.21a1.753,1.753,0,0,1-.334-.11l-.961-.37-3.673-1.47-13.472-5.495-44.371-18.311-2.258-.936.359-.24c-.031,18.184-.059,34.533-.079,46.373-.034,5.882-.062,10.642-.082,13.966-.02,1.621-.036,2.891-.048,3.789-.01.41-.018.735-.025.984a1.584,1.584,0,0,1-.026.335,1.674,1.674,0,0,1-.026-.335c-.006-.249-.015-.574-.025-.984-.012-.9-.028-2.168-.048-3.789-.02-3.324-.047-8.084-.082-13.966-.02-11.84-.048-28.189-.079-46.373v-.39l.361.149,2.258.936,44.313,18.452,13.409,5.648,3.636,1.56.94.418A1.729,1.729,0,0,1,284.822,418.21Z" fill="#455a64"/>
        </g>
      </g>
      <g id="Grupo_129152" data-name="Grupo 129152">
        <g id="Grupo_129151" data-name="Grupo 129151">
          <path id="Trazado_169002" data-name="Trazado 169002" d="M233.091,418.3a18.389,18.389,0,0,1,10.527,5.831c-.108.119-2.1-1.743-5.025-3.346C235.686,419.161,233.047,418.457,233.091,418.3Z" fill="#455a64"/>
        </g>
      </g>
    </g>
    <g id="Grupo_129155" data-name="Grupo 129155" transform="translate(862.515 70.663)">
      <g id="Grupo_129154" data-name="Grupo 129154">
        <path id="Trazado_169003" data-name="Trazado 169003" d="M214.98,380.4a40.119,40.119,0,0,1,5.05,11.264c-.141.05-1.17-2.512-2.565-5.614S214.848,380.476,214.98,380.4Z" fill="#455a64"/>
      </g>
    </g>
    <path id="Trazado_169004" data-name="Trazado 169004" d="M215.1,344.987l-9.905-1.852-10.407,10.615,1.92,6.762,12.133-4.468Z" transform="translate(862.515 70.663)" fill="#ffbe9d"/>
    <g id="Grupo_129157" data-name="Grupo 129157" transform="translate(862.515 70.663)">
      <path id="Trazado_169005" data-name="Trazado 169005" d="M178.481,227.158l-2.68.226s-4.828.79-4.828.9-2.12,3.07-2.126,3.079l-1.943,3.005a2.8,2.8,0,0,0,2.715-.5l-.678,1.51a3.011,3.011,0,0,0,3.729-1.448,35.1,35.1,0,0,1,2.1-2.99l.879-.08c.072.181,3.462,4.959,3.535,4.85s2.885-2.826,2.885-2.826Z" fill="#eb996e"/>
    </g>
    <g id="Grupo_129158" data-name="Grupo 129158" transform="translate(862.515 70.663)">
      <path id="Trazado_169006" data-name="Trazado 169006" d="M185.669,247.981l.792-14.838-7.518-8.52-8.269.5-3.384,2.36c.174.819,2.519,1.38,5.049.647a12.765,12.765,0,0,1,5.206-.175l3.185,5.55-2.1,2.321,2.7,14.231Z" fill="#ffbe9d"/>
    </g>
    <g id="Grupo_129159" data-name="Grupo 129159" transform="translate(862.515 70.663)">
      <path id="Trazado_169007" data-name="Trazado 169007" d="M163.723,228.431H190.6a1.228,1.228,0,0,1,1.228,1.228h0a1.228,1.228,0,0,1-1.228,1.229H163.723l-2.636-1.229Z" fill="#263238"/>
    </g>
    <g id="Grupo_129160" data-name="Grupo 129160" transform="translate(862.515 70.663)">
      <path id="Trazado_169008" data-name="Trazado 169008" d="M177.329,251.969l-2.737-6.734a6.326,6.326,0,0,1-.462-2.7c.118-2.419.3-7.277-.073-8.395-.5-1.5-2.506-6.641-1.379-7.392s2.69-1,3.788,2,4.482,9.523,4.482,9.523l2.561,10.734Z" fill="#ffbe9d"/>
    </g>
    <g id="Grupo_129162" data-name="Grupo 129162" transform="translate(862.515 70.663)">
      <g id="Grupo_129161" data-name="Grupo 129161">
        <path id="Trazado_169009" data-name="Trazado 169009" d="M180.607,237.617a20.3,20.3,0,0,1-1.556-2.874c-.9-1.781-2.121-4.372-3.424-7.052a1.977,1.977,0,0,0-1.589-1.037,1.446,1.446,0,0,0-1.337,1,3.843,3.843,0,0,0,.053,1.76c.107.576.232,1.108.36,1.591.524,1.929,1.074,3.056,1,3.092a2.541,2.541,0,0,1-.457-.756,15.63,15.63,0,0,1-.892-2.233c-.154-.485-.3-1.023-.43-1.608a4.13,4.13,0,0,1-.09-1.984,1.929,1.929,0,0,1,1.784-1.37,2.461,2.461,0,0,1,2.04,1.265c1.388,2.842,2.487,5.321,3.319,7.177A20.334,20.334,0,0,1,180.607,237.617Z" fill="#eb996e"/>
      </g>
    </g>
    <g id="Grupo_129164" data-name="Grupo 129164" transform="translate(862.515 70.663)">
      <path id="Trazado_169010" data-name="Trazado 169010" d="M305.875,381.305l-2.74-4.809-29.312-7.337,3.452,5.961Z" fill="#ffbe9d"/>
    </g>
    <g id="Grupo_129165" data-name="Grupo 129165" transform="translate(862.515 70.663)">
      <path id="Trazado_169011" data-name="Trazado 169011" d="M174.776,251.969l18.451,43.716a16.984,16.984,0,0,0,9.193,9.1l39.809,16.346,9.267-25.644L212.73,281.765l-25.181-35.9Z" fill="#ff9500"/>
    </g>
    <g id="Grupo_129166" data-name="Grupo 129166" transform="translate(862.515 70.663)">
      <path id="Trazado_169012" data-name="Trazado 169012" d="M234.718,295.924c.041,1.025-4.3,32.836-4.3,39.334s12.445,13.553,12.445,13.553l13.627,28.933h48.534L288.43,346.589l-7.5-24.956a58.786,58.786,0,0,0-15.063-24.976l-8.1-5.423Z" fill="#ff9500"/>
    </g>
    <g id="Grupo_129167" data-name="Grupo 129167" transform="translate(862.515 70.663)">
      <path id="Trazado_169013" data-name="Trazado 169013" d="M248.814,321.044l8.152,34.2-41.112-11.584-7.009,12.383,53.495,24.364a15.037,15.037,0,0,0,18.541-5.046h0A15.037,15.037,0,0,0,283.14,363l-11.978-46.8a11.441,11.441,0,0,0-14.728-8.008h0A11.441,11.441,0,0,0,248.814,321.044Z" fill="#ff9500"/>
    </g>
    <g id="Grupo_129169" data-name="Grupo 129169" transform="translate(862.515 70.663)">
      <g id="Grupo_129168" data-name="Grupo 129168">
        <path id="Trazado_169014" data-name="Trazado 169014" d="M242.861,348.811a2,2,0,0,1-.473-.2c-.3-.147-.741-.378-1.3-.692a37.7,37.7,0,0,1-4.509-2.99,18.384,18.384,0,0,1-5.306-6.03c-1.317-2.846-1.224-6.348-.743-9.775.5-3.462,1.208-6.685,1.626-9.665.456-2.971.771-5.66.938-7.925s.2-4.105.2-5.375-.041-1.975,0-1.978a1.864,1.864,0,0,1,.084.507c.041.333.081.827.116,1.465a49.757,49.757,0,0,1-.032,5.4c-.12,2.28-.4,4.986-.83,7.972-.393,2.989-1.1,6.244-1.585,9.664-.479,3.4-.565,6.8.662,9.5a18.481,18.481,0,0,0,5.1,5.945,45.527,45.527,0,0,0,4.383,3.1A19.741,19.741,0,0,1,242.861,348.811Z" fill="#263238"/>
      </g>
    </g>
    <g id="Grupo_129171" data-name="Grupo 129171" transform="translate(862.515 70.663)">
      <g id="Grupo_129170" data-name="Grupo 129170">
        <path id="Trazado_169015" data-name="Trazado 169015" d="M265.527,311.965a16.994,16.994,0,0,0-11.2-.758,11.426,11.426,0,0,1,11.2.758Z" fill="#263238"/>
      </g>
    </g>
    <g id="Grupo_129173" data-name="Grupo 129173" transform="translate(862.515 70.663)">
      <g id="Grupo_129172" data-name="Grupo 129172">
        <path id="Trazado_169016" data-name="Trazado 169016" d="M259.971,293.519a4.627,4.627,0,0,1-.742.829c-.5.511-1.243,1.23-2.178,2.1-1.867,1.744-4.518,4.078-7.56,6.518s-5.9,4.518-8.009,5.96c-1.054.722-1.917,1.291-2.525,1.667a4.659,4.659,0,0,1-.971.544,4.569,4.569,0,0,1,.856-.711l2.426-1.8c2.05-1.516,4.862-3.635,7.9-6.067s5.714-4.715,7.64-6.385l2.286-1.975A4.589,4.589,0,0,1,259.971,293.519Z" fill="#263238"/>
      </g>
    </g>
    <g id="Grupo_129175" data-name="Grupo 129175" transform="translate(862.515 70.663)">
      <g id="Grupo_129174" data-name="Grupo 129174">
        <path id="Trazado_169017" data-name="Trazado 169017" d="M212.716,281.862c.053.143-1.438.776-3.09,1.864s-2.837,2.189-2.948,2.083a10.312,10.312,0,0,1,6.038-3.947Z" fill="#263238"/>
      </g>
    </g>
    <g id="Grupo_129210" data-name="Grupo 129210" transform="translate(862.515 70.663)">
      <g id="Grupo_129177" data-name="Grupo 129177">
        <g id="Grupo_129176" data-name="Grupo 129176">
          <path id="Trazado_169018" data-name="Trazado 169018" d="M252.748,336.542a3.243,3.243,0,0,1-.894.287,17.261,17.261,0,0,1-2.521.441,23.258,23.258,0,0,1-3.8.1,24.463,24.463,0,0,1-9-2.256,23.286,23.286,0,0,1-3.3-1.884,17.37,17.37,0,0,1-2.015-1.578c-.444-.41-.677-.649-.653-.676.062-.072,1.063.81,2.87,1.946A26.486,26.486,0,0,0,249.3,336.9C251.429,336.754,252.728,336.448,252.748,336.542Z" fill="#fafafa"/>
        </g>
      </g>
      <g id="Grupo_129179" data-name="Grupo 129179">
        <g id="Grupo_129178" data-name="Grupo 129178">
          <path id="Trazado_169019" data-name="Trazado 169019" d="M255.534,351.578a5.134,5.134,0,0,1-1.844.336,16.887,16.887,0,0,1-8.787-1.79,5.134,5.134,0,0,1-1.565-1.03,38.143,38.143,0,0,0,5.942,2.009A38.131,38.131,0,0,0,255.534,351.578Z" fill="#fafafa"/>
        </g>
      </g>
      <g id="Grupo_129181" data-name="Grupo 129181">
        <g id="Grupo_129180" data-name="Grupo 129180">
          <path id="Trazado_169020" data-name="Trazado 169020" d="M276.79,342.235a2.983,2.983,0,0,1-.763.459,23.03,23.03,0,0,1-2.208.991,33.795,33.795,0,0,1-15.7,2.174,23.029,23.029,0,0,1-2.394-.355,2.947,2.947,0,0,1-.859-.234c.015-.085,1.26.1,3.282.222a39.806,39.806,0,0,0,15.549-2.152C275.6,342.676,276.753,342.157,276.79,342.235Z" fill="#fafafa"/>
        </g>
      </g>
      <g id="Grupo_129183" data-name="Grupo 129183">
        <g id="Grupo_129182" data-name="Grupo 129182">
          <path id="Trazado_169021" data-name="Trazado 169021" d="M273.005,325.486c-.017.081-1.273-.154-3.314-.4a51.105,51.105,0,0,0-15.969.576c-2.019.389-3.254.714-3.277.634a3.011,3.011,0,0,1,.837-.336c.548-.189,1.355-.416,2.362-.658a41.662,41.662,0,0,1,16.1-.581c1.022.169,1.844.338,2.4.487A3.023,3.023,0,0,1,273.005,325.486Z" fill="#fafafa"/>
        </g>
      </g>
      <g id="Grupo_129185" data-name="Grupo 129185">
        <g id="Grupo_129184" data-name="Grupo 129184">
          <path id="Trazado_169022" data-name="Trazado 169022" d="M281.468,372.284a5.193,5.193,0,0,1-1.168-.231,29.738,29.738,0,0,1-3.1-.958,40.844,40.844,0,0,1-17.359-12.19,29.811,29.811,0,0,1-1.954-2.59,5.292,5.292,0,0,1-.614-1.02c.077-.055,1.045,1.334,2.847,3.37a45.313,45.313,0,0,0,17.211,12.085C279.858,371.755,281.493,372.194,281.468,372.284Z" fill="#fafafa"/>
        </g>
      </g>
      <g id="Grupo_129187" data-name="Grupo 129187">
        <g id="Grupo_129186" data-name="Grupo 129186">
          <path id="Trazado_169023" data-name="Trazado 169023" d="M244.6,371.765a11.09,11.09,0,0,1-.122-2.845,31.654,31.654,0,0,1,3.468-13.228,11.048,11.048,0,0,1,1.5-2.419,25.3,25.3,0,0,1-1.171,2.58,39.244,39.244,0,0,0-3.431,13.089A25.219,25.219,0,0,1,244.6,371.765Z" fill="#fafafa"/>
        </g>
      </g>
      <g id="Grupo_129189" data-name="Grupo 129189">
        <g id="Grupo_129188" data-name="Grupo 129188">
          <path id="Trazado_169024" data-name="Trazado 169024" d="M219.852,360.513a8.114,8.114,0,0,1,.022-2.395,13.565,13.565,0,0,1,1.774-5.513,17.756,17.756,0,0,1,3.863-4.314,9.209,9.209,0,0,1,1.944-1.391,13.2,13.2,0,0,1-1.7,1.666,21.332,21.332,0,0,0-3.66,4.306,15.292,15.292,0,0,0-1.857,5.3A16.7,16.7,0,0,1,219.852,360.513Z" fill="#fafafa"/>
        </g>
      </g>
      <g id="Grupo_129191" data-name="Grupo 129191">
        <g id="Grupo_129190" data-name="Grupo 129190">
          <path id="Trazado_169025" data-name="Trazado 169025" d="M301.8,371.512a15.454,15.454,0,0,1-2.889,1.274,53.958,53.958,0,0,1-7.3,2.192,31.214,31.214,0,0,1-7.591.826,12.46,12.46,0,0,1-1.32-.088,7.6,7.6,0,0,1-.988-.138,2.7,2.7,0,0,1-.825-.215c.016-.092,1.2.106,3.136.073a37.852,37.852,0,0,0,7.476-.967c2.883-.642,5.447-1.429,7.292-2.03A24.54,24.54,0,0,1,301.8,371.512Z" fill="#fafafa"/>
        </g>
      </g>
      <g id="Grupo_129193" data-name="Grupo 129193">
        <g id="Grupo_129192" data-name="Grupo 129192">
          <path id="Trazado_169026" data-name="Trazado 169026" d="M290.816,351.744c.056.025-.258.631-1.1,1.247a15,15,0,0,1-3.531,1.855,22.085,22.085,0,0,1-3.815,1.124,6.249,6.249,0,0,1-1.212.125c-.291.008-.467-.1-.443-.119.031-.037.6-.073,1.572-.365.963-.27,2.283-.7,3.708-1.25a21.733,21.733,0,0,0,3.511-1.673C290.361,352.177,290.745,351.7,290.816,351.744Z" fill="#fafafa"/>
        </g>
      </g>
      <g id="Grupo_129195" data-name="Grupo 129195">
        <g id="Grupo_129194" data-name="Grupo 129194">
          <path id="Trazado_169027" data-name="Trazado 169027" d="M283.944,331.665c.026-.005.016.17-.153.359a3.327,3.327,0,0,1-.8.651,15.952,15.952,0,0,1-3.021,1.409,17.482,17.482,0,0,1-3.215.869c-.849.145-1.408.031-1.393-.039s.512-.092,1.319-.322c.806-.21,1.91-.563,3.112-1a31.4,31.4,0,0,0,3.016-1.241,5.638,5.638,0,0,0,.844-.475C283.837,331.757,283.9,331.651,283.944,331.665Z" fill="#fafafa"/>
        </g>
      </g>
      <g id="Grupo_129197" data-name="Grupo 129197">
        <g id="Grupo_129196" data-name="Grupo 129196">
          <path id="Trazado_169028" data-name="Trazado 169028" d="M248.288,321.053a8.325,8.325,0,0,1-2.351.093,30.1,30.1,0,0,1-11-2.609,8.37,8.37,0,0,1-2.06-1.138c.07-.151,3.282,1.459,7.559,2.457C244.7,320.884,248.294,320.888,248.288,321.053Z" fill="#fafafa"/>
        </g>
      </g>
      <g id="Grupo_129199" data-name="Grupo 129199">
        <g id="Grupo_129198" data-name="Grupo 129198">
          <path id="Trazado_169029" data-name="Trazado 169029" d="M277.082,312.012c.1.142-1.338,1.114-3.285,1.885-1.933.809-3.641,1.119-3.669.948-.017-.115,1.56-.631,3.472-1.43C275.526,312.65,277.015,311.918,277.082,312.012Z" fill="#fafafa"/>
        </g>
      </g>
      <g id="Grupo_129201" data-name="Grupo 129201">
        <g id="Grupo_129200" data-name="Grupo 129200">
          <path id="Trazado_169030" data-name="Trazado 169030" d="M254.663,299.016a4.349,4.349,0,0,1,1.39,1.1,12.689,12.689,0,0,1,3.508,7.7,4.343,4.343,0,0,1-.079,1.774,17.187,17.187,0,0,0-4.819-10.575Z" fill="#fafafa"/>
        </g>
      </g>
      <g id="Grupo_129203" data-name="Grupo 129203">
        <g id="Grupo_129202" data-name="Grupo 129202">
          <path id="Trazado_169031" data-name="Trazado 169031" d="M223.153,313.231a3.548,3.548,0,0,1-.458-.942,16.167,16.167,0,0,1-.8-2.745,24.849,24.849,0,0,1,.069-9.4,49.667,49.667,0,0,1,2.723-8.993c.442-1.116.821-2.01,1.093-2.623a4.07,4.07,0,0,1,.474-.933,4.036,4.036,0,0,1-.285,1.006q-.389,1.113-.937,2.679a61.238,61.238,0,0,0-2.556,8.959,27.036,27.036,0,0,0-.219,9.233C222.645,311.826,223.245,313.2,223.153,313.231Z" fill="#fafafa"/>
        </g>
      </g>
      <g id="Grupo_129205" data-name="Grupo 129205">
        <g id="Grupo_129204" data-name="Grupo 129204">
          <path id="Trazado_169032" data-name="Trazado 169032" d="M199.635,303.615a3.84,3.84,0,0,1,.176-1.009,24.238,24.238,0,0,1,.789-2.672,34.229,34.229,0,0,1,10.413-14.944,24.191,24.191,0,0,1,2.234-1.666,3.928,3.928,0,0,1,.885-.514c.052.075-1.136.909-2.879,2.459a38.533,38.533,0,0,0-10.308,14.793C200.1,302.234,199.724,303.638,199.635,303.615Z" fill="#fafafa"/>
        </g>
      </g>
      <g id="Grupo_129207" data-name="Grupo 129207">
        <g id="Grupo_129206" data-name="Grupo 129206">
          <path id="Trazado_169033" data-name="Trazado 169033" d="M203.418,268.488c.005.094-1.139.146-2.9.646a27.088,27.088,0,0,0-6.5,2.9,30.719,30.719,0,0,0-5.643,4.356c-1.3,1.286-1.957,2.222-2.032,2.17-.03-.02.111-.269.394-.706a7.921,7.921,0,0,1,.559-.763,11.068,11.068,0,0,1,.813-.956,25.862,25.862,0,0,1,5.64-4.547,23.346,23.346,0,0,1,6.676-2.812,9.452,9.452,0,0,1,1.236-.228,6.662,6.662,0,0,1,.944-.092A2.386,2.386,0,0,1,203.418,268.488Z" fill="#fafafa"/>
        </g>
      </g>
      <g id="Grupo_129209" data-name="Grupo 129209">
        <g id="Grupo_129208" data-name="Grupo 129208">
          <path id="Trazado_169034" data-name="Trazado 169034" d="M194.089,254.854a25.328,25.328,0,0,0-16.474,4.166,8.29,8.29,0,0,1,2.03-1.581,20.24,20.24,0,0,1,11.907-3.01A8.283,8.283,0,0,1,194.089,254.854Z" fill="#fafafa"/>
        </g>
      </g>
    </g>
    <g id="Grupo_129212" data-name="Grupo 129212" transform="translate(862.515 70.663)">
      <g id="Grupo_129211" data-name="Grupo 129211">
        <path id="Trazado_169035" data-name="Trazado 169035" d="M248.814,321.044a3.894,3.894,0,0,1,.2.653c.124.475.289,1.108.5,1.907.427,1.713,1.028,4.129,1.777,7.134,1.485,6.131,3.55,14.659,5.921,24.45l.1.419-.417-.117-10.482-2.946-30.612-8.7.215-.088c-2.179,3.778-3.95,6.849-5.2,9.018q-.909,1.545-1.438,2.439l-.385.628a.917.917,0,0,1-.148.205.89.89,0,0,1,.1-.232l.34-.654q.493-.91,1.351-2.488c1.216-2.19,2.937-5.289,5.055-9.1l.071-.129.143.04,30.652,8.562L257.035,355l-.315.3c-2.3-9.808-4.3-18.35-5.744-24.491-.688-3.021-1.24-5.448-1.632-7.169-.174-.807-.312-1.448-.416-1.927A3.958,3.958,0,0,1,248.814,321.044Z" fill="#263238"/>
      </g>
    </g>
    <g id="Grupo_129214" data-name="Grupo 129214" transform="translate(862.515 70.663)">
      <g id="Grupo_129213" data-name="Grupo 129213">
        <path id="Trazado_169036" data-name="Trazado 169036" d="M271.343,318.915a2.808,2.808,0,0,1,.2.587c.124.444.281,1.01.476,1.707.408,1.554.969,3.691,1.656,6.3,1.363,5.392,3.22,12.732,5.271,20.842,1.007,4.079,1.993,7.949,2.824,11.5a27.112,27.112,0,0,1,.785,9.654,13.605,13.605,0,0,1-2.3,6.1,7.181,7.181,0,0,1-1.642,1.748,19.573,19.573,0,0,0,1.474-1.862,13.925,13.925,0,0,0,2.1-6.036,27.406,27.406,0,0,0-.887-9.5c-.881-3.535-1.847-7.41-2.861-11.481-1.994-8.124-3.8-15.477-5.124-20.879-.619-2.63-1.126-4.78-1.495-6.344-.156-.707-.282-1.281-.381-1.731A2.749,2.749,0,0,1,271.343,318.915Z" fill="#263238"/>
      </g>
    </g>
    <g id="Grupo_129216" data-name="Grupo 129216" transform="translate(862.515 70.663)" opacity="0.3">
      <g id="Grupo_129215" data-name="Grupo 129215">
        <path id="Trazado_169037" data-name="Trazado 169037" d="M278.8,377.744c6.02.554,9.513-2.879,10.157-7.576.355-2.587-.5-5.171-1.343-7.643-3.69-10.82-7.421-21.73-13.277-31.548,2.212,9.824,5.033,19.257,7.245,29.082a30.5,30.5,0,0,1,.934,8.366,15.064,15.064,0,0,1-3.716,9.319"/>
      </g>
    </g>
    <g id="Grupo_129218" data-name="Grupo 129218" transform="translate(862.515 70.663)">
      <path id="Trazado_169038" data-name="Trazado 169038" d="M256.654,289.152a12.243,12.243,0,0,0,15.555-9.3,7.194,7.194,0,0,0,6.207,1.648,11.842,11.842,0,0,0,5.788-3.124,14.449,14.449,0,0,0,4.859-10.86,10.586,10.586,0,0,0-6.57-9.516c-3.852-1.38-8.726.417-10.314,4.189-.715-2.143,1.123-5.036.684-7.251-.883-4.447-3.54-7.047-5.8-7.14" fill="#263238"/>
    </g>
    <g id="Grupo_129243" data-name="Grupo 129243" transform="translate(862.515 70.663)">
      <g id="Grupo_129232" data-name="Grupo 129232">
        <g id="Grupo_129231" data-name="Grupo 129231">
          <g id="Grupo_129219" data-name="Grupo 129219">
            <path id="Trazado_169039" data-name="Trazado 169039" d="M261.493,288c4.4-7.678,5.666-17.907,6.779-26.755.523-4.164,1.445-10.093-1.393-12.7-3.041-2.791-3.334-7.093-6.827-9.246s-8.232-2.331-11.527.133" fill="#263238"/>
          </g>
          <g id="Grupo_129230" data-name="Grupo 129230">
            <g id="Grupo_129227" data-name="Grupo 129227">
              <g id="Grupo_129225" data-name="Grupo 129225">
                <g id="Grupo_129224" data-name="Grupo 129224">
                  <g id="Grupo_129223" data-name="Grupo 129223">
                    <g id="Grupo_129222" data-name="Grupo 129222">
                      <g id="Grupo_129221" data-name="Grupo 129221">
                        <g id="Grupo_129220" data-name="Grupo 129220">
                          <path id="Trazado_169040" data-name="Trazado 169040" d="M238.6,303.282V291.234s-12.548-2.217-13.291-12.273-.483-33.278-.483-33.278h0a33.082,33.082,0,0,1,34.337,2.174l-.507,35.4.024,11.532L248.4,303.128l-9.8,7.722Z" fill="#ffbe9d"/>
                        </g>
                      </g>
                    </g>
                  </g>
                </g>
              </g>
              <g id="Grupo_129226" data-name="Grupo 129226">
                <path id="Trazado_169041" data-name="Trazado 169041" d="M234.99,266.652c1.675-2.155,4.407-3.019,6.657-1.521a5.959,5.959,0,0,1,1.909,7.3,7.5,7.5,0,0,1-4.772,3.745s4.518,8.242,7.393,10.427c3.424,2.6,5.033,3.883,9.258,4.386,4.153.494,3.652.537,6.058-2.992a13.818,13.818,0,0,0,2.348-8.173q.192-11.126.383-22.25a32.808,32.808,0,0,0-.514-7.981,10.751,10.751,0,0,0-4.1-6.589c-2.376-1.6-5.38-1.731-8.084-2.624-3.379-1.117-6.253-3.419-9.417-5.077s-7.039-2.642-10.206-.99c-2.273,1.185-3.792,3.534-6,4.84-3.147,1.859-7.438,1.452-8.955,6.238a8.349,8.349,0,0,0,.067,5.114c2.155,6.5,9.974,9.1,15.592,6.271.114,1.1-.931,3.558.2,7.037.363,1.111.5,2.808,2.181,2.834" fill="#263238"/>
              </g>
            </g>
            <g id="Grupo_129229" data-name="Grupo 129229">
              <g id="Grupo_129228" data-name="Grupo 129228">
                <path id="Trazado_169042" data-name="Trazado 169042" d="M236.752,272.926c-.04.015-.039.19.136.434a1.443,1.443,0,0,0,1.088.557,2.729,2.729,0,0,0,2.518-2.784,2.956,2.956,0,0,0-.722-2.126,2.889,2.889,0,0,0-1.528-.9c-1.005-.214-1.582.17-1.54.235.025.115.6-.048,1.4.254A2.514,2.514,0,0,1,239.8,271.1a2.324,2.324,0,0,1-1.827,2.309C237.155,273.461,236.823,272.862,236.752,272.926Z" fill="#eb996e"/>
              </g>
            </g>
          </g>
        </g>
      </g>
      <g id="Grupo_129234" data-name="Grupo 129234">
        <g id="Grupo_129233" data-name="Grupo 129233">
          <path id="Trazado_169043" data-name="Trazado 169043" d="M287.745,267.644a3.041,3.041,0,0,1-.285.945,10.678,10.678,0,0,1-1.335,2.341,11.708,11.708,0,0,1-7.468,4.579,11.491,11.491,0,0,1-8.478-2.191,10.414,10.414,0,0,1-1.941-1.87,3.085,3.085,0,0,1-.537-.828,21.03,21.03,0,0,0,2.693,2.4,11.617,11.617,0,0,0,8.184,1.976,11.861,11.861,0,0,0,7.256-4.291A21.97,21.97,0,0,0,287.745,267.644Z" fill="#455a64"/>
        </g>
      </g>
      <g id="Grupo_129236" data-name="Grupo 129236">
        <g id="Grupo_129235" data-name="Grupo 129235">
          <path id="Trazado_169044" data-name="Trazado 169044" d="M286.355,266.016a2.348,2.348,0,0,1-.349.773,10.966,10.966,0,0,1-1.356,1.871,12.559,12.559,0,0,1-6.5,3.877,12.281,12.281,0,0,1-7.534-.71A10.756,10.756,0,0,1,268.6,270.7c-.44-.323-.657-.533-.638-.559.054-.081,1.008.669,2.792,1.349a12.757,12.757,0,0,0,7.28.545,13.085,13.085,0,0,0,6.347-3.621C285.712,267.039,286.273,265.966,286.355,266.016Z" fill="#455a64"/>
        </g>
      </g>
      <g id="Grupo_129238" data-name="Grupo 129238">
        <g id="Grupo_129237" data-name="Grupo 129237">
          <path id="Trazado_169045" data-name="Trazado 169045" d="M269.528,278.942a1.654,1.654,0,0,1-.417.231,4.751,4.751,0,0,1-1.323.349A7.181,7.181,0,0,1,263,278.2a13.928,13.928,0,0,1-4.509-5.861c-1.22-2.5-2.189-5.44-4.089-7.971a9.554,9.554,0,0,0-3.43-2.931,12.205,12.205,0,0,0-4.106-1.082c-2.732-.278-5.257-.1-7.362-.387a11.8,11.8,0,0,1-4.768-1.485,7.232,7.232,0,0,1-1.089-.822c-.224-.218-.334-.338-.321-.351.035-.041.5.43,1.511,1a12.371,12.371,0,0,0,4.708,1.294c2.07.241,4.57.02,7.37.275a12.552,12.552,0,0,1,4.28,1.1,9.993,9.993,0,0,1,3.623,3.076c1.967,2.629,2.923,5.6,4.107,8.079a13.834,13.834,0,0,0,4.283,5.763,7.178,7.178,0,0,0,4.563,1.423A8.665,8.665,0,0,0,269.528,278.942Z" fill="#455a64"/>
        </g>
      </g>
      <g id="Grupo_129240" data-name="Grupo 129240">
        <g id="Grupo_129239" data-name="Grupo 129239">
          <path id="Trazado_169046" data-name="Trazado 169046" d="M268.547,275.315a1.475,1.475,0,0,1-.448.044,4.992,4.992,0,0,1-1.285-.163,8.118,8.118,0,0,1-3.908-2.646,15.258,15.258,0,0,1-1.879-2.695c-.575-1.03-1.1-2.168-1.68-3.341A23.01,23.01,0,0,0,257.3,263a10.477,10.477,0,0,0-1.427-1.572,6.947,6.947,0,0,0-.866-.648,4.934,4.934,0,0,0-.933-.572,11.771,11.771,0,0,0-4.133-1.215,31.806,31.806,0,0,0-4.081-.21,55.607,55.607,0,0,1-6.995-.185,12.481,12.481,0,0,1-4.529-1.356,8.507,8.507,0,0,1-1.069-.72c-.235-.177-.352-.276-.341-.29.031-.043.536.317,1.5.831a13.286,13.286,0,0,0,4.477,1.17,62,62,0,0,0,6.952.07,31.18,31.18,0,0,1,4.148.184,12.111,12.111,0,0,1,4.31,1.26,5.332,5.332,0,0,1,.987.6,7.5,7.5,0,0,1,.915.689,10.89,10.89,0,0,1,1.492,1.655,22.865,22.865,0,0,1,2.068,3.612c.572,1.186,1.079,2.325,1.627,3.344a15.328,15.328,0,0,0,1.78,2.662A8.239,8.239,0,0,0,266.871,275,12.723,12.723,0,0,0,268.547,275.315Z" fill="#455a64"/>
        </g>
      </g>
      <g id="Grupo_129242" data-name="Grupo 129242">
        <g id="Grupo_129241" data-name="Grupo 129241">
          <path id="Trazado_169047" data-name="Trazado 169047" d="M270.978,280.45c-.024.022-.228-.135-.554-.467a9.924,9.924,0,0,1-1.215-1.548,12.313,12.313,0,0,1-.493-12.469,10.1,10.1,0,0,1,1.086-1.641c.3-.357.488-.53.514-.51.072.056-.581.847-1.271,2.316a13,13,0,0,0,.479,12.113C270.329,279.653,271.045,280.389,270.978,280.45Z" fill="#e59323"/>
        </g>
      </g>
    </g>
  </g>
</svg>
