<svg xmlns="http://www.w3.org/2000/svg" width="72.214" height="42.213" viewBox="0 0 72.214 42.213">
  <g id="Grupo_81673" data-name="Grupo 81673" transform="translate(-74.56 -82.914)">
    <g id="Grupo_81605" data-name="Grupo 81605">
      <g id="Grupo_81601" data-name="Grupo 81601">
        <g id="Grupo_81600" data-name="Grupo 81600">
          <rect id="Rectángulo_34243" data-name="Rectángulo 34243" width="71.957" height="41.918" rx="4.539" transform="translate(74.704 83.062)" fill="#fff"/>
        </g>
      </g>
      <g id="Grupo_81604" data-name="Grupo 81604">
        <g id="Grupo_81603" data-name="Grupo 81603">
          <g id="Grupo_81602" data-name="Grupo 81602">
            <path id="Trazado_113847" data-name="Trazado 113847" d="M142.033,124.981s.048-.007.143-.015a3.918,3.918,0,0,0,.421-.038,4.586,4.586,0,0,0,3.971-3.984c.068-.6.028-1.265.036-1.959-.011-5.568-.027-13.611-.047-23.552q-.006-3.729-.013-7.8a4.515,4.515,0,0,0-1.749-3.5,4.566,4.566,0,0,0-1.873-.86,12.5,12.5,0,0,0-2.145-.086l-18.666.013-42.773.012a4.494,4.494,0,0,0-4.211,2.947,7.339,7.339,0,0,0-.275,2.717V102.57q0,5.372,0,10.534v5.107c.007.837-.019,1.69.017,2.5a4.484,4.484,0,0,0,2.619,3.732,4.969,4.969,0,0,0,2.3.4l4.741,0,9.062.007,16.265.018,23.551.048,6.4.028,1.666.014c.374,0,.567.015.567.015s-.193.01-.567.016l-1.666.015-6.4.027-23.551.048-16.265.018-9.062.007-4.741,0a5.268,5.268,0,0,1-2.415-.427,4.761,4.761,0,0,1-2.787-3.958c-.038-.853-.011-1.673-.02-2.52V113.1q0-5.161,0-10.533t0-10.913V88.876c.005-.468-.011-.924.011-1.4a4.464,4.464,0,0,1,.279-1.413,4.759,4.759,0,0,1,1.741-2.273,5.022,5.022,0,0,1,1.3-.648,5.278,5.278,0,0,1,1.444-.223l42.773.011,18.667.014a12.638,12.638,0,0,1,2.191.095,4.756,4.756,0,0,1,3.8,4.59q0,4.072-.006,7.806c-.02,9.939-.036,17.985-.048,23.552-.012.695.025,1.35-.049,1.972a4.631,4.631,0,0,1-2.476,3.521,4.569,4.569,0,0,1-1.593.481A4.7,4.7,0,0,1,142.033,124.981Z" fill="#2e353a"/>
          </g>
        </g>
      </g>
    </g>
    <g id="Grupo_81666" data-name="Grupo 81666">
      <g id="Grupo_81662" data-name="Grupo 81662">
        <g id="Grupo_81646" data-name="Grupo 81646">
          <g id="Grupo_81614" data-name="Grupo 81614">
            <g id="Grupo_81609" data-name="Grupo 81609">
              <g id="Grupo_81608" data-name="Grupo 81608">
                <g id="Grupo_81607" data-name="Grupo 81607">
                  <g id="Grupo_81606" data-name="Grupo 81606">
                    <rect id="Rectángulo_34244" data-name="Rectángulo 34244" width="2.063" height="18.073" transform="translate(84.171 99)" fill="#e59323"/>
                  </g>
                </g>
              </g>
            </g>
            <g id="Grupo_81613" data-name="Grupo 81613">
              <g id="Grupo_81612" data-name="Grupo 81612">
                <g id="Grupo_81611" data-name="Grupo 81611">
                  <g id="Grupo_81610" data-name="Grupo 81610">
                    <rect id="Rectángulo_34245" data-name="Rectángulo 34245" width="2.549" height="22.444" transform="translate(87.435 94.63)" fill="#4d5a64"/>
                  </g>
                </g>
              </g>
            </g>
          </g>
          <g id="Grupo_81623" data-name="Grupo 81623">
            <g id="Grupo_81618" data-name="Grupo 81618">
              <g id="Grupo_81617" data-name="Grupo 81617">
                <g id="Grupo_81616" data-name="Grupo 81616">
                  <g id="Grupo_81615" data-name="Grupo 81615">
                    <rect id="Rectángulo_34246" data-name="Rectángulo 34246" width="2.063" height="5.128" transform="translate(98.61 111.945)" fill="#e59323"/>
                  </g>
                </g>
              </g>
            </g>
            <g id="Grupo_81622" data-name="Grupo 81622">
              <g id="Grupo_81621" data-name="Grupo 81621">
                <g id="Grupo_81620" data-name="Grupo 81620">
                  <g id="Grupo_81619" data-name="Grupo 81619">
                    <rect id="Rectángulo_34247" data-name="Rectángulo 34247" width="2.063" height="15.689" transform="translate(101.874 101.384)" fill="#4d5a64"/>
                  </g>
                </g>
              </g>
            </g>
          </g>
          <g id="Grupo_81632" data-name="Grupo 81632">
            <g id="Grupo_81627" data-name="Grupo 81627">
              <g id="Grupo_81626" data-name="Grupo 81626">
                <g id="Grupo_81625" data-name="Grupo 81625">
                  <g id="Grupo_81624" data-name="Grupo 81624">
                    <rect id="Rectángulo_34248" data-name="Rectángulo 34248" width="2.063" height="25.796" transform="translate(112.076 91.277)" fill="#e59323"/>
                  </g>
                </g>
              </g>
            </g>
            <g id="Grupo_81631" data-name="Grupo 81631">
              <g id="Grupo_81630" data-name="Grupo 81630">
                <g id="Grupo_81629" data-name="Grupo 81629">
                  <g id="Grupo_81628" data-name="Grupo 81628">
                    <rect id="Rectángulo_34249" data-name="Rectángulo 34249" width="2.063" height="6.15" transform="translate(115.827 110.923)" fill="#4d5a64"/>
                  </g>
                </g>
              </g>
            </g>
          </g>
          <g id="Grupo_81645" data-name="Grupo 81645">
            <g id="Grupo_81636" data-name="Grupo 81636">
              <g id="Grupo_81635" data-name="Grupo 81635">
                <g id="Grupo_81634" data-name="Grupo 81634">
                  <g id="Grupo_81633" data-name="Grupo 81633">
                    <rect id="Rectángulo_34250" data-name="Rectángulo 34250" width="2.063" height="23.184" transform="translate(125.543 93.889)" fill="#e59323"/>
                  </g>
                </g>
              </g>
            </g>
            <g id="Grupo_81640" data-name="Grupo 81640">
              <g id="Grupo_81639" data-name="Grupo 81639">
                <g id="Grupo_81638" data-name="Grupo 81638">
                  <g id="Grupo_81637" data-name="Grupo 81637">
                    <rect id="Rectángulo_34251" data-name="Rectángulo 34251" width="2.063" height="13.327" transform="translate(128.808 103.746)" fill="#4d5a64"/>
                  </g>
                </g>
              </g>
            </g>
            <g id="Grupo_81644" data-name="Grupo 81644">
              <g id="Grupo_81643" data-name="Grupo 81643">
                <g id="Grupo_81642" data-name="Grupo 81642">
                  <g id="Grupo_81641" data-name="Grupo 81641">
                    <rect id="Rectángulo_34252" data-name="Rectángulo 34252" width="2.063" height="1.8" transform="translate(135.639 115.274)" fill="#e59323"/>
                  </g>
                </g>
              </g>
            </g>
          </g>
        </g>
        <g id="Grupo_81649" data-name="Grupo 81649">
          <g id="Grupo_81648" data-name="Grupo 81648">
            <g id="Grupo_81647" data-name="Grupo 81647">
              <rect id="Rectángulo_34253" data-name="Rectángulo 34253" width="4.85" height="0.852" rx="0.34" transform="translate(84.226 119.295)" fill="#dedede"/>
            </g>
          </g>
        </g>
        <g id="Grupo_81652" data-name="Grupo 81652">
          <g id="Grupo_81651" data-name="Grupo 81651">
            <g id="Grupo_81650" data-name="Grupo 81650">
              <rect id="Rectángulo_34254" data-name="Rectángulo 34254" width="4.85" height="0.852" rx="0.34" transform="translate(98.278 119.295)" fill="#dedede"/>
            </g>
          </g>
        </g>
        <g id="Grupo_81655" data-name="Grupo 81655">
          <g id="Grupo_81654" data-name="Grupo 81654">
            <g id="Grupo_81653" data-name="Grupo 81653">
              <rect id="Rectángulo_34255" data-name="Rectángulo 34255" width="4.85" height="0.852" rx="0.34" transform="translate(110.683 119.295)" fill="#dedede"/>
            </g>
          </g>
        </g>
        <g id="Grupo_81658" data-name="Grupo 81658">
          <g id="Grupo_81657" data-name="Grupo 81657">
            <g id="Grupo_81656" data-name="Grupo 81656">
              <rect id="Rectángulo_34256" data-name="Rectángulo 34256" width="4.85" height="0.852" rx="0.34" transform="translate(123.459 119.295)" fill="#dedede"/>
            </g>
          </g>
        </g>
        <g id="Grupo_81661" data-name="Grupo 81661">
          <g id="Grupo_81660" data-name="Grupo 81660">
            <g id="Grupo_81659" data-name="Grupo 81659">
              <rect id="Rectángulo_34257" data-name="Rectángulo 34257" width="4.85" height="0.852" rx="0.34" transform="translate(134.286 119.295)" fill="#dedede"/>
            </g>
          </g>
        </g>
      </g>
      <g id="Grupo_81665" data-name="Grupo 81665">
        <g id="Grupo_81664" data-name="Grupo 81664">
          <g id="Grupo_81663" data-name="Grupo 81663">
            <path id="Trazado_113848" data-name="Trazado 113848" d="M140.345,117.073c0,.082-13.282.147-29.661.147s-29.663-.065-29.663-.147,13.276-.148,29.663-.148S140.345,116.991,140.345,117.073Z" fill="#2e353a"/>
          </g>
        </g>
      </g>
    </g>
    <g id="Grupo_81668" data-name="Grupo 81668">
      <g id="Grupo_81667" data-name="Grupo 81667">
        <circle id="Elipse_4912" data-name="Elipse 4912" cx="1.133" cy="1.133" r="1.133" transform="translate(80.695 87.857)" fill="#dedede"/>
      </g>
    </g>
    <g id="Grupo_81670" data-name="Grupo 81670">
      <g id="Grupo_81669" data-name="Grupo 81669">
        <path id="Trazado_113849" data-name="Trazado 113849" d="M86.042,88.99a1.133,1.133,0,1,1-1.134-1.133h0A1.133,1.133,0,0,1,86.042,88.99Z" fill="#dedede"/>
      </g>
    </g>
    <g id="Grupo_81672" data-name="Grupo 81672">
      <g id="Grupo_81671" data-name="Grupo 81671">
        <circle id="Elipse_4913" data-name="Elipse 4913" cx="1.133" cy="1.133" r="1.133" transform="translate(86.825 87.857)" fill="#dedede"/>
      </g>
    </g>
  </g>
</svg>
