<svg xmlns="http://www.w3.org/2000/svg" width="150.102" height="150.101" viewBox="0 0 150.102 150.101">
  <g id="Grupo_129002" data-name="Grupo 129002" transform="translate(-177.286 -113.968)">
    <g id="Grupo_129001" data-name="Grupo 129001">
      <g id="Grupo_129000" data-name="Grupo 129000">
        <path id="Trazado_168900" data-name="Trazado 168900" d="M220.428,135.727a61.722,61.722,0,0,1,15.094-6.5l3.156-14.907,25.205-.354,3.575,14.809a61.79,61.79,0,0,1,15.272,6.069l12.767-8.3,18.073,17.572-7.94,12.994a61.691,61.691,0,0,1,6.5,15.1l14.906,3.156.356,25.2-14.811,3.577a61.76,61.76,0,0,1-6.069,15.27l8.3,12.767-17.571,18.074-12.995-7.941a61.688,61.688,0,0,1-15.1,6.5L266,263.713l-25.205.356-3.576-14.812a61.744,61.744,0,0,1-15.271-6.069l-12.766,8.306L191.1,233.922l7.94-12.994a61.725,61.725,0,0,1-6.5-15.1l-14.906-3.157-.355-25.2L192.1,173.9a61.726,61.726,0,0,1,6.068-15.269l-8.305-12.768,17.57-18.073,13,7.942Z" fill="#ff9500" fill-rule="evenodd"/>
      </g>
    </g>
  </g>
</svg>
