<svg xmlns="http://www.w3.org/2000/svg" width="97.608" height="97.607" viewBox="0 0 97.608 97.607">
  <g id="Grupo_129006" data-name="Grupo 129006" transform="translate(-358.376 -161.41)">
    <g id="Grupo_129005" data-name="Grupo 129005">
      <g id="Grupo_129004" data-name="Grupo 129004">
        <g id="Grupo_129003" data-name="Grupo 129003">
          <path id="Trazado_168901" data-name="Trazado 168901" d="M385.94,175.966a40.08,40.08,0,0,1,9.726-4.369l1.9-9.7,16.347-.485,2.47,9.571a40.036,40.036,0,0,1,9.968,3.782l8.2-5.517,11.9,11.216-5.02,8.51A40.026,40.026,0,0,1,445.8,198.7l9.7,1.9.486,16.346-9.572,2.471a40.068,40.068,0,0,1-3.782,9.967l5.517,8.2-11.215,11.9-8.511-5.02a40.047,40.047,0,0,1-9.727,4.368l-1.9,9.7-16.347.485-2.47-9.572a40.077,40.077,0,0,1-9.968-3.782l-8.2,5.517-11.9-11.215,5.02-8.51a39.987,39.987,0,0,1-4.368-9.727l-9.7-1.9-.486-16.346,9.572-2.471a40.07,40.07,0,0,1,3.782-9.967l-5.517-8.2,11.215-11.9,8.512,5.021Z" fill="#ff9500" fill-rule="evenodd"/>
        </g>
      </g>
    </g>
  </g>
</svg>
