<svg xmlns="http://www.w3.org/2000/svg" width="35.659" height="34.471" viewBox="0 0 35.659 34.471">
  <g id="Grupo_129257" data-name="Grupo 129257" transform="translate(-390.465 -192.978)">
    <g id="Grupo_129253" data-name="Grupo 129253">
      <g id="Grupo_129252" data-name="Grupo 129252">
        <g id="Grupo_129251" data-name="Grupo 129251">
          <g id="Grupo_129247" data-name="Grupo 129247">
            <g id="Grupo_129246" data-name="Grupo 129246">
              <path id="Trazado_169048" data-name="Trazado 169048" d="M426.124,220.6l-5.644,1a17.146,17.146,0,1,1,3.178-5.249l.006-.008Z" fill="#fff"/>
            </g>
          </g>
          <g id="Grupo_129250" data-name="Grupo 129250">
            <g id="Grupo_129249" data-name="Grupo 129249">
              <g id="Grupo_129248" data-name="Grupo 129248">
                <path id="Trazado_169049" data-name="Trazado 169049" d="M426.124,220.6s-.064-.1-.175-.283l-.488-.815c-.428-.723-1.049-1.77-1.852-3.124l.106.006-.005.008a.064.064,0,0,1-.089.014.066.066,0,0,1-.022-.074,17.18,17.18,0,0,0,.951-8.238,16.9,16.9,0,0,0-.548-2.585,18.5,18.5,0,0,0-1.037-2.641,16.912,16.912,0,0,0-9.49-8.56,17.106,17.106,0,0,0-7.321-.967,17.341,17.341,0,0,0-7.429,2.524,16.667,16.667,0,0,0-5.7,5.918,16.99,16.99,0,0,0,27.4,19.776.074.074,0,0,1,.038-.022l4.186-.7,1.09-.179c.246-.039.38-.056.38-.056s-.112.027-.349.073l-1.066.2-4.217.793.039-.022a17,17,0,0,1-6.953,4.766,17.228,17.228,0,0,1-20.819-24.787l.552-.922c.2-.295.421-.578.63-.865a17.169,17.169,0,0,1,1.37-1.622c.234-.264.511-.483.764-.726a9.877,9.877,0,0,1,.788-.691,16.548,16.548,0,0,1,1.7-1.2,17.606,17.606,0,0,1,7.565-2.559,17.354,17.354,0,0,1,13.351,4.644,17.086,17.086,0,0,1,3.7,5.078,18.8,18.8,0,0,1,1.036,2.682,17.051,17.051,0,0,1-.493,10.928l-.111-.06.006-.008a.063.063,0,0,1,.088-.014.068.068,0,0,1,.018.02l1.806,3.2.455.815C426.08,220.507,426.124,220.6,426.124,220.6Z" fill="#263238"/>
              </g>
            </g>
          </g>
        </g>
      </g>
    </g>
    <g id="Grupo_129256" data-name="Grupo 129256">
      <g id="Grupo_129255" data-name="Grupo 129255">
        <g id="Grupo_129254" data-name="Grupo 129254">
          <path id="Trazado_169050" data-name="Trazado 169050" d="M407.473,217.25l-8.386-5.609,1.958-2.926,5.623,3.761,7-9.26,2.809,2.122Z" fill="#255065"/>
        </g>
      </g>
    </g>
  </g>
</svg>
