<svg xmlns="http://www.w3.org/2000/svg" width="136" height="136" viewBox="0 0 136 136">
  <g id="Grupo_129271" data-name="Grupo 129271" transform="translate(-382 -1143)">
    <g id="Grupo_129270" data-name="Grupo 129270">
      <g id="Grupo_129269" data-name="Grupo 129269">
        <g id="Grupo_129268" data-name="Grupo 129268">
          <circle id="Elipse_4909" data-name="Elipse 4909" cx="68" cy="68" r="68" transform="translate(382 1143)" fill="#ff9500" opacity="0.95" style="isolation: isolate"/>
        </g>
      </g>
    </g>
    <circle id="Elipse_4910" data-name="Elipse 4910" cx="55" cy="55" r="55" transform="translate(395 1156)" fill="#efefef" opacity="0.95" style="isolation: isolate"/>
    <g id="Grupo_83455" data-name="Grupo 83455" transform="translate(377 1134.16)">
      <path id="Trazado_114235" data-name="Trazado 114235" d="M73.407,37.293a5.045,5.045,0,1,0-1.278,0Zm34.676,6.76h4.339l5.045-5.045-4.339-4.339-5.045,5.045ZM61.131,50.78H84.439a11.756,11.756,0,0,0-23.274,0ZM74.954,74.828a5.218,5.218,0,0,0-2.186-.5,5.045,5.045,0,1,0,5.045,5.045,4.854,4.854,0,0,0-.5-2.186l-3.363,3.363a1.689,1.689,0,0,1-1.177.5,1.632,1.632,0,0,1-1.177-.5,1.727,1.727,0,0,1,0-2.388l3.363-3.363Zm9.653-9.653A18.322,18.322,0,0,0,72.768,60.87,18.473,18.473,0,1,0,87,67.53l-7.2,7.2a8.42,8.42,0,1,1-7.029-3.767,8.217,8.217,0,0,1,4.641,1.413ZM106.4,94.5a5.045,5.045,0,1,0,5.045,5.045A5.038,5.038,0,0,0,106.4,94.5Zm-67.266,0a5.045,5.045,0,1,0,5.045,5.045A5.038,5.038,0,0,0,39.135,94.5Zm55.629,23.543h23.308a11.756,11.756,0,0,0-23.274,0Zm-67.266,0H50.806a11.756,11.756,0,0,0-23.274,0Zm71.4-67.2A38.683,38.683,0,0,0,84,42.3a15.146,15.146,0,0,1,3.9,10.157,1.665,1.665,0,0,1-1.682,1.682H59.315a1.665,1.665,0,0,1-1.682-1.682,15.146,15.146,0,0,1,3.9-10.157,38.589,38.589,0,0,0-11.2,5.516,1.689,1.689,0,0,1-1.951-2.758,41.884,41.884,0,0,1,17.994-7.332,8.408,8.408,0,1,1,12.713,0,41.932,41.932,0,0,1,22.131,10.7L104.652,45v-6.02a1.578,1.578,0,0,1,.5-1.177l6.727-6.727a1.665,1.665,0,0,1,2.388,0L121,37.8a1.727,1.727,0,0,1,0,2.388l-6.727,6.727a1.713,1.713,0,0,1-1.177.5h-6.02l-3.431,3.431A42.231,42.231,0,0,1,112.321,93.6a8.444,8.444,0,0,1,2.489,5.953,8.547,8.547,0,0,1-2.691,6.155,15.174,15.174,0,0,1,9.417,14.025,1.665,1.665,0,0,1-1.682,1.682H92.948a1.665,1.665,0,0,1-1.682-1.682A14.409,14.409,0,0,1,91.5,117a42.32,42.32,0,0,1-37.467,0,14.409,14.409,0,0,1,.235,2.724,1.665,1.665,0,0,1-1.682,1.682H25.682A1.665,1.665,0,0,1,24,119.728,15.209,15.209,0,0,1,33.417,105.7a8.432,8.432,0,0,1-2.691-6.155A8.134,8.134,0,0,1,33.216,93.6,41.966,41.966,0,0,1,38.5,55.018a1.689,1.689,0,0,1,2.758,1.951,38.663,38.663,0,0,0-5.146,34.743,8.213,8.213,0,0,1,3.027-.572A8.4,8.4,0,0,1,44.853,105.7a15.241,15.241,0,0,1,7.4,6.458,38.806,38.806,0,0,0,41.066,0,15.241,15.241,0,0,1,7.4-6.458,8.4,8.4,0,0,1,5.718-14.563,8.213,8.213,0,0,1,3.027.572,38.809,38.809,0,0,0-8.139-38.476L89.417,65.142a21.895,21.895,0,1,1-2.354-2.354L98.968,50.881Z" fill="#255065"/>
      <path id="Trazado_114236" data-name="Trazado 114236" d="M115.1,144.665a1.689,1.689,0,0,1-2.388,2.388,1.7,1.7,0,0,1,0-2.388,1.665,1.665,0,0,1,2.388,0" transform="translate(-69.675 -95.028)" fill="#255065" fill-rule="evenodd"/>
    </g>
  </g>
</svg>
