<svg xmlns="http://www.w3.org/2000/svg" width="136" height="136" viewBox="0 0 136 136">
  <g id="Grupo_129280" data-name="Grupo 129280" transform="translate(6279.243 10557)">
    <g id="Grupo_129279" data-name="Grupo 129279">
      <circle id="Elipse_4909" data-name="Elipse 4909" cx="68" cy="68" r="68" transform="translate(-6279.243 -10557)" fill="#ff9500" opacity="0.95" style="isolation: isolate"/>
      <circle id="Elipse_4910" data-name="Elipse 4910" cx="55" cy="55" r="55" transform="translate(-6265 -10543)" fill="#efefef" opacity="0.95" style="isolation: isolate"/>
    </g>
    <g id="Grupo_83472" data-name="Grupo 83472" transform="translate(22.478 -185)">
      <g id="Grupo_83472-2" data-name="Grupo 83472" transform="translate(-6295 -10366)">
        <path id="Trazado_114258" data-name="Trazado 114258" d="M323.973,261.508a8.468,8.468,0,0,0-8.294,6.71H304.33a34.256,34.256,0,0,0-8.929-21.34l8.048-8.033a8.422,8.422,0,1,0-2.494-2.559l-8.1,8.1a34.294,34.294,0,0,0-21.374-8.715v-11.36a8.469,8.469,0,1,0-3.584-.11V235.7a34.3,34.3,0,0,0-21.094,8.9l-8.043-8.041a8.468,8.468,0,1,0-2.589,2.477l8.11,8.082a34.23,34.23,0,0,0-8.732,21.362H224.258a8.586,8.586,0,0,0-8.342-6.965,8.469,8.469,0,0,0-.093,16.938h.093a8.31,8.31,0,0,0,8.209-6.39h11.451a34.111,34.111,0,0,0,8.86,21.083l-7.995,8.008a8.534,8.534,0,1,0,2.494,2.588l8.043-8.041a34.3,34.3,0,0,0,21.177,8.758v11.307a8.472,8.472,0,1,0,3.583,0V304.45a34.307,34.307,0,0,0,21.327-8.891l8,8a8.477,8.477,0,1,0,2.557-2.51l-8.033-8.063A34.167,34.167,0,0,0,304.33,271.8h11.376a8.469,8.469,0,1,0,8.265-10.293Zm-19.282-33.16a4.889,4.889,0,0,1,6.915,6.914h0a4.889,4.889,0,1,1-6.955-6.874l.04-.04ZM235.2,235.262a4.889,4.889,0,1,1,0-6.915h0a4.887,4.887,0,0,1,0,6.912ZM215.916,274.9a4.89,4.89,0,1,1,4.89-4.889A4.89,4.89,0,0,1,215.916,274.9ZM235.2,311.67a4.89,4.89,0,0,1-6.915-6.915h0a4.88,4.88,0,0,1,6.727-.171,1.727,1.727,0,0,0,.5.512,4.89,4.89,0,0,1-.309,6.575Zm69.492-6.915a4.89,4.89,0,1,1,0,6.915h0a4.89,4.89,0,0,1,0-6.914Zm-39.635-88.775a4.89,4.89,0,1,1,4.889,4.889h0A4.895,4.895,0,0,1,265.056,215.981Zm9.78,108.055a4.89,4.89,0,1,1-5.25-4.871,1.786,1.786,0,0,0,.72,0A4.894,4.894,0,0,1,274.835,324.036Zm-4.89-23.124a30.848,30.848,0,1,1,30.848-30.848h0A30.881,30.881,0,0,1,269.945,300.913ZM323.973,274.9a4.89,4.89,0,1,1,4.889-4.889h0A4.894,4.894,0,0,1,323.973,274.9Z" transform="translate(-207.401 -207.512)" fill="#255065"/>
        <path id="Trazado_114259" data-name="Trazado 114259" d="M282.292,248.334l-20.474-11.82a1.787,1.787,0,0,0-1.791,0l-20.473,11.82a1.788,1.788,0,0,0-.9,1.552v23.64a1.788,1.788,0,0,0,.9,1.552L260.027,286.9a1.793,1.793,0,0,0,1.791,0l20.474-11.821a1.791,1.791,0,0,0,.9-1.552v-23.64A1.791,1.791,0,0,0,282.292,248.334Zm-21.37-8.2,6.452,3.724-16.889,9.75-6.452-3.724Zm-1.791,42.11-16.89-9.751V252.988l16.89,9.751Zm1.791-22.608-6.854-3.957,16.889-9.75,6.856,3.956Zm18.683,12.857-16.892,9.751V262.739l16.892-9.751Z" transform="translate(-198.378 -199.21)" fill="#255065"/>
      </g>
    </g>
  </g>
</svg>
