<svg xmlns="http://www.w3.org/2000/svg" width="136" height="136" viewBox="0 0 136 136">
  <g id="Grupo_129276" data-name="Grupo 129276" transform="translate(-1082.514 -1143)">
    <g id="Grupo_129275" data-name="Grupo 129275">
      <g id="Grupo_129274" data-name="Grupo 129274">
        <circle id="Elipse_4909" data-name="Elipse 4909" cx="68" cy="68" r="68" transform="translate(1082.514 1143)" fill="#ff9500" opacity="0.95" style="isolation: isolate"/>
        <circle id="Elipse_4910" data-name="Elipse 4910" cx="55" cy="55" r="55" transform="translate(1094 1156)" fill="#efefef" opacity="0.95" style="isolation: isolate"/>
      </g>
    </g>
    <g id="Grupo_83456" data-name="Grupo 83456" transform="translate(1234.209 832)">
      <path id="Trazado_114238" data-name="Trazado 114238" d="M-119.129,396.239h-9.749a4.337,4.337,0,0,0-4.332,4.333v25.321a4.336,4.336,0,0,0,4.332,4.332h9.749a4.337,4.337,0,0,0,4.333-4.332V400.572A4.337,4.337,0,0,0-119.129,396.239Zm1.506,29.653a1.507,1.507,0,0,1-1.506,1.5h-9.749a1.507,1.507,0,0,1-1.5-1.5V400.572a1.508,1.508,0,0,1,1.5-1.507h9.749a1.508,1.508,0,0,1,1.506,1.507Z" transform="translate(0 -6.224)" fill="#255065"/>
      <path id="Trazado_114239" data-name="Trazado 114239" d="M-90.215,374.188h-9.749a4.337,4.337,0,0,0-4.332,4.332v8.035a1.414,1.414,0,0,0,1.413,1.414,1.415,1.415,0,0,0,1.414-1.414V378.52a1.507,1.507,0,0,1,1.5-1.506h9.749a1.507,1.507,0,0,1,1.5,1.506v45.167a1.506,1.506,0,0,1-1.5,1.5h-9.749a1.506,1.506,0,0,1-1.5-1.5V392.209a1.415,1.415,0,0,0-1.414-1.414,1.414,1.414,0,0,0-1.413,1.414v31.478a4.336,4.336,0,0,0,4.332,4.332h9.749a4.336,4.336,0,0,0,4.332-4.332V378.521A4.337,4.337,0,0,0-90.215,374.188Z" transform="translate(-2.891 -4.019)" fill="#255065"/>
      <path id="Trazado_114240" data-name="Trazado 114240" d="M-61.3,387.419H-71.05a4.336,4.336,0,0,0-4.332,4.332v33.26a4.336,4.336,0,0,0,4.332,4.332H-61.3a4.336,4.336,0,0,0,4.332-4.332v-33.26A4.336,4.336,0,0,0-61.3,387.419ZM-59.8,425.01a1.507,1.507,0,0,1-1.506,1.5H-71.05a1.507,1.507,0,0,1-1.506-1.5v-33.26a1.507,1.507,0,0,1,1.506-1.5H-61.3a1.507,1.507,0,0,1,1.506,1.5Z" transform="translate(-5.783 -5.342)" fill="#255065"/>
      <path id="Trazado_114241" data-name="Trazado 114241" d="M-32.389,363.162h-9.748a4.337,4.337,0,0,0-4.333,4.332v40.383a1.414,1.414,0,0,0,1.413,1.413,1.413,1.413,0,0,0,1.413-1.413V367.494a1.507,1.507,0,0,1,1.507-1.5h9.748a1.507,1.507,0,0,1,1.506,1.5v55.091a1.507,1.507,0,0,1-1.506,1.5h-9.748a1.507,1.507,0,0,1-1.507-1.5V413.53a1.413,1.413,0,0,0-1.413-1.414,1.414,1.414,0,0,0-1.413,1.414v9.055a4.337,4.337,0,0,0,4.333,4.332h9.748a4.336,4.336,0,0,0,4.332-4.332V367.494A4.337,4.337,0,0,0-32.389,363.162Z" transform="translate(-8.674 -2.916)" fill="#255065"/>
      <path id="Trazado_114242" data-name="Trazado 114242" d="M-123.958,363.769a8.816,8.816,0,0,0-8.806,8.806,8.816,8.816,0,0,0,8.806,8.806,8.816,8.816,0,0,0,8.806-8.806,8.93,8.93,0,0,0-.076-1.137l13.884-10.59a8.756,8.756,0,0,0,3.407.687,8.758,8.758,0,0,0,5.108-1.64l12.146,5.558a8.818,8.818,0,0,0,8.767,7.989,8.817,8.817,0,0,0,8.806-8.806,8.873,8.873,0,0,0-.138-1.542l14.326-12.02a8.747,8.747,0,0,0,3.027.536,8.816,8.816,0,0,0,8.806-8.806A8.815,8.815,0,0,0-45.892,334a8.815,8.815,0,0,0-8.806,8.806,8.794,8.794,0,0,0,.138,1.542l-14.327,12.019a8.77,8.77,0,0,0-3.027-.536,8.752,8.752,0,0,0-5.108,1.641l-12.146-5.558a8.818,8.818,0,0,0-8.767-7.989,8.815,8.815,0,0,0-8.806,8.806,8.779,8.779,0,0,0,.076,1.137l-13.885,10.589A8.751,8.751,0,0,0-123.958,363.769Zm78.066-26.942a5.986,5.986,0,0,1,5.98,5.979,5.986,5.986,0,0,1-5.98,5.98,6.052,6.052,0,0,1-5.98-5.98A5.986,5.986,0,0,1-45.892,336.827Zm-7.643,10.349c.023.041.049.081.074.122a8.854,8.854,0,0,0,1.936,2.275l-12.746,10.693c-.023-.041-.41-.655-.6-.908a8.945,8.945,0,0,0-1.411-1.489Zm-24.358,17.373a6.051,6.051,0,0,1,5.979-5.891,6.084,6.084,0,0,1,5.979,5.98,5.985,5.985,0,0,1-5.979,5.979,5.986,5.986,0,0,1-5.98-5.979C-77.894,364.607-77.894,364.578-77.893,364.549ZM-90.675,357.7a8.882,8.882,0,0,0,1.27-2.79l10.264,4.7a8.845,8.845,0,0,0-1.2,2.466c-.039.125-.074.25-.106.376l-10.264-4.7Zm-7.261-10.954a5.986,5.986,0,0,1,5.979,5.98,6.09,6.09,0,0,1-5.979,5.98,6.08,6.08,0,0,1-5.98-5.98A5.986,5.986,0,0,1-97.936,346.749Zm-7.838,9.991c.016.032.036.065.052.1a8.882,8.882,0,0,0,1.845,2.389l-12.243,9.337a8.812,8.812,0,0,0-.791-1.263,8.856,8.856,0,0,0-1.107-1.224Zm-14.62,11.084a6.023,6.023,0,0,1,2.416,4.75,5.987,5.987,0,0,1-5.98,5.98,5.986,5.986,0,0,1-5.979-5.98,5.986,5.986,0,0,1,5.979-5.98A5.89,5.89,0,0,1-120.394,367.825Z" transform="translate(-0.044 0)" fill="#255065"/>
    </g>
  </g>
</svg>
