<svg xmlns="http://www.w3.org/2000/svg" width="136" height="136" viewBox="0 0 136 136">
  <g id="Grupo_129273" data-name="Grupo 129273" transform="translate(-731.757 -1143)">
    <g id="Grupo_129272" data-name="Grupo 129272">
      <circle id="Elipse_4909" data-name="Elipse 4909" cx="68" cy="68" r="68" transform="translate(731.757 1143)" fill="#ff9500" opacity="0.95" style="isolation: isolate"/>
      <circle id="Elipse_4910" data-name="Elipse 4910" cx="55" cy="55" r="55" transform="translate(745 1156)" fill="#efefef" opacity="0.95" style="isolation: isolate"/>
    </g>
    <path id="Trazado_114237" data-name="Trazado 114237" d="M-23.032,271.295V258.214a1.613,1.613,0,0,0-1.358-1.593l-8-1.28a41.275,41.275,0,0,0-5.25-12.663l4.755-6.568a1.613,1.613,0,0,0-.165-2.087l-9.25-9.25a1.615,1.615,0,0,0-2.087-.166l-6.569,4.756a41.291,41.291,0,0,0-12.662-5.25l-1.281-8a1.612,1.612,0,0,0-1.593-1.358H-79.573a1.612,1.612,0,0,0-1.593,1.357l-1.281,8a41.23,41.23,0,0,0-12.662,5.25l-6.569-4.756a1.612,1.612,0,0,0-2.086.166l-9.25,9.25a1.612,1.612,0,0,0-.166,2.087l4.756,6.568a41.257,41.257,0,0,0-5.25,12.662l-8,1.281a1.612,1.612,0,0,0-1.357,1.593v13.081a1.612,1.612,0,0,0,1.358,1.593l8,1.281a41.255,41.255,0,0,0,5.25,12.662l-4.756,6.569a1.611,1.611,0,0,0,.166,2.086l9.25,9.25a1.613,1.613,0,0,0,2.087.166l6.568-4.756A41.255,41.255,0,0,0-82.446,305.4l1.28,8a1.613,1.613,0,0,0,1.593,1.358h13.081A1.613,1.613,0,0,0-64.9,313.4l1.149-7.178a22.865,22.865,0,0,0,17.82,8.536,22.925,22.925,0,0,0,22.9-22.9,22.865,22.865,0,0,0-8.536-17.82l7.178-1.149a1.613,1.613,0,0,0,1.358-1.593Zm-21.189-2.272q-.847-.063-1.71-.064a22.758,22.758,0,0,0-9.691,2.155v-2.55c0-3.812-2.886-6.713-7.918-7.961a40.785,40.785,0,0,0-5.253-.943,11.646,11.646,0,0,0,4.483-9.57c0-5.558-3.342-9.011-8.722-9.011s-8.722,3.453-8.722,9.011a11.657,11.657,0,0,0,4.466,9.557,37.851,37.851,0,0,0-5.249.958c-5.1,1.311-7.905,4.137-7.905,7.958v14.35a1.614,1.614,0,0,0,1.613,1.613h21.2a22.8,22.8,0,0,0-1.2,7.329q0,.862.064,1.71a29.439,29.439,0,0,1-4.268.312,29.156,29.156,0,0,1-29.124-29.123,29.156,29.156,0,0,1,29.124-29.124,29.157,29.157,0,0,1,29.124,29.124A29.44,29.44,0,0,1-44.221,269.023Zm-20.193,1.228a1.613,1.613,0,0,0-1.613,1.612v9.028c-.074.135-.147.273-.218.41H-80.038v-9.438a1.613,1.613,0,0,0-1.613-1.612,1.612,1.612,0,0,0-1.612,1.612V281.3h-3.953V268.564c0-2.83,2.981-4.19,5.482-4.832a35.188,35.188,0,0,1,17.417,0c2.043.506,5.469,1.808,5.469,4.829v4.4a23.022,23.022,0,0,0-3.952,3.43v-4.529A1.613,1.613,0,0,0-64.414,270.251Zm-8.618-12.43c-3.031,0-5.5-3.468-5.5-7.73,0-5.033,3.444-5.785,5.5-5.785s5.5.751,5.5,5.785C-67.536,254.352-70,257.82-73.032,257.82Zm46.774,34.036A19.694,19.694,0,0,1-45.93,311.529,19.694,19.694,0,0,1-65.6,291.857,19.694,19.694,0,0,1-45.93,272.185,19.694,19.694,0,0,1-26.258,291.857Zm0-21.936-7.732,1.237a1.612,1.612,0,0,0-1,.586,22.708,22.708,0,0,0-6.036-2.255,32.663,32.663,0,0,0,.346-4.734,32.386,32.386,0,0,0-32.349-32.349,32.386,32.386,0,0,0-32.35,32.349A32.386,32.386,0,0,0-73.032,297.1a32.662,32.662,0,0,0,4.734-.346,22.729,22.729,0,0,0,2.255,6.037,1.607,1.607,0,0,0-.586,1l-1.238,7.731H-78.2l-1.238-7.732a1.61,1.61,0,0,0-1.272-1.325,38.115,38.115,0,0,1-13.563-5.623,1.612,1.612,0,0,0-1.838.038l-6.346,4.595-7.3-7.3,4.595-6.347a1.611,1.611,0,0,0,.038-1.837,38.1,38.1,0,0,1-5.623-13.563,1.614,1.614,0,0,0-1.326-1.273l-7.732-1.237V259.589l7.732-1.238a1.611,1.611,0,0,0,1.326-1.272,38.09,38.09,0,0,1,5.623-13.563,1.612,1.612,0,0,0-.038-1.838l-4.6-6.346,7.3-7.306,6.347,4.6a1.614,1.614,0,0,0,1.838.038,38.089,38.089,0,0,1,13.563-5.623,1.614,1.614,0,0,0,1.272-1.326l1.238-7.732h10.33l1.238,7.732a1.615,1.615,0,0,0,1.273,1.326,38.112,38.112,0,0,1,13.563,5.623,1.613,1.613,0,0,0,1.837-.038l6.347-4.6,7.3,7.306-4.6,6.346a1.614,1.614,0,0,0-.037,1.838,38.118,38.118,0,0,1,5.623,13.563,1.611,1.611,0,0,0,1.325,1.272l7.732,1.238Zm-13.178,13.057-9.638,9.778-3.348-3.348a4.715,4.715,0,0,0-3.356-1.39,4.71,4.71,0,0,0-3.355,1.39,4.711,4.711,0,0,0-1.391,3.355,4.715,4.715,0,0,0,1.39,3.356l6.718,6.717a4.727,4.727,0,0,0,3.355,1.388,4.728,4.728,0,0,0,3.356-1.388c3.426-3.426,10.42-10.585,12.991-13.182a4.7,4.7,0,0,0,1.379-3.352,4.705,4.705,0,0,0-1.4-3.345,4.742,4.742,0,0,0-6.7.024Zm4.432,4.4c-2.582,2.606-9.57,9.76-12.982,13.173a1.521,1.521,0,0,1-2.148,0l-6.717-6.717h0a1.509,1.509,0,0,1-.445-1.074,1.507,1.507,0,0,1,.445-1.074,1.51,1.51,0,0,1,1.074-.446,1.51,1.51,0,0,1,1.074.446l4.5,4.5a1.613,1.613,0,0,0,1.141.473h.005a1.616,1.616,0,0,0,1.143-.481l10.773-10.93a1.513,1.513,0,0,1,2.137-.006,1.506,1.506,0,0,1,.446,1.067A1.511,1.511,0,0,1-35,287.381Z" transform="translate(873.032 946.245)" fill="#255065"/>
  </g>
</svg>
