<svg xmlns="http://www.w3.org/2000/svg" width="136" height="136" viewBox="0 0 136 136">
  <g id="Grupo_129284" data-name="Grupo 129284" transform="translate(-1204 -1255)">
    <circle id="Elipse_4950" data-name="Elipse 4950" cx="68" cy="68" r="68" transform="translate(1204 1255)" fill="#ff9500" opacity="0.95" style="isolation: isolate"/>
    <circle id="Elipse_4951" data-name="Elipse 4951" cx="55" cy="55" r="55" transform="translate(1215.486 1268)" fill="#efefef" opacity="0.95" style="isolation: isolate"/>
    <g id="Grupo_128816" data-name="Grupo 128816" transform="translate(1015.604 1067.001)">
      <path id="Trazado_168869" data-name="Trazado 168869" d="M217.677,301.089a3.837,3.837,0,1,0-3.758-3.915c0,.026,0,.052,0,.078A3.8,3.8,0,0,0,217.677,301.089Zm0-4.92a1.086,1.086,0,1,1-1,1.165c0-.028,0-.055,0-.082A1.047,1.047,0,0,1,217.677,296.169Z" fill="#255065"/>
      <path id="Trazado_168870" data-name="Trazado 168870" d="M271.32,255.409H249.54a1.378,1.378,0,1,0,0,2.755h21.78a1.378,1.378,0,1,0,0-2.755Z" fill="#255065"/>
      <path id="Trazado_168871" data-name="Trazado 168871" d="M261.929,262.3H249.54a1.378,1.378,0,1,0,0,2.755h12.389a1.378,1.378,0,1,0,0-2.755Z" fill="#255065"/>
      <path id="Trazado_168872" data-name="Trazado 168872" d="M287.39,251.509a15.728,15.728,0,0,0-2.232.168v-26.4a1.4,1.4,0,0,0-.427-.974l-16.966-16.927a1.377,1.377,0,0,0-.987-.374H241.59a5.583,5.583,0,0,0-5.628,5.537v26.711l-19,15.158c-.043.035-.044.072-.082.112a7.642,7.642,0,0,0-2.174,5.414v29.127h-1.968a3.41,3.41,0,0,0-3.345,3.416v9.236A3.3,3.3,0,0,0,212.708,305h30.218a3.236,3.236,0,0,0,3.269-3.2v-9.323a3.346,3.346,0,0,0-3.269-3.416h-.864v-1.9a7.742,7.742,0,0,0,6.494-7.6V273.12H273.39a15.322,15.322,0,1,0,14-21.611Zm-19.155-39.864,12.173,12.278h-9.39a2.82,2.82,0,0,1-2.783-2.887Zm-25.386,80.169a.592.592,0,0,1,.591.591h0v9.249a.591.591,0,0,1-.591.59H212.741a.59.59,0,0,1-.59-.59V292.4a.591.591,0,0,1,.59-.591h30.108Zm2.952-12.259a5.039,5.039,0,0,1-5.043,4.97,1.441,1.441,0,0,0-1.451,1.378v3.156H217.464V259.932a4.9,4.9,0,0,1,1.327-3.427l17.171-13.733v11.139l-11.953,9.469a1.379,1.379,0,0,0,1.715,2.159l14.284-11.31.256.255a3.384,3.384,0,0,1,0,4.785h0L233.531,266a1.374,1.374,0,0,0-.4.895l-.085,1.468c0,.026,0,.053,0,.079a7.682,7.682,0,0,0,.76,3.287,7.248,7.248,0,0,1-.544,7.058,1.4,1.4,0,0,0-.248.766v3.173a1.378,1.378,0,1,0,2.755,0v-2.774a9.856,9.856,0,0,0,.514-9.394,4.971,4.971,0,0,1-.49-2.078l.056-.9.127-.082a5.659,5.659,0,0,0,5.618,5.622H245.8Zm26.662-9.19H241.59a2.947,2.947,0,0,1-2.873-2.945V264.7l3.489-3.483a6.137,6.137,0,0,0,.007-8.679l0,0-1.121-1.122a1.386,1.386,0,0,0-1.835-.1l-.537.419V212.558a2.825,2.825,0,0,1,2.846-2.8H265.48v11.281a5.578,5.578,0,0,0,5.538,5.642H282.4v25.674a15.418,15.418,0,0,0-10.317,14.5A16.053,16.053,0,0,0,272.463,270.365Zm14.9,9a12.55,12.55,0,1,1,12.55-12.55h0A12.564,12.564,0,0,1,287.367,279.364Z" fill="#255065"/>
      <path id="Trazado_168873" data-name="Trazado 168873" d="M287.367,261.32a2.023,2.023,0,0,1,2.02,2.019,1.377,1.377,0,0,0,1.377,1.378,1.357,1.357,0,0,0,1.355-1.36v-.018a4.8,4.8,0,0,0-3.419-4.57v-.693a1.378,1.378,0,0,0-2.755,0v.693a4.778,4.778,0,0,0,1.411,9.345,2.019,2.019,0,0,1,.033,4.038h-.047a2.02,2.02,0,0,1-2-2.018,1.377,1.377,0,0,0-1.377-1.377,1.4,1.4,0,0,0-1.4,1.377,4.758,4.758,0,0,0,3.375,4.571v.846a1.378,1.378,0,1,0,2.755,0V274.7a4.771,4.771,0,0,0-1.344-9.346,2.02,2.02,0,0,1,.011-4.039Z" fill="#255065"/>
      <path id="Trazado_168874" data-name="Trazado 168874" d="M274.317,229.63h-27.55a1.426,1.426,0,0,0-1.36,1.449v6.435a1.353,1.353,0,0,0,1.34,1.365h1.219v11.988a1.347,1.347,0,0,0,1.3,1.393h22.565a1.345,1.345,0,0,0,1.324-1.367V238.879h1.163a1.382,1.382,0,0,0,1.4-1.365v-6.435A1.457,1.457,0,0,0,274.317,229.63ZM270.4,249.505H250.721V238.879h4.919v5.4a1.439,1.439,0,0,0,2.165,1.178l2.708-1.633,2.788,1.642a1.39,1.39,0,0,0,.7.191,1.567,1.567,0,0,0,.732-.181,1.426,1.426,0,0,0,.744-1.2v-5.4H270.4Zm-12-7.674v-2.952h4.33v2.983l-1.461-.834a1.512,1.512,0,0,0-1.487.008Zm14.562-5.707H248.162v-3.739h24.795Z" fill="#255065"/>
    </g>
  </g>
</svg>
