<svg xmlns="http://www.w3.org/2000/svg" xmlns:xlink="http://www.w3.org/1999/xlink" width="271.106" height="278.674" viewBox="0 0 271.106 278.674">
  <defs>
    <filter id="paris-4345139_1920" x="0" y="0" width="259.938" height="278.674" filterUnits="userSpaceOnUse">
      <feOffset dy="3" input="SourceAlpha"/>
      <feGaussianBlur stdDeviation="3" result="blur"/>
      <feFlood flood-opacity="0.161"/>
      <feComposite operator="in" in2="blur"/>
      <feComposite in="SourceGraphic"/>
    </filter>
  </defs>
  <g id="Grupo_129270" data-name="Grupo 129270" transform="translate(-538.894 -808)">
    <g transform="matrix(1, 0, 0, 1, 538.89, 808)" filter="url(#paris-4345139_1920)">
      <path id="paris-4345139_1920-2" data-name="paris-4345139_1920" d="M20,0H221.938a20,20,0,0,1,20,20V240.674a20,20,0,0,1-20,20H20a20,20,0,0,1-20-20V20A20,20,0,0,1,20,0Z" transform="translate(9 6)" fill="#f6f6f6"/>
    </g>
    <text id="Crecimiento" transform="translate(668 995)" fill="#12263f" font-size="16" font-family="Roboto-Black, Roboto" font-weight="800" opacity="0.95"><tspan x="-44.07" y="17">Crecimiento</tspan></text>
    <g id="Grupo_128793" data-name="Grupo 128793" transform="translate(412.555 669.001)">
      <path id="Trazado_168822" data-name="Trazado 168822" d="M297.026,295.95h-5.9l0-39.654a1.464,1.464,0,1,0-2.929,0l0,39.654H273.833v-5.281h5.483a1.465,1.465,0,1,0,0-2.929h-5.483v-5.281h2.327a1.465,1.465,0,0,0,0-2.93h-2.327v-5.281h5.483a1.464,1.464,0,1,0,0-2.929h-5.483v-5.281h2.327a1.465,1.465,0,0,0,0-2.93h-2.327v-5.281h5.483a1.465,1.465,0,1,0,0-2.93h-5.483v-5.28h2.327a1.465,1.465,0,0,0,0-2.93h-2.327v-5.281h5.483a1.465,1.465,0,1,0,0-2.929h-5.483V233.2h2.327a1.465,1.465,0,1,0,0-2.93h-2.327v-5.281h5.483a1.465,1.465,0,0,0,0-2.93h-5.483v-5.281H288.2v32.788a1.465,1.465,0,0,0,2.93,0V216.77a2.452,2.452,0,0,0,2.37-2.446V208.45A2.455,2.455,0,0,0,291.047,206H246.126a1.465,1.465,0,1,0,0,2.93h14.557v2.455a5.393,5.393,0,0,0,5.384,5.39H270.9V295.95H254.687c-.537-2.944-3.578-5.4-6.665-6.192a5.577,5.577,0,0,1-.626-.192c-.021-.224-.021-.616-.021-.871v-7.871a2.443,2.443,0,0,0,1.943-2.388V265.872a4.987,4.987,0,0,0,7.053-4.549v-12.75a15.269,15.269,0,0,0-3.534-10.372,12.01,12.01,0,0,0-6.378-3.729,11.626,11.626,0,0,0,3.185-7.3V224.1a13.057,13.057,0,0,0-3.576-9.484,11.4,11.4,0,0,0-7.935-3.331h-.048a11.4,11.4,0,0,0-7.937,3.331,13.059,13.059,0,0,0-3.574,9.484v3.078a11.626,11.626,0,0,0,3.183,7.3,12.021,12.021,0,0,0-6.381,3.729,15.269,15.269,0,0,0-3.534,10.372v12.751a5,5,0,0,0,5,5,4.951,4.951,0,0,0,2.062-.448v12.564a2.444,2.444,0,0,0,1.943,2.388V288.7c0,.255,0,.646-.021.87a5.446,5.446,0,0,1-.628.191c-3.087.794-6.128,3.25-6.663,6.194h-4.067a5.028,5.028,0,0,0-5.019,5.025v2.6A2.422,2.422,0,0,0,214.862,306h82.164a2.53,2.53,0,0,0,2.528-2.527v-4.994a2.531,2.531,0,0,0-2.528-2.528Zm-33.413-84.566v-2.455h26.955v4.916h-24.5A2.46,2.46,0,0,1,263.613,211.384ZM251.658,295.95H239.574V280.875h4.871v7.82c0,2.148.28,3.233,2.844,3.9C248.965,293.025,251.04,294.384,251.658,295.95Zm1.783-34.627a2.062,2.062,0,1,1-4.123,0v-9.564h4.123Zm-15.332-47.112c3.729.072,7.706,2.6,8.473,7.963a4.82,4.82,0,0,1-1.014-.859,3.894,3.894,0,0,0-2.9-1.465,4.536,4.536,0,0,0-1.134.153c-.528.136-3,.8-3.422.8s-2.894-.66-3.421-.8a3.763,3.763,0,0,0-4.041,1.312,4.819,4.819,0,0,1-1.011.857C230.4,216.813,234.381,214.283,238.109,214.211ZM229.5,227.174v-1.826a6.389,6.389,0,0,0,3.237-1.982c.631-.645.656-.67,1.218-.525a31.542,31.542,0,0,0,4.151.887,31.441,31.441,0,0,0,4.153-.888c.559-.144.584-.119,1.213.524a6.37,6.37,0,0,0,3.24,1.984v1.826c0,3.072-3.144,7.036-6.6,8.316a5.119,5.119,0,0,1-4.024,0c-3.45-1.279-6.591-5.243-6.591-8.316Zm12.078,10.886a3.472,3.472,0,1,1-6.943,0q.219.091.439.174a8.019,8.019,0,0,0,6.06,0q.224-.082.444-.176Zm-9.9-.949v.455a6.449,6.449,0,1,0,12.862,0v-.455c5.529.633,8.9,4.9,8.9,11.461v.257h-5.588a1.465,1.465,0,0,0-1.465,1.465v9.564h-5.14a1.465,1.465,0,0,0,0,2.93h5.14v15.158h-6.814v-7.518h1.5a1.465,1.465,0,0,0,0-2.93h-5.934a1.465,1.465,0,0,0,0,2.93h1.5v7.518H229.83V262.788h5.19a1.465,1.465,0,0,0,0-2.93h-5.19v-9.564a1.465,1.465,0,0,0-1.465-1.465h-5.594v-.257c0-6.56,3.375-10.828,8.907-11.461Zm-6.839,26.279a2.07,2.07,0,0,1-2.068-2.067v-9.564h4.13v9.564A2.068,2.068,0,0,1,224.839,263.39Zm4.087,29.2c2.566-.664,2.847-1.749,2.847-3.9v-7.82h4.871V295.95H224.56c.616-1.566,2.69-2.926,4.366-3.357Zm67.7,10.477H215.375v-2.1a2.094,2.094,0,0,1,2.089-2.1h79.16Z" fill="#255065"/>
    </g>
  </g>
</svg>
