<svg xmlns="http://www.w3.org/2000/svg" width="136" height="136" viewBox="0 0 136 136">
  <g id="Grupo_129281" data-name="Grupo 129281" transform="translate(-260 -1255)">
    <circle id="Elipse_4950" data-name="Elipse 4950" cx="68" cy="68" r="68" transform="translate(260 1255)" fill="#ff9500" opacity="0.95" style="isolation: isolate"/>
    <circle id="Elipse_4951" data-name="Elipse 4951" cx="55" cy="55" r="55" transform="translate(271.486 1268)" fill="#efefef" opacity="0.95" style="isolation: isolate"/>
    <g id="Giftbox-Hands-Purchase-Buy-Commerce" transform="translate(67.833 1068)">
      <path id="Trazado_168835" data-name="Trazado 168835" d="M283.883,216.75l-6.666-10a1.667,1.667,0,0,0-1.384-.75H242.5a1.664,1.664,0,0,0-1.383.75l-6.667,10a1.612,1.612,0,0,0-.283.917V251a5.015,5.015,0,0,0,5,5h40a5.015,5.015,0,0,0,5-5V217.667A1.613,1.613,0,0,0,283.883,216.75ZM243.4,209.333h31.533l4.45,6.667H238.95Zm19.1,10v11.884l-2.417-1.6a1.6,1.6,0,0,0-1.833,0l-2.417,1.6V219.333Zm-25,0h15V226h-15ZM280.833,251a1.667,1.667,0,0,1-1.666,1.667h-40A1.667,1.667,0,0,1,237.5,251V229.333h15v5a1.642,1.642,0,0,0,.883,1.467,1.606,1.606,0,0,0,1.7-.083L259.167,233l4.083,2.717a1.666,1.666,0,0,0,2.583-1.384v-5h15Zm0-25h-15v-6.667h15Z" fill="#255065"/>
      <path id="Trazado_168836" data-name="Trazado 168836" d="M260.345,263.155a1.666,1.666,0,0,0-2.357,0l-10,10A1.667,1.667,0,0,0,249.167,276H252.5v11.667h3.333V274.333a1.666,1.666,0,0,0-1.666-1.666h-.977l5.977-5.977,5.976,5.977h-.976a1.666,1.666,0,0,0-1.667,1.666v20h3.333V276h3.334a1.667,1.667,0,0,0,1.178-2.845Z" fill="#255065"/>
      <path id="Trazado_168837" data-name="Trazado 168837" d="M290.833,209.333h3.334v10h-3.334Z" fill="#255065"/>
      <path id="Trazado_168838" data-name="Trazado 168838" d="M290.833,222.667h3.334V226h-3.334Z" fill="#255065"/>
      <path id="Trazado_168839" data-name="Trazado 168839" d="M300.833,214.333h3.334V221h-3.334Z" fill="#255065"/>
      <path id="Trazado_168840" data-name="Trazado 168840" d="M300.833,224.333h3.334v3.334h-3.334Z" fill="#255065"/>
      <path id="Trazado_168841" data-name="Trazado 168841" d="M224.167,209.333H227.5v10h-3.333Z" fill="#255065"/>
      <path id="Trazado_168842" data-name="Trazado 168842" d="M224.167,222.667H227.5V226h-3.333Z" fill="#255065"/>
      <path id="Trazado_168843" data-name="Trazado 168843" d="M214.167,214.333H217.5V221h-3.333Z" fill="#255065"/>
      <path id="Trazado_168844" data-name="Trazado 168844" d="M214.167,224.333H217.5v3.334h-3.333Z" fill="#255065"/>
      <path id="Trazado_168845" data-name="Trazado 168845" d="M279.167,296H282.5v3.333h-3.333Z" fill="#255065"/>
      <path id="Trazado_168846" data-name="Trazado 168846" d="M299.167,232.667a6.666,6.666,0,0,0-6.667,6.666V253.4a5.652,5.652,0,0,0-.733.117,6.663,6.663,0,0,0-4.05,3.116l-11.667,20.2a1.774,1.774,0,0,0-.217.834v11.666h-1.666A1.667,1.667,0,0,0,272.5,291v13.333A1.667,1.667,0,0,0,274.167,306h26.666a1.667,1.667,0,0,0,1.667-1.667V291a1.667,1.667,0,0,0-1.667-1.667h-1.666V288.25l6.3-7.883a1.629,1.629,0,0,0,.366-1.034v-40a6.665,6.665,0,0,0-6.666-6.666Zm0,70H275.833v-10h23.334ZM302.5,278.75l-6.3,7.883a1.629,1.629,0,0,0-.367,1.034v1.666H279.167V278.117l11.45-19.817a3.333,3.333,0,1,1,5.907,3.09c-.044.083-.09.164-.141.243l-8.333,14.434,2.883,1.666,8.334-14.433a6.68,6.68,0,0,0-2.434-9.117,7.735,7.735,0,0,0-1-.45v-14.4a3.333,3.333,0,0,1,6.667,0Z" fill="#255065"/>
      <path id="Trazado_168847" data-name="Trazado 168847" d="M245.833,289.333h-1.666V277.667a1.774,1.774,0,0,0-.217-.834l-11.667-20.2A6.654,6.654,0,0,0,227.5,253.4V239.333a6.666,6.666,0,0,0-13.333,0v40a1.628,1.628,0,0,0,.366,1.034l6.3,7.883v1.083h-1.666A1.667,1.667,0,0,0,217.5,291v13.333A1.667,1.667,0,0,0,219.167,306h26.666a1.667,1.667,0,0,0,1.667-1.667V291A1.667,1.667,0,0,0,245.833,289.333ZM217.5,278.75V239.333a3.334,3.334,0,0,1,6.667,0v14.4a8.8,8.8,0,0,0-1,.45,6.667,6.667,0,0,0-2.439,9.108l.005.009,8.334,14.433,2.883-1.666-8.333-14.434a3.333,3.333,0,1,1,5.626-3.576c.05.079.1.16.14.243l11.45,19.817v11.216H224.167v-1.666a1.63,1.63,0,0,0-.367-1.034Zm26.667,23.917H220.833v-10h23.334Z" fill="#255065"/>
      <path id="Trazado_168848" data-name="Trazado 168848" d="M237.5,296h3.333v3.333H237.5Z" fill="#255065"/>
      <path id="Trazado_168849" data-name="Trazado 168849" d="M262.5,297.667h3.333V301H262.5Z" fill="#255065"/>
      <path id="Trazado_168850" data-name="Trazado 168850" d="M252.5,291h3.333v3.333H252.5Z" fill="#255065"/>
    </g>
  </g>
</svg>
