<svg xmlns="http://www.w3.org/2000/svg" xmlns:xlink="http://www.w3.org/1999/xlink" width="268.784" height="278.674" viewBox="0 0 268.784 278.674">
  <defs>
    <filter id="paris-4345139_1920" x="0" y="0" width="259.938" height="278.674" filterUnits="userSpaceOnUse">
      <feOffset dy="3" input="SourceAlpha"/>
      <feGaussianBlur stdDeviation="3" result="blur"/>
      <feFlood flood-opacity="0.161"/>
      <feComposite operator="in" in2="blur"/>
      <feComposite in="SourceGraphic"/>
    </filter>
  </defs>
  <g id="Grupo_129269" data-name="Grupo 129269" transform="translate(-276 -810.325)">
    <g id="Grupo_129268" data-name="Grupo 129268" transform="translate(0 2.325)">
      <g transform="matrix(1, 0, 0, 1, 276, 808)" filter="url(#paris-4345139_1920)">
        <path id="paris-4345139_1920-2" data-name="paris-4345139_1920" d="M20,0H221.938a20,20,0,0,1,20,20V240.674a20,20,0,0,1-20,20H20a20,20,0,0,1-20-20V20A20,20,0,0,1,20,0Z" transform="translate(9 6)" fill="#f6f6f6"/>
      </g>
    </g>
    <text id="Nacimiento" transform="translate(402.784 997.325)" fill="#12263f" font-size="16" font-family="Roboto-Black, Roboto" font-weight="800" opacity="0.95"><tspan x="-41.297" y="17">Nacimiento</tspan></text>
    <g id="Grupo_128790" data-name="Grupo 128790" transform="translate(112.499 646.195)">
      <path id="Trazado_168813" data-name="Trazado 168813" d="M327.769,331.13a73.76,73.76,0,0,1-23.705-4.031,2.208,2.208,0,1,1,1.425-4.18,68.037,68.037,0,0,0,27.211,3.573c8.858-.72,16.751-3.38,22.827-7.692a14.314,14.314,0,0,0,3.91-18.963L348.61,281.789a2.208,2.208,0,1,1,3.788-2.272L356,285.527l2.085,1.033a4.088,4.088,0,0,0,3.215.191,3.723,3.723,0,0,0,2.133-1.735c.963-2.039,1.429-4.92,1.429-8.8,0-5.915-2.875-8.054-5.565-8.086h-.058a4.567,4.567,0,0,0-4.371,2.809l2.447,1.19a2.21,2.21,0,0,1-1.936,3.973l-9.978-4.863a6.86,6.86,0,0,0-9.208,9.1l9.773,20.694a2.209,2.209,0,1,1-3.995,1.886l-5.635-11.932c-5.151-2.746-11.361-3.418-15.857-3.47l-21.23,12.648a2.209,2.209,0,0,1-2.262-3.8L318.752,283.4a6.783,6.783,0,0,0-4.142-12.577l-3.494.348a2.209,2.209,0,0,1-2.284-1.415,6.636,6.636,0,0,0-7.909-3.886,20.994,20.994,0,0,1-1.307,12.614l8.058-3.725a2.208,2.208,0,0,1,1.854,4.009l-17.988,8.319a12.04,12.04,0,0,0-4.962,4.246,35.727,35.727,0,0,0-2.734,5.79,2.208,2.208,0,0,1-4.14-1.538,40.43,40.43,0,0,1,3.2-6.7,16.441,16.441,0,0,1,6.783-5.8l3.273-1.514c4.25-6.321,4.7-11.854,3.263-16.128a16.661,16.661,0,0,1-8.6,2.77,2.208,2.208,0,1,1-.086-4.415,12.034,12.034,0,0,0,6.6-2.306,14.4,14.4,0,0,0-2.766-2.793,2.208,2.208,0,0,1-.85-2.027c.223-1.8-.127-3.2-.983-3.947-.883-.77-2.4-.947-4.17-.48a2.211,2.211,0,0,1-2.457-1,32.518,32.518,0,0,0-3.351-4.608,2.209,2.209,0,0,1,3.331-2.9,36.851,36.851,0,0,1,2.977,3.916A7.645,7.645,0,0,1,295,255.957a18.67,18.67,0,0,1,4.445,5.738,11.086,11.086,0,0,1,12.758,4.93l1.97-.2a11.215,11.215,0,0,1,10.734,16.9,41.167,41.167,0,0,1,8.625,1.713L332.2,282.22a11.277,11.277,0,0,1,15.137-14.954l3.544,1.727a8.2,8.2,0,0,1,2.328-3.132,9.363,9.363,0,0,1,6.142-2.149c4.944.058,9.932,3.947,9.932,12.5,0,4.55-.607,8.046-1.854,10.688a8.14,8.14,0,0,1-4.674,4.021,8.637,8.637,0,0,1-3.229.479l3.7,6.162a18.752,18.752,0,0,1-5.143,24.839c-8.126,5.768-18.81,8.727-30.316,8.727Zm-31.092-7.22a2.211,2.211,0,0,1-.953-.217,71.419,71.419,0,0,1-24.489-19.148H255.208a36.708,36.708,0,1,1,21.18-66.693,2.209,2.209,0,0,1-2.551,3.607,32.292,32.292,0,1,0-18.629,58.669H272.3a2.2,2.2,0,0,1,1.737.844,66.816,66.816,0,0,0,23.6,18.737,2.208,2.208,0,0,1-.957,4.2Zm-35.925-31.735a11.122,11.122,0,0,1-11.11-11.11,9.189,9.189,0,0,1,9.18-9.178,2.208,2.208,0,0,1,0,4.417,4.767,4.767,0,0,0-4.763,4.761,6.7,6.7,0,0,0,6.693,6.691A4.765,4.765,0,0,0,265.513,283a2.208,2.208,0,0,1,4.417,0,9.189,9.189,0,0,1-9.178,9.18ZM273.205,264.5a7.1,7.1,0,0,1-1.329-.125,2.209,2.209,0,0,1,.826-4.341,2.616,2.616,0,0,0,3.06-2.081,2.208,2.208,0,1,1,4.339.824,7.039,7.039,0,0,1-6.9,5.722Z" transform="translate(0 0)" fill="#255065"/>
    </g>
  </g>
</svg>
