<svg xmlns="http://www.w3.org/2000/svg" xmlns:xlink="http://www.w3.org/1999/xlink" width="271.969" height="278.674" viewBox="0 0 271.969 278.674">
  <defs>
    <filter id="paris-4345139_1920" x="0" y="0" width="259.938" height="278.674" filterUnits="userSpaceOnUse">
      <feOffset dy="3" input="SourceAlpha"/>
      <feGaussianBlur stdDeviation="3" result="blur"/>
      <feFlood flood-opacity="0.161"/>
      <feComposite operator="in" in2="blur"/>
      <feComposite in="SourceGraphic"/>
    </filter>
  </defs>
  <g id="Grupo_129271" data-name="Grupo 129271" transform="translate(-801 -808)">
    <g transform="matrix(1, 0, 0, 1, 801, 808)" filter="url(#paris-4345139_1920)">
      <path id="paris-4345139_1920-2" data-name="paris-4345139_1920" d="M20,0H221.938a20,20,0,0,1,20,20V240.674a20,20,0,0,1-20,20H20a20,20,0,0,1-20-20V20A20,20,0,0,1,20,0Z" transform="translate(9 6)" fill="#f6f6f6"/>
    </g>
    <text id="Reproducción" transform="translate(930.969 995)" fill="#12263f" font-size="16" font-family="Roboto-Black, Roboto" font-weight="800" opacity="0.95"><tspan x="-49.988" y="17">Reproducción</tspan></text>
    <g id="_15-Pregnant" data-name=" 15-Pregnant" transform="translate(674.518 670.368)">
      <path id="Trazado_168823" data-name="Trazado 168823" d="M235.147,304.632h-3.208v-3.665c-4.757-1.758-22.457-9.666-22.457-30.02,0-21.725,14.493-35.4,21.354-40.652-4.545-1.31-6.917-4.935-6.917-10.678,0-7,6.6-13.686,6.886-13.966l2.27,2.268c-.06.059-5.948,6.034-5.948,11.7,0,5.547,2.473,8.02,8.02,8.02a1.6,1.6,0,0,1,.826,2.979c-.232.14-23.282,14.324-23.282,40.331,0,20.949,20.426,27.081,21.295,27.331a1.606,1.606,0,0,1,1.161,1.542Z" fill="#255065"/>
      <path id="Trazado_168824" data-name="Trazado 168824" d="M302.518,304.632h-3.209c0-15.4-5.813-25.84-10.939-35.052-3.24-5.819-6.038-10.845-6.692-16.079-1.2-9.6,5.174-30.692,9.082-42.411l3.048,1.014c-3.077,9.228-10.106,31.7-8.945,41,.578,4.615,3.236,9.389,6.312,14.918C296.226,277.1,302.518,288.4,302.518,304.632Z" fill="#255065"/>
      <path id="Trazado_168825" data-name="Trazado 168825" d="M294.886,208.912l-3.032-1.046c.7-2.036,1.136-3.234,1.136-3.234l3.015,1.1S295.574,206.915,294.886,208.912Z" fill="#255065"/>
      <path id="Trazado_168826" data-name="Trazado 168826" d="M244.772,296.612a28.873,28.873,0,1,1,28.873-28.873A28.873,28.873,0,0,1,244.772,296.612Zm0-54.538a25.665,25.665,0,1,0,25.664,25.665A25.664,25.664,0,0,0,244.772,242.074Z" fill="#255065"/>
      <path id="Trazado_168827" data-name="Trazado 168827" d="M252.792,267.739c-3.827,0-12.833-4.742-12.833-11.229a11.228,11.228,0,0,1,22.457,0C262.416,262.558,257.123,267.739,252.792,267.739Zm-1.6-19.249a8.029,8.029,0,0,0-8.02,8.02c0,4.12,7,8.021,9.624,8.021,2.14,0,6.416-3.467,6.416-8.021A8.029,8.029,0,0,0,251.188,248.49Z" fill="#255065"/>
      <path id="Trazado_168828" data-name="Trazado 168828" d="M251.188,290.2c-4.2,0-8.081-3.76-9.889-5.817l-3.369,2.53a4.811,4.811,0,0,1-5.556.16l-2.924-1.949a1.6,1.6,0,0,1,.173-2.77l2.87-1.434,3.415-4.552a4.776,4.776,0,0,1,4.64-1.859l4.745.652-5.986-3.424a4.061,4.061,0,0,1,4.019-7.058l6.231,2.887,1.631-.815v-.612H254.4v1.6a1.6,1.6,0,0,1-.887,1.443l-3.208,1.6a1.6,1.6,0,0,1-1.391.02l-7-3.237c-.051-.024-.1-.052-.16-.08a.85.85,0,0,0-.732-.069.84.84,0,0,0-.513.529.853.853,0,0,0,.385,1.007l9.5,5.411a1.6,1.6,0,0,1,.8,1.392v1.6a1.607,1.607,0,0,1-.55,1.21,1.589,1.589,0,0,1-1.274.378l-9.3-1.283a1.638,1.638,0,0,0-1.592.613l-3.643,4.857a1.6,1.6,0,0,1-.566.481l-.734.367.622.416a1.6,1.6,0,0,0,1.853-.05l4.6-3.46a1.6,1.6,0,0,1,2.246.321c1.211,1.6,5.067,5.774,8.341,5.774,11.2,0,12.823-17.6,12.832-17.779v-.051a7.983,7.983,0,0,0-3.009-6.264l-2.406-1.925,2-2.506,2.407,1.925a11.182,11.182,0,0,1,4.213,8.77v.186C267.153,270.321,265.334,290.2,251.188,290.2Z" fill="#255065"/>
    </g>
  </g>
</svg>
