<svg xmlns="http://www.w3.org/2000/svg" xmlns:xlink="http://www.w3.org/1999/xlink" width="271.052" height="278.674" viewBox="0 0 271.052 278.674">
  <defs>
    <filter id="paris-4345139_1920" x="0" y="0" width="259.938" height="278.674" filterUnits="userSpaceOnUse">
      <feOffset dy="3" input="SourceAlpha"/>
      <feGaussianBlur stdDeviation="3" result="blur"/>
      <feFlood flood-opacity="0.161"/>
      <feComposite operator="in" in2="blur"/>
      <feComposite in="SourceGraphic"/>
    </filter>
  </defs>
  <g id="Grupo_129272" data-name="Grupo 129272" transform="translate(-1063.948 -808)">
    <g transform="matrix(1, 0, 0, 1, 1063.95, 808)" filter="url(#paris-4345139_1920)">
      <path id="paris-4345139_1920-2" data-name="paris-4345139_1920" d="M20,0H221.938a20,20,0,0,1,20,20V240.674a20,20,0,0,1-20,20H20a20,20,0,0,1-20-20V20A20,20,0,0,1,20,0Z" transform="translate(9 6)" fill="#f6f6f6"/>
    </g>
    <text id="Muerte" transform="translate(1193 995)" fill="#12263f" font-size="16" font-family="Roboto-Black, Roboto" font-weight="800" opacity="0.95"><tspan x="-26.207" y="17">Muerte</tspan></text>
    <g id="Grupo_128795" data-name="Grupo 128795" transform="translate(937.621 676.104)">
      <path id="Trazado_168829" data-name="Trazado 168829" d="M241.594,259.117h28.812v3.2H241.594Z" fill="#255065"/>
      <path id="Trazado_168830" data-name="Trazado 168830" d="M267.2,265.52h3.2v3.2h-3.2Z" fill="#255065"/>
      <path id="Trazado_168831" data-name="Trazado 168831" d="M248,265.52H264v3.2H248Z" fill="#255065"/>
      <path id="Trazado_168832" data-name="Trazado 168832" d="M241.594,265.52h3.2v3.2h-3.2Z" fill="#255065"/>
      <path id="Trazado_168833" data-name="Trazado 168833" d="M241.594,255.916h28.812V227.1H241.594Zm9.6-14.406a4.8,4.8,0,1,1,4.8,4.8A4.807,4.807,0,0,1,251.2,241.51Zm-1.946,11.205a8.711,8.711,0,0,1,13.5,0Zm-4.457-22.41H267.2v22.41h-.631a11.886,11.886,0,0,0-5.353-5.19,8,8,0,1,0-10.444,0,11.882,11.882,0,0,0-5.351,5.19h-.631Z" fill="#255065"/>
      <circle id="Elipse_4939" data-name="Elipse 4939" cx="1.601" cy="1.601" r="1.601" transform="translate(273.607 276.725)" fill="#255065"/>
      <circle id="Elipse_4940" data-name="Elipse 4940" cx="1.601" cy="1.601" r="1.601" transform="translate(280.01 286.329)" fill="#255065"/>
      <circle id="Elipse_4941" data-name="Elipse 4941" cx="1.601" cy="1.601" r="1.601" transform="translate(284.812 279.926)" fill="#255065"/>
      <path id="Trazado_168834" data-name="Trazado 168834" d="M302.419,284.728h-3.351a9.489,9.489,0,0,0-6.325-10.68,7.979,7.979,0,0,0-3.129-5.285V241.51a33.614,33.614,0,0,0-67.228,0v43.218H209.581a3.2,3.2,0,0,0-3.2,3.2v6.4a3.2,3.2,0,0,0,3.2,3.2h12.805v1.753l4.107-.373,3,8.983,10.417-5.953.333,1.993h1.356a11.978,11.978,0,0,0,4.663-.949,66.305,66.305,0,0,0,41.311,1.6l4.935-1.41-.778-.876a9.643,9.643,0,0,0,3.72-4.766h6.974a3.205,3.205,0,0,0,3.2-3.2v-6.4a3.2,3.2,0,0,0-3.2-3.2ZM225.587,241.51a30.413,30.413,0,0,1,60.826,0v25.782a7.516,7.516,0,0,0-3.2,0V241.51a27.211,27.211,0,1,0-54.422,0v43.218h-3.2Zm44.619,28.321-1.86.558a68.149,68.149,0,0,0-26.814,15.435l-2.15-4.3h-.989a9.556,9.556,0,0,0-6.4,2.465V241.51a24.01,24.01,0,0,1,48.02,0v27.219a8,8,0,0,0-1.913,2.06,9.475,9.475,0,0,0-7.709.863ZM232.129,289.8a6.425,6.425,0,0,1,5.31-5l1.261,2.525a4.783,4.783,0,0,0-1.854,3.26Zm9.465,2.934a1.6,1.6,0,1,1,1.6-1.6A1.6,1.6,0,0,1,241.594,292.731Zm-32.013,1.6v-6.4h19.768a9.529,9.529,0,0,0-.416,1.6h-1.745a4.808,4.808,0,0,0-4.8,4.8Zm16.006,0a1.6,1.6,0,0,1,1.6-1.6h3.072l7.489,1.249a4.816,4.816,0,0,0,.568.642l-12.73,1.159Zm5.7,8.845-1.521-4.563,9.439-.858.136.819Zm10.849-7.3a4.769,4.769,0,0,0,3.1-1.655l3.842,2.305a8.689,8.689,0,0,1-6.145,4.1Zm27.2,8.058a62.887,62.887,0,0,1-19.685-3.15,12,12,0,0,0,2.634-3.462l1-2-6.9-4.141c0-.018.006-.034.006-.051a4.776,4.776,0,0,0-1.836-3.748,64.988,64.988,0,0,1,22.85-13.338l1.109,11.088A64.144,64.144,0,0,0,258.5,281.7l-.509-.126-.773,3.107.507.124a60.58,60.58,0,0,1,28.947,16.7,63.087,63.087,0,0,1-17.327,2.425ZM292.516,288.8l-1.524.783.884,1.466a6.3,6.3,0,0,1,.939,3.286,6.434,6.434,0,0,1-3.291,5.6,63.733,63.733,0,0,0-17.633-13.242l-1.133-11.334a6.316,6.316,0,0,1,7.358-1.092l1.587.817.64-1.667a4.792,4.792,0,0,1,9.271,1.636l-.053,1.54,1.322.266a6.375,6.375,0,0,1,1.633,11.944Zm9.9,5.535h-6.4a9.438,9.438,0,0,0-.692-3.522,9.6,9.6,0,0,0,2.576-2.881h4.518Z" fill="#255065"/>
    </g>
  </g>
</svg>
