<svg xmlns="http://www.w3.org/2000/svg" width="1264.092" height="662.199" viewBox="0 0 1264.092 662.199">
  <g id="Grupo_129268" data-name="Grupo 129268" transform="translate(-182.833 -432)">
    <g id="Grupo_128838" data-name="Grupo 128838" transform="translate(279.747 540.855)">
      <path id="Trazado_113808" data-name="Trazado 113808" d="M290.925,208.278l77.585,25.209A117.339,117.339,0,0,1,480,152.706V71.144A198.93,198.93,0,0,0,290.925,208.278Z" fill="#dfe5e8"/>
      <path id="Trazado_113811" data-name="Trazado 113811" d="M669.243,208.8l-77.585,25.209a117.415,117.415,0,0,1-43.371,131.365l47.94,65.984A199.048,199.048,0,0,0,669.243,208.8Z" fill="#b3c2c9"/>
      <path id="Trazado_168877" data-name="Trazado 168877" d="M669.255,208.835h0l0-.012-.008-.026h0A198.932,198.932,0,0,0,480,71.144h-.037v81.562H480a117.272,117.272,0,0,1,94.718,186.472l12.894,7.141,59.335,31.689A199.038,199.038,0,0,0,669.255,208.835Z" fill="#1e4051"/>
      <circle id="Elipse_4794" data-name="Elipse 4794" cx="40.783" cy="40.783" r="40.783" transform="translate(568.852 320.208)" fill="#1e4051"/>
      <g id="_03" data-name=" 03" style="isolation: isolate">
        <text id="_01" data-name="01" transform="translate(587.452 371.171)" fill="#fff" font-size="37" font-family="Roboto-Bold, Roboto" font-weight="700" style="isolation: isolate"><tspan x="0" y="0">01</tspan></text>
      </g>
      <path id="Trazado_168878" data-name="Trazado 168878" d="M369.545,309.5a117.611,117.611,0,0,1-1.024-76.045l-77.585-25.206a198.85,198.85,0,0,0,3.559,133.325Z" fill="#dfe5e8"/>
      <path id="Trazado_168879" data-name="Trazado 168879" d="M369.545,309.5l-75.05,32.074a198.715,198.715,0,0,0,67.994,88.848l47.941-65.984A117.094,117.094,0,0,1,369.545,309.5Z" fill="#b3c2c9"/>
      <path id="Trazado_113810" data-name="Trazado 113810" d="M480,468.855a197.935,197.935,0,0,0,116.258-37.521l-47.941-65.986a117.3,117.3,0,0,1-137.917-.935L362.459,430.4A197.94,197.94,0,0,0,480,468.855Z" fill="#b3c2c9"/>
      <g id="Grupo_80853" data-name="Grupo 80853">
        <circle id="Elipse_4792" data-name="Elipse 4792" cx="40.781" cy="40.781" r="40.781" transform="translate(295.155 294.49)" fill="#b3c2c9"/>
        <g id="_01-2" data-name=" 01" style="isolation: isolate">
          <text id="_02" data-name="02" transform="translate(313.759 345.435)" fill="#1e4051" font-size="37" font-family="Roboto-Bold, Roboto" font-weight="700" style="isolation: isolate"><tspan x="0" y="0">02</tspan></text>
        </g>
      </g>
      <circle id="Elipse_4796" data-name="Elipse 4796" cx="40.781" cy="40.781" r="40.781" transform="translate(439.219 71.144)" fill="#dfe5e8"/>
      <g id="_05" data-name=" 05" style="isolation: isolate">
        <text id="_03-2" data-name="03" transform="translate(457.823 122.089)" fill="#1e4051" font-size="37" font-family="Roboto-Bold, Roboto" font-weight="700" style="isolation: isolate"><tspan x="0" y="0">03</tspan></text>
      </g>
    </g>
    <text id="_Ciclo_de_vida_del_producto" data-name="     Ciclo de vida del producto" transform="translate(184.333 577.9)" fill="#12263f" font-size="20" font-family="Roboto-Black, Roboto" font-weight="800" opacity="0.95"><tspan x="0" y="21" xml:space="preserve">     Ciclo de vida del producto</tspan></text>
    <line id="Línea_181" data-name="Línea 181" x1="315" transform="translate(206.333 619.9)" fill="none" stroke="#707070" stroke-width="5" opacity="0.95"/>
    <line id="Línea_182" data-name="Línea 182" x1="140" transform="translate(361.333 619.9)" fill="none" stroke="#ff9500" stroke-width="5" opacity="0.95"/>
    <line id="Línea_183" data-name="Línea 183" x2="105.333" y2="77.6" transform="translate(521.333 619.9)" fill="none" stroke="#707070" stroke-width="5" opacity="0.95"/>
    <text id="_Introducción_Crecimiento_Madurez_Declive" data-name="  Introducción
  Crecimiento
  Madurez
  Declive" transform="translate(223.741 637.9)" fill="#12263f" font-size="16" font-family="Roboto-Regular, Roboto"><tspan x="0" y="17" xml:space="preserve">  Introducción</tspan><tspan x="0" y="50" xml:space="preserve">  Crecimiento</tspan><tspan x="0" y="83" xml:space="preserve">  Madurez</tspan><tspan x="0" y="116" xml:space="preserve">  Declive</tspan></text>
    <rect id="Rectángulo_40154" data-name="Rectángulo 40154" width="8" height="8" transform="translate(216.333 645.9)" fill="#ff9500"/>
    <rect id="Rectángulo_40155" data-name="Rectángulo 40155" width="8" height="8" transform="translate(216.333 678.9)" fill="#ff9500"/>
    <rect id="Rectángulo_40156" data-name="Rectángulo 40156" width="8" height="8" transform="translate(216.333 711.9)" fill="#ff9500"/>
    <rect id="Rectángulo_40157" data-name="Rectángulo 40157" width="8" height="8" transform="translate(216.333 744.9)" fill="#ff9500"/>
    <text id="Proceso_de_diseño" data-name="Proceso de diseño" transform="translate(1089.925 596.1)" fill="#12263f" font-size="20" font-family="Roboto-Black, Roboto" font-weight="800" opacity="0.95"><tspan x="0" y="21">Proceso de diseño</tspan></text>
    <line id="Línea_184" data-name="Línea 184" x2="315" transform="translate(1069.925 638.1)" fill="none" stroke="#707070" stroke-width="5" opacity="0.95"/>
    <line id="Línea_185" data-name="Línea 185" x2="140" transform="translate(1089.925 638.1)" fill="none" stroke="#ff9500" stroke-width="5" opacity="0.95"/>
    <line id="Línea_186" data-name="Línea 186" x1="148.259" y2="102.4" transform="translate(921.666 638.1)" fill="none" stroke="#707070" stroke-width="5" opacity="0.95"/>
    <text id="Fases" transform="translate(1089.925 656.1)" fill="#12263f" font-size="16" font-family="Roboto-Bold, Roboto" font-weight="700"><tspan x="0" y="17">Fases</tspan></text>
    <path id="Trazado_168880" data-name="Trazado 168880" d="M0,0H235.337" transform="translate(511.958 992.1)" fill="none" stroke="#707070" stroke-width="5" opacity="0.95"/>
    <text id="_Método_de_selección_de_propuesta" data-name="     Método de selección de propuesta" transform="translate(182.833 953)" fill="#12263f" font-size="20" font-family="Roboto-Black, Roboto" font-weight="800" opacity="0.95"><tspan x="0" y="21" xml:space="preserve">     Método de selección de propuesta</tspan></text>
    <text id="_Focus_group_Matriz_MVA_Entrevista_del_cliente" data-name="  Focus group
  Matriz MVA
  Entrevista del cliente" transform="translate(224.241 1007.199)" fill="#12263f" font-size="16" font-family="Roboto-Regular, Roboto"><tspan x="0" y="17" xml:space="preserve">  Focus group</tspan><tspan x="0" y="50" xml:space="preserve">  Matriz MVA</tspan><tspan x="0" y="83" xml:space="preserve">  Entrevista del cliente</tspan></text>
    <rect id="Rectángulo_40161" data-name="Rectángulo 40161" width="8" height="8" transform="translate(216.833 1013.199)" fill="#ff9500"/>
    <rect id="Rectángulo_40162" data-name="Rectángulo 40162" width="8" height="8" transform="translate(216.833 1046.199)" fill="#ff9500"/>
    <rect id="Rectángulo_40163" data-name="Rectángulo 40163" width="8" height="8" transform="translate(216.833 1079.199)" fill="#ff9500"/>
    <line id="Línea_191" data-name="Línea 191" x2="315" transform="translate(206.833 992.1)" fill="none" stroke="#707070" stroke-width="5" opacity="0.95"/>
    <text id="Idea_Investigación_Planificación_del_proceso_Creación_de_prototipos_Prueba_de_prototipos_Cadena_de_suministros_Diseño_definitivo" data-name="Idea
Investigación
Planificación del proceso
Creación de prototipos
Prueba de prototipos
Cadena de suministros
Diseño definitivo" transform="translate(1107.333 693.1)" fill="#12263f" font-size="16" font-family="Roboto-Regular, Roboto"><tspan x="0" y="17">Idea</tspan><tspan x="0" y="50">Investigación</tspan><tspan x="0" y="83">Planificación del proceso</tspan><tspan x="0" y="116">Creación de prototipos</tspan><tspan x="0" y="149">Prueba de prototipos</tspan><tspan x="0" y="182">Cadena de suministros</tspan><tspan x="0" y="215">Diseño definitivo</tspan></text>
    <rect id="Rectángulo_40168" data-name="Rectángulo 40168" width="8" height="8" transform="translate(1089.925 699.1)" fill="#ff9500"/>
    <rect id="Rectángulo_40169" data-name="Rectángulo 40169" width="8" height="8" transform="translate(1089.925 732.1)" fill="#ff9500"/>
    <rect id="Rectángulo_40170" data-name="Rectángulo 40170" width="8" height="8" transform="translate(1089.925 765.1)" fill="#ff9500"/>
    <rect id="Rectángulo_40171" data-name="Rectángulo 40171" width="8" height="8" transform="translate(1089.925 798.1)" fill="#ff9500"/>
    <rect id="Rectángulo_40172" data-name="Rectángulo 40172" width="8" height="8" transform="translate(1089.925 831.1)" fill="#ff9500"/>
    <rect id="Rectángulo_40173" data-name="Rectángulo 40173" width="8" height="8" transform="translate(1089.925 864.1)" fill="#ff9500"/>
    <rect id="Rectángulo_40174" data-name="Rectángulo 40174" width="8" height="8" transform="translate(1089.925 897.1)" fill="#ff9500"/>
    <text id="Identificar_necesidades_del_cliente_y_ciclo_de_vida_del_producto" data-name="Identificar necesidades del 
cliente y ciclo de vida del producto" transform="translate(778.166 466)" fill="#12263f" font-size="32" font-family="Roboto-Black, Roboto" font-weight="800" opacity="0.95"><tspan x="-199.305" y="0">Identificar necesidades del </tspan><tspan x="-249.977" y="35">cliente y ciclo de vida del producto</tspan></text>
    <line id="Línea_192" data-name="Línea 192" x2="140" transform="translate(361.333 992.1)" fill="none" stroke="#ff9500" stroke-width="5" opacity="0.95"/>
  </g>
</svg>
